<svg width="52" height="52" viewBox="0 0 52 52" fill="none" xmlns="http://www.w3.org/2000/svg">
<circle cx="26" cy="26" r="25.5" stroke="#009DDD" stroke-dasharray="5 5"/>
<path d="M20.6358 28.0634H23.9373V31.3649C23.9373 32.603 24.7627 33.4284 26.0008 33.4284C27.2389 33.4284 28.0643 32.603 28.0643 31.3649V28.0634H31.3659C32.604 28.0634 33.4294 27.238 33.4294 25.9999C33.4294 24.7618 32.604 23.9364 31.3659 23.9364H28.0643V20.6348C28.0643 19.3967 27.2389 18.5713 26.0008 18.5713C24.7627 18.5713 23.9373 19.3967 23.9373 20.6348V23.9364H20.6358C19.3977 23.9364 18.5723 24.7618 18.5723 25.9999C18.5723 27.238 19.3977 28.0634 20.6358 28.0634Z" fill="#009DDD"/>
</svg>
