<svg width="24" height="14" viewBox="0 0 24 14" fill="none" xmlns="http://www.w3.org/2000/svg">
<g clip-path="url(#clip0_1596_14034)">
<path d="M0.75 0.707031H23.2441V13.8835H0.75V0.707031Z" fill="#006D31"/>
<path d="M15.9584 10.0806C15.7202 10.0806 15.6614 10.1114 15.5026 10.1011C15.3437 10.0908 15.0084 10.0652 15.0084 10.0652C15.0084 10.0652 15.0084 9.9573 14.9732 9.90081C14.9379 9.84431 14.8496 9.79295 14.7702 9.81863C14.6879 9.84431 14.682 9.8854 14.682 9.92649C14.682 9.99839 14.7849 10.0343 14.7908 10.0652C14.7908 10.0652 12.2379 9.96244 10.929 9.96244C9.62314 9.96244 8.51138 10.0985 7.96432 9.99582C7.96432 9.99582 7.9849 10.3014 8.9202 10.3194C9.8555 10.3374 11.4173 10.3014 12.1379 10.3014C12.8584 10.3014 14.6349 10.3528 14.7908 10.3708C14.7908 10.3708 14.7996 10.4298 14.7761 10.4504C14.7526 10.4709 14.7467 10.5017 14.7467 10.5377C14.7467 10.5736 14.7614 10.6276 14.7908 10.6686C14.8202 10.7097 14.832 10.7251 14.8849 10.7251C14.9496 10.7251 15.0143 10.6892 14.9908 10.6327C14.9908 10.6327 15.182 10.607 15.2408 10.6224C15.2996 10.6378 15.3879 10.6789 15.4908 10.6789C15.5967 10.6789 15.782 10.6532 15.8408 10.6224C15.8408 10.6224 15.8526 10.7097 16.0143 10.7097C16.1761 10.7097 16.2584 10.6121 16.2584 10.476C16.2614 10.3399 16.1967 10.0806 15.9584 10.0806V10.0806ZM15.7879 10.5428C15.7584 10.5582 15.5379 10.5659 15.5379 10.5274C15.5349 10.4889 15.4849 10.4555 15.4526 10.4555C15.3526 10.4555 15.3879 10.5017 15.3232 10.5017C15.2584 10.5017 14.9379 10.4966 14.9379 10.4966C14.9379 10.4966 14.9143 10.4247 14.979 10.4093C14.979 10.4093 15.2261 10.3887 15.429 10.3887C15.6761 10.3887 15.8379 10.4298 15.8379 10.4298C15.8379 10.4298 15.8173 10.5274 15.7879 10.5428V10.5428ZM6.85255 4.4181C6.85255 4.4181 6.8702 4.20752 6.79667 4.15616C6.72902 4.10994 6.70843 4.04574 6.72902 4.01749C6.77902 3.94045 6.84667 3.93788 6.89372 3.96099C6.95549 3.99181 6.99078 4.07912 6.98784 4.14846C6.98196 4.22036 6.9349 4.33592 6.85255 4.4181V4.4181ZM6.51725 6.11556C6.51725 6.11556 6.84961 5.72265 7.06431 5.65588C7.27902 5.58655 7.42608 5.6302 7.4349 5.71495C7.44373 5.79969 7.36726 5.84335 7.22902 5.86903C7.07608 5.89727 6.74372 6.03852 6.62902 6.11556C6.56137 6.16435 6.48784 6.15921 6.51725 6.11556V6.11556ZM6.57608 6.48278C6.57608 6.48278 6.38784 6.78324 6.37019 7.00409C6.35549 7.20953 6.39078 7.34563 6.56431 7.34563C6.74078 7.34563 6.81725 7.15046 6.81725 7.05545C6.81725 6.96043 6.79667 6.9707 6.74961 6.9707C6.69961 6.9707 6.62902 7.08627 6.58196 7.06572C6.49078 7.02463 6.50255 6.91421 6.53196 6.8423C6.57314 6.75242 6.56431 6.63173 6.57608 6.48278Z" fill="white"/>
<path d="M6.49069 4.45903C6.49069 4.45903 6.42893 4.81599 6.44951 5.02656C6.4701 5.23714 6.61716 5.39379 6.7554 5.39379C6.89069 5.39379 7.00834 5.22944 7.00834 5.06252C7.00834 4.89816 7.02893 4.74151 7.08187 4.72354C7.13481 4.70556 7.13775 5.24484 7.16128 5.31932C7.20834 5.48624 7.41128 5.38865 7.49363 5.57612C7.52599 5.65316 7.54657 6.24637 7.5554 6.32855C7.56716 6.41072 7.56716 6.41072 7.64069 6.31827C7.71422 6.22583 7.77599 5.987 7.78775 5.84062C7.79952 5.69425 7.74657 5.4734 7.71422 5.40149C7.68187 5.32702 7.73481 5.22687 7.80834 5.23714C7.88187 5.24741 7.96716 5.33216 8.09658 5.34757C8.2201 5.36041 8.49069 5.31932 8.54364 5.17294C8.59658 5.02656 8.37599 4.63109 8.38481 4.56689C8.39658 4.50269 8.43775 4.56689 8.47893 4.53094C8.52011 4.49499 8.38481 4.28441 8.29952 4.26386C8.21716 4.24589 8.06716 4.31009 8.09952 4.43849C8.13187 4.56689 8.32011 4.80571 8.33187 4.94182C8.34363 5.08049 8.13187 5.08049 8.0701 4.98804C8.0054 4.8956 7.93187 4.78517 7.93187 4.64907C7.93187 4.51039 7.96128 4.37429 7.8554 4.31009C7.74952 4.24589 7.65246 4.31779 7.68187 4.51039C7.71422 4.70299 7.8554 5.00602 7.71128 4.97777C7.66422 4.97007 7.61716 4.72097 7.58481 4.48215C7.55246 4.24332 7.61422 4.04302 7.43775 4.01477C7.30246 3.99422 7.27599 4.07383 7.32893 4.36658C7.38187 4.65934 7.43775 4.9033 7.38775 5.01372C7.33481 5.12415 7.30246 4.81085 7.29363 4.61055C7.28187 4.40767 7.27304 4.37686 7.13481 4.40254C6.92893 4.44106 6.84069 4.65934 6.82893 4.89816C6.81716 5.13699 6.65246 5.2885 6.6201 4.9598C6.58481 4.63109 6.58481 4.61311 6.49069 4.45903V4.45903Z" fill="white"/>
<path d="M7.84473 3.99722C7.83297 3.98438 7.75356 4.01262 7.75061 4.0871C7.74473 4.1667 7.78003 4.27199 7.90356 4.27199C8.02709 4.27199 8.17414 4.25658 8.17414 4.15386C8.17414 4.05114 8.11826 3.98438 8.10062 3.98694C8.08297 3.99208 8.12414 4.06142 8.09179 4.0948C8.05944 4.12818 8.00944 4.08966 7.99767 4.04344C7.98591 3.99722 7.99179 3.98438 7.98003 3.98438C7.9712 3.98438 7.96238 4.01006 7.9565 4.0383C7.95061 4.06655 7.89179 4.11534 7.85356 4.09737C7.81238 4.07939 7.85356 4.00492 7.84473 3.99722V3.99722ZM11.4947 5.34029C11.483 5.32745 11.4065 5.35569 11.4006 5.43017C11.3947 5.50977 11.43 5.61506 11.5536 5.61506C11.6771 5.61506 11.8241 5.59965 11.8241 5.49693C11.8241 5.39421 11.7683 5.32745 11.7506 5.33001C11.733 5.33515 11.7741 5.40449 11.7418 5.43787C11.7094 5.47125 11.6594 5.43273 11.6477 5.38651C11.6359 5.34029 11.6418 5.32745 11.63 5.32745C11.6212 5.32745 11.6124 5.35313 11.6065 5.38137C11.6006 5.40962 11.5418 5.45841 11.5036 5.44044C11.4624 5.42246 11.5036 5.35056 11.4947 5.34029V5.34029ZM13.5918 4.77789C13.58 4.76505 13.5006 4.7933 13.4977 4.86777C13.4918 4.94738 13.5271 5.05267 13.6506 5.05267C13.7742 5.05267 13.9212 5.03726 13.9212 4.93454C13.9212 4.83182 13.8653 4.76505 13.8477 4.76762C13.83 4.77275 13.8712 4.84209 13.8389 4.87547C13.8065 4.90886 13.7565 4.87034 13.7447 4.82411C13.733 4.77789 13.7389 4.76505 13.7271 4.76505C13.7183 4.76505 13.7094 4.79073 13.7036 4.81898C13.6977 4.84723 13.6389 4.89602 13.6006 4.87804C13.5624 4.86007 13.6036 4.78816 13.5918 4.77789V4.77789ZM9.92415 4.33876C9.92415 4.33876 9.95356 4.27199 9.95356 4.15643C9.95356 4.04087 9.89179 3.98951 9.78885 3.98951C9.68003 3.98951 9.61532 4.06142 9.59473 4.14873C9.58003 4.20266 9.59473 4.29767 9.69473 4.34133C9.69473 4.34133 9.70062 4.39782 9.58885 4.48C9.48003 4.56218 9.17709 4.80614 9.11238 4.81384C9.04768 4.82411 9.05944 4.82411 9.06238 4.83952C9.07415 4.90629 9.59179 4.87804 9.90356 4.40553C9.90356 4.40553 9.95356 4.41837 9.97121 4.38755C9.98885 4.35674 9.92415 4.33876 9.92415 4.33876V4.33876ZM9.78885 4.26942C9.75944 4.26942 9.73591 4.23861 9.73591 4.20009C9.73591 4.16157 9.75944 4.13075 9.78885 4.13075C9.81826 4.13075 9.84179 4.16157 9.84179 4.20009C9.83885 4.23861 9.81532 4.26942 9.78885 4.26942ZM9.72415 4.8575C9.73003 4.81384 9.72121 4.801 9.65062 4.82925C9.6065 4.84723 9.57121 4.86007 9.54179 4.87547C9.51238 4.89088 9.51826 4.89088 9.52415 4.91913C9.53003 4.94481 9.54768 5.13741 9.65356 5.16566C9.75944 5.19391 9.85944 5.13228 9.87709 5.07578C9.89474 5.01928 9.91826 4.9782 9.90356 4.96792C9.88885 4.95765 9.76826 5.1066 9.71532 5.05267C9.66238 4.99617 9.70944 4.94224 9.72415 4.8575V4.8575Z" fill="white"/>
<path d="M9.93236 5.35556C9.91471 5.35042 9.82059 5.41976 9.77353 5.47368C9.72942 5.52504 9.76765 5.58668 9.70589 5.59952C9.65589 5.60979 9.60295 5.50964 9.57942 5.48909C9.55589 5.46855 9.54118 5.45828 9.50295 5.46598C9.46471 5.47368 9.42059 5.51734 9.36471 5.61236C9.31177 5.70994 9.23236 5.71251 9.1853 5.65088C9.10883 5.55073 9.16471 5.47625 9.08824 5.48396C9.01177 5.49166 8.99412 5.60209 8.9353 5.53018C8.87647 5.45571 8.83824 4.96522 8.7853 4.61083C8.77942 4.58002 8.77647 4.55947 8.78824 4.55434C8.8353 4.53379 8.93236 4.59542 8.95295 4.56974C8.97059 4.54406 8.96471 4.49784 8.91177 4.39512C8.85883 4.2924 8.75 4.02019 8.67059 3.99965C8.59412 3.97653 8.5 4.21022 8.51471 4.30267C8.52942 4.39512 8.71177 5.22972 8.70883 5.44544C8.70294 5.66115 8.69118 5.69197 8.6353 5.69197C8.57941 5.69197 8.55883 5.60979 8.47647 5.561C8.39706 5.51221 8.34118 5.48396 8.25883 5.48396C8.11765 5.48396 7.95 5.61493 7.90883 5.74589C7.86765 5.87429 7.89412 6.10798 8.06177 6.13623C8.21177 6.16191 8.34412 6.10285 8.4 6.0669C8.42647 6.05149 8.44118 6.03865 8.44706 6.04378C8.45294 6.04892 8.46177 6.1311 8.3853 6.23638C8.30883 6.34167 8.00294 6.61388 7.72059 6.61388C7.43824 6.61388 7.39412 6.36479 7.39412 6.23382C7.39412 6.10285 7.40882 6.11312 7.40882 6.07717C7.40882 6.04122 7.36765 5.98472 7.33235 5.98986C7.3 5.99499 7.23529 6.07203 7.23529 6.30572C7.23529 6.53941 7.37353 6.88096 7.72353 6.88096C8.07353 6.88096 8.45294 6.68579 8.63824 6.11312C8.67353 6.0027 8.65 5.97188 8.67353 5.95904C8.69118 5.94877 8.73824 6.05406 8.74706 6.12082C8.75589 6.22098 8.72059 7.04274 7.7 7.04274C7.7 7.04274 7.49412 7.04017 7.41765 6.99652C7.34118 6.95286 7.25294 6.82703 7.2 6.61645C7.14706 6.40587 7.16471 6.3237 7.14412 6.33397C7.12353 6.34167 7 6.47778 7 6.73972C7 7.00165 7.02647 7.34063 7.65294 7.34063C8.17941 7.34063 8.6353 7.08126 8.81471 6.77824C8.99412 6.47521 8.95883 6.02581 8.95883 5.97445C8.95883 5.92309 9.01471 5.92822 9.02059 5.95904C9.02647 5.98986 9.09412 5.99756 9.12942 6.00013C9.16471 6.0027 9.25 5.99499 9.29706 5.96931C9.34412 5.94363 9.42353 5.86402 9.46765 5.86402C9.51177 5.86402 9.52059 5.92822 9.65 5.92822C9.78236 5.92822 9.8853 5.88457 9.9353 5.55329C9.95589 5.40948 9.95295 5.36069 9.93236 5.35556V5.35556ZM8.21177 5.87429C8.15588 5.87943 8.10588 5.85118 8.1 5.81266C8.09412 5.77414 8.13824 5.73562 8.19412 5.73049C8.25 5.72535 8.3 5.7536 8.30589 5.79212C8.30883 5.83064 8.26765 5.86659 8.21177 5.87429Z" fill="white"/>
<path d="M9.42849 6.29279C9.42849 6.29279 9.33143 6.27995 9.29613 6.20291C9.26084 6.1233 9.36672 6.07451 9.41378 6.06937C9.46378 6.06423 9.58143 6.131 9.56084 6.26967C9.54025 6.40835 9.49025 6.53161 9.46378 6.52391C9.43731 6.51877 9.44319 6.35442 9.44908 6.31076C9.4579 6.26967 9.42849 6.29279 9.42849 6.29279ZM10.4844 3.86602C10.5285 3.85831 10.5432 3.90967 10.5638 3.93022C10.5844 3.95076 10.5785 3.95846 10.5579 3.9713C10.5373 3.98414 10.4491 4.06375 10.4403 4.0997C10.4285 4.13822 10.4961 4.1562 10.5285 4.13309C10.552 4.11511 10.5873 4.15363 10.5844 4.17931C10.5785 4.22554 10.5344 4.27946 10.4344 4.27946C10.3344 4.27946 10.2873 4.23067 10.2903 4.17161C10.2932 4.13566 10.3373 3.99955 10.3785 3.95076C10.4226 3.90197 10.4697 3.86858 10.4844 3.86602V3.86602ZM11.1579 3.91738C11.2461 3.89683 11.3138 4.00469 11.2961 4.05605C11.2785 4.10741 11.2667 4.16904 11.2432 4.20499C11.2197 4.24094 11.1991 4.28203 11.202 4.30258C11.2079 4.32312 11.1814 4.33596 11.1726 4.33596C11.1638 4.33596 11.0903 4.35137 11.0785 4.31285C11.0667 4.2769 11.0726 4.22297 11.0932 4.18958C11.1138 4.1562 11.1226 4.08173 11.105 4.04578C11.0873 4.00982 11.0873 3.93535 11.1579 3.91738V3.91738Z" fill="white"/>
<path d="M10.024 4.56715C10.024 4.80854 10.1975 5.17577 10.4299 5.16036C10.6211 5.15009 10.6475 4.91897 10.6917 4.80084C10.7358 4.68271 10.7358 4.63135 10.7622 4.62621C10.7887 4.62108 10.8005 5.01398 10.8652 5.09102C10.9299 5.17063 11.0064 5.24767 11.1211 5.24767C11.2358 5.24767 11.3769 5.22456 11.4946 5.09616C11.6093 4.96776 11.6358 4.94978 11.7269 5.06791C11.8181 5.18604 11.8946 5.20658 11.9652 5.20658C12.0358 5.20658 12.2564 5.18861 12.3181 4.98317C12.3505 4.87788 12.4093 4.9164 12.427 4.96519C12.4446 5.01655 12.427 5.09359 12.4652 5.09359C12.5034 5.09359 12.6122 5.01398 12.6505 4.95235C12.6887 4.89072 12.7211 4.81881 12.6946 4.77259C12.6681 4.72893 12.6181 4.77259 12.5652 4.80084C12.5122 4.82909 12.5446 4.84449 12.5064 4.84449C12.4681 4.84449 12.3652 4.87788 12.3446 4.79313C12.324 4.70839 12.2475 4.53633 12.1975 4.45672C12.1446 4.37968 12.1446 4.27696 12.2034 4.2821C12.2622 4.28724 12.3446 4.34373 12.377 4.32062C12.4093 4.29751 12.2799 4.19736 12.2681 4.10747C12.2564 4.01759 12.1593 3.89947 12.0446 3.93799C11.9299 3.97651 11.8211 4.11775 11.9299 4.33089C12.0387 4.54404 12.0887 4.64676 12.0975 4.69041C12.1181 4.79827 12.0328 4.94721 11.9181 4.92667C11.8034 4.90356 11.7387 4.78029 11.7269 4.62365C11.7152 4.467 11.6505 4.07409 11.6181 3.98421C11.5858 3.89433 11.574 3.88406 11.5417 3.89947C11.5093 3.91744 11.3681 3.97907 11.3887 4.10747C11.4093 4.23588 11.4858 4.31548 11.4858 4.31548C11.4858 4.31548 11.5564 4.67501 11.5122 4.7238C11.4681 4.77516 11.3652 4.93181 11.2681 4.93694C11.1387 4.94208 10.9917 4.83165 10.9917 4.71866C10.9917 4.60567 11.0505 4.21533 10.9269 4.13572C10.8064 4.05611 10.6769 4.26412 10.5417 4.53376C10.4064 4.80341 10.4975 4.89842 10.3799 4.87017C10.2652 4.84193 10.2446 4.63905 10.2122 4.467C10.1799 4.29237 10.1593 4.2256 10.1211 4.24872C10.0828 4.2821 10.024 4.42077 10.024 4.56715V4.56715ZM10.424 5.70478C10.4534 5.6226 10.5093 5.6791 10.5269 5.58922C10.5446 5.49934 10.4034 5.32728 10.2917 5.31958C10.1799 5.31187 10.0005 5.45054 10.1122 5.6791C10.224 5.90765 10.3387 5.94874 10.3181 6.02321C10.3005 6.09768 10.2622 6.22095 10.0652 6.38273C9.86812 6.54709 9.21224 6.8989 9.01518 7.00419C8.81812 7.10948 8.62989 7.24045 8.6593 7.27383C8.68871 7.30722 9.01518 7.20707 9.19459 7.16855C9.374 7.12746 10.0887 6.83984 10.3858 6.49573C10.7034 6.1285 10.5358 5.90508 10.4887 5.84088C10.4446 5.77925 10.424 5.70478 10.424 5.70478V5.70478Z" fill="white"/>
<path d="M12.9133 6.1235C12.678 6.09012 12.2575 6.16459 12.1075 6.14918C11.9575 6.13377 11.9104 6.08498 12.0604 6.04133C12.2104 6.00024 12.2575 6.03362 12.3339 6.02592C12.5957 5.99253 12.7104 5.83845 12.7545 5.64072C12.8016 5.44555 12.5957 5.25551 12.4369 5.24011C12.278 5.2247 12.0604 5.32228 12.0428 5.44555C12.0251 5.56881 12.1075 5.69208 12.0898 5.72289C12.0722 5.75628 11.9016 5.7383 11.5927 5.86157C11.2839 5.98483 11.228 6.08241 11.1722 6.13891C11.1163 6.19541 11.1545 6.13121 11.1427 6.04133C11.1339 5.95145 10.9163 5.41987 10.8251 5.2966C10.731 5.17334 10.6927 5.17334 10.6663 5.25551C10.6369 5.33769 10.628 5.52516 10.6751 5.6741C10.7222 5.82048 10.8722 6.04389 10.8633 6.22365C10.8545 6.40342 10.7751 6.78605 10.0839 7.00947C9.90451 7.06596 9.72804 7.09935 9.78392 6.75523C9.83981 6.41112 9.86922 6.30583 9.83981 6.26474C9.81628 6.22879 9.45451 6.69874 9.55745 7.02744C9.6898 7.44603 10.2692 7.45373 10.6075 7.10192C10.9457 6.7501 10.9927 6.70131 11.0398 6.76551C11.0869 6.83227 11.2839 7.15841 11.8457 7.23288C12.1663 7.27397 12.1839 7.21748 12.1839 7.12503C12.1839 7.03515 12.1075 6.97865 12.0339 6.96067C11.9604 6.94527 11.8104 6.86309 11.8104 6.80403C11.8104 6.74753 11.7927 6.65765 12.1486 6.60629C12.5045 6.5575 12.7486 6.501 12.8339 6.49073C12.9192 6.48302 13.0222 6.41626 12.9839 6.38287C12.9457 6.34949 12.9663 6.29299 13.031 6.2442C13.0928 6.19541 13.1486 6.15432 12.9133 6.1235V6.1235ZM12.2957 5.54056C12.3163 5.52772 12.3545 5.54313 12.378 5.57652C12.4016 5.6099 12.4045 5.64585 12.381 5.65869C12.3604 5.67153 12.3222 5.65356 12.2986 5.62274C12.2751 5.58936 12.2722 5.5534 12.2957 5.54056ZM11.7045 6.52411C11.631 6.54979 11.5633 6.65508 11.5722 6.70387C11.5927 6.80916 11.5633 6.83998 11.3957 6.77064C11.1604 6.67306 11.1898 6.42653 11.1692 6.39314C11.1516 6.35976 11.1839 6.32638 11.2339 6.31867C11.2986 6.31097 11.4869 6.32638 11.5986 6.34435C11.7104 6.35976 11.8604 6.40855 11.8604 6.44964C11.8633 6.49073 11.7722 6.501 11.7045 6.52411V6.52411Z" fill="white"/>
<path d="M12.4101 6.93473C12.4601 6.89878 12.5101 6.85769 12.5954 6.82944C12.6807 6.80376 12.6601 6.84999 12.6483 6.88337C12.6365 6.91676 12.6307 7.05286 12.6807 7.06313C12.7307 7.0734 12.8983 7.04002 12.9218 7.0092C12.9454 6.97839 12.9454 6.96298 12.963 6.96555C12.9807 6.96812 13.0513 7.01177 13.113 7.04002C13.1777 7.0657 13.1365 7.07854 13.016 7.09908C12.8954 7.11963 12.7365 7.1864 12.6454 7.1864C12.5542 7.1864 12.5542 7.11963 12.5454 7.07597C12.5395 7.03232 12.5189 7.01177 12.4807 7.01948C12.4395 7.02461 12.4042 7.02718 12.3924 6.99893C12.3836 6.96812 12.4101 6.93473 12.4101 6.93473V6.93473ZM16.1924 7.1299C16.2218 7.08111 16.2513 7.02718 16.3101 6.98609C16.3689 6.945 16.363 7.0015 16.3601 7.04002C16.3571 7.07854 16.3807 7.23262 16.4189 7.23776C16.4571 7.24289 16.5748 7.18383 16.5865 7.14531C16.5983 7.10679 16.5954 7.09138 16.6101 7.09138C16.6248 7.09138 16.6836 7.13247 16.7365 7.15558C16.7895 7.17613 16.7601 7.19667 16.6748 7.23519C16.5895 7.27371 16.4836 7.37129 16.416 7.38413C16.3483 7.39441 16.3336 7.31993 16.3218 7.27114C16.3071 7.22235 16.2895 7.2018 16.263 7.21465C16.2336 7.22749 16.2071 7.23519 16.1924 7.20437C16.1807 7.17356 16.1924 7.1299 16.1924 7.1299V7.1299ZM13.1101 4.15614C13.063 4.09194 13.1013 4.00977 13.0365 4.00977C12.9718 4.00977 12.9454 4.07397 12.9454 4.11505C12.9454 4.15614 12.9307 4.33334 13.0101 4.42835C13.0571 4.48485 13.066 4.50026 13.066 4.54905C13.066 4.59784 13.2307 5.42731 13.2307 6.29786C13.2307 6.70104 13.1748 6.73186 13.1836 6.78065C13.1924 6.82944 13.2013 6.98096 13.2307 6.99893C13.2571 7.01434 13.416 6.87053 13.4336 6.62914C13.4513 6.38775 13.4336 5.4761 13.3042 4.68772C13.2865 4.57473 13.3689 4.69543 13.3865 4.65434C13.4042 4.61325 13.3748 4.33847 13.2836 4.29225C13.1983 4.24602 13.166 4.22805 13.1101 4.15614ZM14.6248 4.15614C14.5777 4.09194 14.616 4.00977 14.5513 4.00977C14.4865 4.00977 14.4601 4.07397 14.4601 4.11505C14.4601 4.15614 14.4454 4.33334 14.5248 4.42835C14.5718 4.48485 14.5807 4.50026 14.5807 4.54905C14.5807 4.59784 14.8042 5.32459 14.8365 6.09499C14.8542 6.52128 14.8248 6.85256 14.8542 6.86796C14.8807 6.88337 14.9836 6.77038 15.0013 6.52899C15.0189 6.28759 14.9513 5.4761 14.8218 4.68772C14.8042 4.57473 14.8865 4.69543 14.9042 4.65434C14.9218 4.61325 14.8924 4.33847 14.8013 4.29225C14.713 4.24602 14.6807 4.22805 14.6248 4.15614V4.15614Z" fill="white"/>
<path d="M12.4487 4.02779C12.3723 3.98671 12.3664 3.89683 12.3046 3.92251C12.2458 3.94819 12.2517 4.01752 12.2723 4.05604C12.2929 4.09456 12.3723 4.26405 12.4958 4.32312C12.5693 4.3565 12.584 4.36934 12.6105 4.413C12.634 4.45665 13.2193 5.16542 13.6693 5.97435C13.8782 6.34928 13.8429 6.40064 13.8752 6.44173C13.9076 6.48281 13.9958 6.62149 14.0311 6.62662C14.0664 6.63176 14.137 6.43402 14.0282 6.2029C13.9193 5.97178 13.4311 5.12947 12.9046 4.44638C12.8282 4.3488 12.9693 4.4284 12.9664 4.38475C12.9635 4.34109 12.7929 4.09456 12.684 4.08686C12.5782 4.07915 12.537 4.07402 12.4487 4.02779V4.02779Z" fill="white"/>
<path d="M14.4124 6.68014C14.4506 6.53119 14.4006 5.78133 14.3889 5.62982C14.38 5.47831 14.3477 5.00066 14.3036 4.68993C14.2889 4.57693 14.3683 4.7002 14.3889 4.65911C14.4094 4.61802 14.3859 4.34325 14.2947 4.29445C14.2065 4.24823 14.1771 4.22768 14.1212 4.15321C14.0741 4.08901 14.1153 4.00684 14.0506 4.00684C13.9859 4.00684 13.9565 4.07104 13.9565 4.10956C13.9565 4.15064 13.9359 4.32784 14.0153 4.42542C14.0594 4.48192 14.0683 4.49989 14.0683 4.54612C14.0683 4.59491 14.233 5.4064 14.2094 6.27696C14.2006 6.64162 14.1536 6.6827 14.0477 6.78799C13.8859 6.94978 13.5565 7.18604 13.4477 7.20915C13.3389 7.23226 13.3094 7.2451 13.3389 7.28876C13.3653 7.32728 13.5124 7.37607 13.6212 7.37607C13.73 7.37607 13.8241 7.37607 13.9771 7.27848C14.1418 7.17576 14.3212 7.05764 14.4124 6.68014V6.68014ZM15.2036 4.96984C15.1683 5.03147 15.1183 5.1496 15.1565 5.20867C15.1947 5.26516 15.3918 5.32423 15.4477 5.4064C15.5036 5.48858 15.533 5.48088 15.5418 5.43208C15.5506 5.38329 15.5242 5.19326 15.6183 5.08797C15.6594 5.03918 15.7418 5.03918 15.7506 4.9647C15.7594 4.89023 15.6859 4.84144 15.6271 4.83374C15.5712 4.82603 15.4859 4.82603 15.4771 4.87482C15.4683 4.92362 15.43 5.16244 15.3918 5.13676C15.3536 5.11108 15.3065 5.03918 15.28 4.99809C15.2506 4.95186 15.2212 4.93646 15.2036 4.96984V4.96984ZM15.4594 5.96623C15.3712 6.02016 15.2918 6.05354 15.283 6.04327L15.2183 5.93028C15.2124 5.91744 15.2771 5.86351 15.3683 5.80958L15.7006 5.60671C15.7889 5.55278 15.8683 5.5194 15.8771 5.52967L15.9418 5.64266C15.9477 5.6555 15.883 5.70943 15.7918 5.76336L15.4594 5.96623ZM15.833 5.83526C15.783 5.81215 15.7183 5.93028 15.7183 5.99448C15.7183 6.09206 15.8242 6.18708 15.8506 6.21276C15.8889 6.25128 15.8947 6.33602 15.8536 6.36941C15.8153 6.40022 15.7771 6.40793 15.8094 6.43104C15.8418 6.45158 15.9771 6.3463 15.9771 6.26926C15.9771 6.19221 15.9212 6.09977 15.8977 6.05868C15.8742 6.01759 15.8977 5.98164 15.8977 5.94055C15.9006 5.89432 15.88 5.8558 15.833 5.83526V5.83526Z" fill="white"/>
<path d="M17.2268 6.303C17.1739 6.19514 17.0327 5.97686 16.8386 5.70979C16.8062 5.42217 16.7562 5.07806 16.6945 4.70056C16.6768 4.58757 16.7592 4.70827 16.7768 4.66718C16.7945 4.62609 16.7651 4.35131 16.6739 4.30509C16.5856 4.25886 16.5533 4.24089 16.4974 4.16898C16.4503 4.10478 16.4886 4.02517 16.4239 4.02517C16.3592 4.02517 16.3327 4.08937 16.3327 4.13046C16.3327 4.17155 16.318 4.34874 16.3974 4.44376C16.4445 4.50026 16.4533 4.51566 16.4533 4.56446C16.4533 4.59527 16.5356 4.92655 16.5945 5.38365C16.4798 5.23214 16.3562 5.07292 16.2268 4.91371C16.2151 4.83667 16.2033 4.76219 16.1915 4.68772C16.1739 4.57473 16.2562 4.69543 16.2739 4.65434C16.2915 4.61325 16.2621 4.33847 16.1739 4.29225C16.0856 4.24602 16.0533 4.22805 15.9974 4.15614C15.9503 4.09194 15.9886 4.00977 15.9239 4.00977C15.8592 4.00977 15.8327 4.07397 15.8327 4.11505C15.8327 4.14844 15.8239 4.2717 15.8621 4.36929C15.8503 4.36672 15.8415 4.36158 15.8327 4.36158C15.7209 4.35902 15.6798 4.35645 15.5856 4.31536C15.5033 4.27941 15.4974 4.18696 15.4356 4.21521C15.3709 4.24345 15.3798 4.31536 15.4003 4.35131C15.4209 4.38726 15.5033 4.55418 15.6327 4.60811C15.7092 4.63893 15.7268 4.6492 15.7533 4.69286C15.7651 4.71083 15.868 4.81099 16.0151 4.9702C16.0621 5.30404 16.118 5.79453 16.118 6.30043V6.39031C16.1062 6.45708 16.0798 6.53412 16.0239 6.59319C15.9386 6.6805 15.8592 6.7447 15.7445 6.60346C15.6298 6.46479 15.5415 6.33895 15.4533 6.36463C15.3651 6.39031 15.2798 6.46479 15.2092 6.66252C15.1386 6.86026 14.9562 7.14788 14.868 7.07084C14.7798 6.9938 14.6621 6.92446 14.6621 6.70875C14.6621 6.4956 14.7033 6.46479 14.6886 6.41343C14.6709 6.36207 14.5327 6.5598 14.5239 6.80376C14.5151 7.04772 14.6386 7.24803 14.8856 7.35332C15.1327 7.45604 15.2298 7.20181 15.2621 7.1222C15.2915 7.04259 15.3268 6.79863 15.3768 6.77552C15.4356 6.74984 15.5386 6.77552 15.5533 6.79863C15.5709 6.82174 15.6621 6.92703 15.7562 6.96041C15.8445 6.99123 16.0092 7.03232 16.1268 6.97839C16.2562 6.91932 16.3239 6.83201 16.3503 6.67023C16.3651 6.58035 16.368 6.44938 16.3592 6.3672C16.3592 6.09756 16.3268 5.68668 16.2739 5.25012C16.3886 5.38108 16.5121 5.5326 16.6327 5.69181C16.6503 5.88185 16.6621 6.08215 16.6621 6.28759C16.6621 6.69077 16.6621 6.80633 16.7092 6.81147C16.7415 6.81404 16.8621 6.62914 16.8798 6.38775C16.8856 6.3107 16.8827 6.19001 16.8709 6.03593C17.0945 6.38775 17.2298 6.66766 17.2621 6.67023C17.3003 6.67793 17.3386 6.52899 17.2268 6.303V6.303ZM16.8709 4.34874C16.8974 4.3205 16.9121 4.31022 16.9474 4.35902C16.9827 4.41038 17.0562 4.53621 17.0562 4.73651C17.0562 4.93682 16.9768 4.94966 16.9503 4.95223C16.9268 4.95479 16.9621 4.92141 16.9827 4.85464C17.0033 4.78787 16.9945 4.73651 16.9445 4.64663C16.8915 4.55418 16.818 4.5131 16.8003 4.49769C16.7827 4.48228 16.7798 4.46944 16.8003 4.44119C16.8209 4.41294 16.8621 4.35902 16.8709 4.34874V4.34874Z" fill="white"/>
<path d="M17.4585 4.64902C17.4409 4.54116 17.5232 4.65672 17.5409 4.6182C17.5585 4.57968 17.4526 4.44615 17.3968 4.37681C17.3497 4.31518 17.3056 4.18164 17.2409 4.18164C17.1762 4.18164 17.1497 4.24327 17.1497 4.28436C17.1497 4.32288 17.135 4.49494 17.2144 4.58995C17.2615 4.64388 17.2703 4.66186 17.2703 4.70808C17.2703 4.75431 17.4644 5.61459 17.4644 6.45947C17.4644 6.80101 17.3997 6.82413 17.3909 6.85494C17.3438 6.91914 17.2703 6.99105 17.1526 7.07065C16.8438 7.27353 16.6879 7.32232 16.6703 7.35827C16.6526 7.39422 16.6732 7.39936 16.7232 7.40963C16.7732 7.42247 17.132 7.37625 17.335 7.23758C17.5703 7.07322 17.6203 6.87292 17.6262 6.68545C17.6291 6.44663 17.5879 5.41429 17.4585 4.64902V4.64902Z" fill="white"/>
</g>
<defs>
<clipPath id="clip0_1596_14034">
<rect width="24" height="13.1765" fill="white" transform="translate(0 0.707031)"/>
</clipPath>
</defs>
</svg>
