<svg width="24" height="24" viewBox="0 0 24 24" fill="none" xmlns="http://www.w3.org/2000/svg">
<path fill-rule="evenodd" clip-rule="evenodd" d="M12.0004 4.5C10.3795 4.50062 8.80232 5.02639 7.50523 5.99856C6.20815 6.97072 5.26094 8.33696 4.80547 9.89262C4.35 11.4483 4.4108 13.1096 4.97875 14.6278C5.54671 16.1461 6.59125 17.4394 7.95592 18.3142C9.32059 19.1889 10.9319 19.598 12.5486 19.4801C14.1653 19.3623 15.7003 18.7238 16.9237 17.6604C18.147 16.597 18.993 15.1658 19.3347 13.5813C19.6765 11.9968 19.4957 10.3442 18.8194 8.871C18.7458 8.69189 18.7443 8.49126 18.8153 8.31108C18.8863 8.13091 19.0241 7.98516 19.2001 7.90435C19.3761 7.82353 19.5765 7.81391 19.7594 7.8775C19.9423 7.94109 20.0935 8.07295 20.1814 8.2455C20.9929 10.0134 21.2098 11.9966 20.7995 13.8981C20.3893 15.7996 19.374 17.5169 17.9058 18.793C16.4376 20.069 14.5955 20.835 12.6554 20.9762C10.7153 21.1175 8.78166 20.6263 7.14413 19.5764C5.50659 18.5264 4.25331 16.9742 3.57202 15.1522C2.89072 13.3301 2.81808 11.3364 3.36497 9.46967C3.91187 7.6029 5.04887 5.96357 6.60565 4.79723C8.16243 3.63089 10.0552 3.00033 12.0004 3V4.5Z" fill="white"/>
<path d="M12 6.69913V0.801129C12 0.729874 12.0204 0.660101 12.0586 0.599981C12.0969 0.539861 12.1514 0.491882 12.216 0.461663C12.2805 0.431444 12.3523 0.420236 12.423 0.42935C12.4936 0.438465 12.5602 0.467526 12.615 0.513129L16.155 3.46213C16.335 3.61213 16.335 3.88813 16.155 4.03813L12.615 6.98713C12.5602 7.03273 12.4936 7.06179 12.423 7.07091C12.3523 7.08002 12.2805 7.06881 12.216 7.0386C12.1514 7.00838 12.0969 6.9604 12.0586 6.90028C12.0204 6.84016 12 6.77038 12 6.69913Z" fill="white"/>
</svg>
