<svg width="18" height="19" viewBox="0 0 18 19" fill="none" xmlns="http://www.w3.org/2000/svg">
<path d="M7.50048 3.87305C4.90248 3.87305 3.00048 5.65655 3.00048 7.62305C3.00048 8.28305 3.20523 8.9063 3.57423 9.45305C3.63728 9.54634 3.67851 9.65262 3.69487 9.76402C3.71122 9.87542 3.70229 9.98907 3.66873 10.0965L3.32748 11.1908L5.04873 10.9148C5.18822 10.8924 5.33121 10.9098 5.46123 10.965C6.1066 11.2369 6.8002 11.3757 7.50048 11.373C10.0985 11.373 12.0005 9.58955 12.0005 7.62305C12.0005 5.65655 10.0985 3.87305 7.50048 3.87305ZM1.50048 7.62305C1.50048 4.6193 4.29948 2.37305 7.50048 2.37305C10.7015 2.37305 13.5005 4.6193 13.5005 7.62305C13.5005 10.6268 10.7015 12.873 7.50048 12.873C6.67305 12.8751 5.85232 12.7246 5.07948 12.429L2.36898 12.864C2.24282 12.8843 2.11358 12.872 1.99351 12.8283C1.87343 12.7846 1.76652 12.711 1.6829 12.6144C1.59928 12.5177 1.54173 12.4014 1.51571 12.2763C1.48969 12.1512 1.49607 12.0215 1.53423 11.8995L2.13423 9.9773C1.72018 9.2617 1.50162 8.4498 1.50048 7.62305Z" fill="#849AA9"/>
<path d="M12.0542 6.27261C12.0169 6.36386 11.9981 6.46155 11.9986 6.5601C11.9992 6.65865 12.0191 6.75612 12.0574 6.84695C12.0956 6.93777 12.1514 7.02017 12.2215 7.08944C12.2916 7.1587 12.3746 7.21347 12.4659 7.25061C14.0184 7.88286 14.9987 9.19386 14.9987 10.6226C14.9987 11.2826 14.7939 11.9059 14.4249 12.4526C14.3619 12.5459 14.3206 12.6522 14.3043 12.7636C14.2879 12.875 14.2969 12.9886 14.3304 13.0961L14.6717 14.1904L12.9504 13.9144C12.8109 13.8919 12.6679 13.9093 12.5379 13.9646C11.8925 14.2364 11.1989 14.3752 10.4987 14.3726C8.47067 14.3726 6.82892 13.2634 6.24092 11.8369C6.16513 11.6529 6.01936 11.5065 5.83567 11.43C5.65198 11.3535 5.44541 11.3531 5.26142 11.4289C5.07743 11.5047 4.93107 11.6504 4.85456 11.8341C4.77804 12.0178 4.77763 12.2244 4.85342 12.4084C5.70767 14.4776 7.95617 15.8726 10.4987 15.8726C11.3261 15.8748 12.1468 15.7242 12.9197 15.4286L15.6302 15.8636C15.7563 15.8839 15.8856 15.8716 16.0056 15.8279C16.1257 15.7842 16.2326 15.7105 16.3163 15.6139C16.3999 15.5173 16.4574 15.4009 16.4834 15.2758C16.5095 15.1507 16.5031 15.0211 16.4649 14.8991L15.8649 12.9769C16.279 12.2613 16.4975 11.4494 16.4987 10.6226C16.4987 8.46111 15.0264 6.67311 13.0314 5.86086C12.9402 5.82377 12.8425 5.80502 12.744 5.80568C12.6455 5.80634 12.5481 5.82639 12.4574 5.8647C12.3666 5.903 12.2843 5.95881 12.2151 6.02893C12.1459 6.09905 12.0912 6.18211 12.0542 6.27336V6.27261Z" fill="#849AA9"/>
</svg>
