<svg width="706" height="536" viewBox="0 0 706 536" fill="none" xmlns="http://www.w3.org/2000/svg">
<g filter="url(#filter0_d_573_53780)">
<path d="M510.141 116H91.8594C74.264 116 60 126.541 60 139.543V432.457C60 445.459 74.264 456 91.8594 456H510.141C527.736 456 542 445.459 542 432.457V139.543C542 126.541 527.736 116 510.141 116Z" fill="white"/>
</g>
<path d="M110.584 162.556H113.212C113.159 163.417 112.922 164.182 112.5 164.85C112.084 165.518 111.501 166.04 110.751 166.415C110.007 166.79 109.11 166.977 108.062 166.977C107.241 166.977 106.506 166.836 105.855 166.555C105.205 166.268 104.648 165.858 104.186 165.325C103.729 164.792 103.38 164.147 103.14 163.391C102.899 162.635 102.779 161.789 102.779 160.851V159.963C102.779 159.026 102.902 158.179 103.148 157.423C103.4 156.662 103.758 156.014 104.221 155.481C104.689 154.948 105.249 154.538 105.899 154.25C106.55 153.963 107.276 153.82 108.079 153.82C109.146 153.82 110.045 154.013 110.777 154.4C111.516 154.787 112.087 155.32 112.491 156C112.901 156.679 113.147 157.453 113.229 158.32H110.593C110.563 157.804 110.461 157.368 110.285 157.01C110.109 156.647 109.843 156.375 109.485 156.193C109.134 156.005 108.665 155.912 108.079 155.912C107.64 155.912 107.256 155.994 106.928 156.158C106.6 156.322 106.324 156.571 106.102 156.905C105.879 157.239 105.712 157.661 105.601 158.17C105.495 158.674 105.442 159.266 105.442 159.946V160.851C105.442 161.513 105.492 162.096 105.592 162.6C105.691 163.098 105.844 163.52 106.049 163.866C106.26 164.206 106.529 164.463 106.857 164.639C107.191 164.809 107.593 164.894 108.062 164.894C108.612 164.894 109.066 164.806 109.424 164.63C109.781 164.455 110.054 164.194 110.241 163.848C110.435 163.502 110.549 163.072 110.584 162.556ZM117.316 159.366V166.801H114.785V157.292H117.167L117.316 159.366ZM120.182 157.23L120.138 159.577C120.015 159.559 119.865 159.544 119.689 159.533C119.52 159.515 119.364 159.506 119.224 159.506C118.866 159.506 118.556 159.553 118.292 159.647C118.034 159.735 117.817 159.867 117.642 160.042C117.472 160.218 117.343 160.432 117.255 160.684C117.173 160.936 117.126 161.223 117.114 161.545L116.604 161.387C116.604 160.772 116.666 160.207 116.789 159.691C116.912 159.169 117.091 158.715 117.325 158.329C117.565 157.942 117.858 157.643 118.204 157.432C118.55 157.221 118.945 157.116 119.391 157.116C119.531 157.116 119.675 157.127 119.821 157.151C119.968 157.168 120.088 157.195 120.182 157.23ZM125.578 166.977C124.84 166.977 124.178 166.86 123.592 166.625C123.006 166.385 122.508 166.054 122.098 165.632C121.693 165.21 121.383 164.721 121.166 164.165C120.949 163.602 120.841 163.004 120.841 162.372V162.02C120.841 161.299 120.943 160.64 121.148 160.042C121.354 159.445 121.646 158.926 122.027 158.487C122.414 158.047 122.883 157.71 123.434 157.476C123.984 157.236 124.605 157.116 125.297 157.116C125.971 157.116 126.568 157.227 127.09 157.45C127.611 157.672 128.048 157.989 128.399 158.399C128.757 158.809 129.026 159.301 129.208 159.875C129.39 160.444 129.48 161.077 129.48 161.774V162.829H121.922V161.141H126.993V160.948C126.993 160.596 126.929 160.283 126.8 160.007C126.677 159.726 126.489 159.503 126.237 159.339C125.985 159.175 125.663 159.093 125.271 159.093C124.937 159.093 124.649 159.167 124.409 159.313C124.169 159.459 123.973 159.665 123.82 159.928C123.674 160.192 123.562 160.502 123.486 160.86C123.416 161.211 123.381 161.598 123.381 162.02V162.372C123.381 162.752 123.434 163.104 123.539 163.426C123.65 163.749 123.806 164.027 124.005 164.261C124.21 164.496 124.456 164.677 124.743 164.806C125.036 164.935 125.367 165 125.736 165C126.193 165 126.618 164.912 127.011 164.736C127.409 164.554 127.752 164.282 128.039 163.918L129.27 165.254C129.07 165.542 128.798 165.817 128.452 166.081C128.112 166.344 127.702 166.561 127.222 166.731C126.741 166.895 126.193 166.977 125.578 166.977ZM136.055 164.657V160.42C136.055 160.116 136.005 159.855 135.905 159.638C135.806 159.416 135.65 159.243 135.439 159.12C135.234 158.997 134.968 158.935 134.64 158.935C134.358 158.935 134.115 158.985 133.91 159.084C133.705 159.178 133.547 159.316 133.436 159.498C133.324 159.673 133.269 159.881 133.269 160.122H130.737C130.737 159.717 130.831 159.333 131.019 158.97C131.206 158.607 131.479 158.288 131.836 158.012C132.193 157.731 132.618 157.511 133.11 157.353C133.608 157.195 134.165 157.116 134.78 157.116C135.519 157.116 136.175 157.239 136.749 157.485C137.323 157.731 137.774 158.1 138.103 158.592C138.437 159.084 138.604 159.7 138.604 160.438V164.507C138.604 165.029 138.636 165.457 138.7 165.791C138.765 166.119 138.858 166.406 138.981 166.652V166.801H136.424C136.301 166.543 136.207 166.221 136.143 165.834C136.084 165.442 136.055 165.049 136.055 164.657ZM136.389 161.009L136.406 162.442H134.991C134.657 162.442 134.367 162.48 134.121 162.556C133.875 162.632 133.673 162.741 133.515 162.881C133.356 163.016 133.239 163.174 133.163 163.356C133.093 163.538 133.058 163.737 133.058 163.954C133.058 164.17 133.107 164.367 133.207 164.542C133.307 164.712 133.45 164.847 133.638 164.947C133.825 165.041 134.045 165.087 134.297 165.087C134.678 165.087 135.009 165.011 135.29 164.859C135.571 164.707 135.788 164.519 135.94 164.296C136.099 164.074 136.181 163.863 136.187 163.664L136.854 164.736C136.761 164.976 136.632 165.225 136.468 165.483C136.31 165.741 136.107 165.984 135.861 166.212C135.615 166.435 135.319 166.62 134.974 166.766C134.628 166.907 134.218 166.977 133.743 166.977C133.14 166.977 132.592 166.857 132.1 166.617C131.613 166.371 131.227 166.034 130.939 165.606C130.658 165.172 130.518 164.68 130.518 164.129C130.518 163.631 130.611 163.189 130.799 162.802C130.986 162.416 131.262 162.09 131.625 161.827C131.994 161.557 132.454 161.355 133.005 161.22C133.556 161.08 134.194 161.009 134.921 161.009H136.389ZM145.213 157.292V159.084H139.676V157.292H145.213ZM141.047 154.945H143.578V163.936C143.578 164.211 143.613 164.422 143.684 164.569C143.76 164.715 143.871 164.818 144.018 164.876C144.164 164.929 144.349 164.956 144.571 164.956C144.729 164.956 144.87 164.95 144.993 164.938C145.122 164.92 145.23 164.903 145.318 164.885L145.327 166.749C145.11 166.819 144.876 166.875 144.624 166.916C144.372 166.957 144.094 166.977 143.789 166.977C143.232 166.977 142.746 166.886 142.33 166.705C141.92 166.517 141.604 166.218 141.381 165.808C141.158 165.398 141.047 164.859 141.047 164.191V154.945ZM151.031 166.977C150.293 166.977 149.631 166.86 149.045 166.625C148.459 166.385 147.961 166.054 147.551 165.632C147.146 165.21 146.836 164.721 146.619 164.165C146.402 163.602 146.294 163.004 146.294 162.372V162.02C146.294 161.299 146.396 160.64 146.602 160.042C146.807 159.445 147.1 158.926 147.48 158.487C147.867 158.047 148.336 157.71 148.887 157.476C149.438 157.236 150.059 157.116 150.75 157.116C151.424 157.116 152.021 157.227 152.543 157.45C153.064 157.672 153.501 157.989 153.853 158.399C154.21 158.809 154.479 159.301 154.661 159.875C154.843 160.444 154.934 161.077 154.934 161.774V162.829H147.375V161.141H152.446V160.948C152.446 160.596 152.382 160.283 152.253 160.007C152.13 159.726 151.942 159.503 151.69 159.339C151.438 159.175 151.116 159.093 150.724 159.093C150.39 159.093 150.103 159.167 149.862 159.313C149.622 159.459 149.426 159.665 149.273 159.928C149.127 160.192 149.016 160.502 148.939 160.86C148.869 161.211 148.834 161.598 148.834 162.02V162.372C148.834 162.752 148.887 163.104 148.992 163.426C149.104 163.749 149.259 164.027 149.458 164.261C149.663 164.496 149.909 164.677 150.196 164.806C150.489 164.935 150.82 165 151.189 165C151.646 165 152.071 164.912 152.464 164.736C152.862 164.554 153.205 164.282 153.492 163.918L154.723 165.254C154.523 165.542 154.251 165.817 153.905 166.081C153.565 166.344 153.155 166.561 152.675 166.731C152.194 166.895 151.646 166.977 151.031 166.977ZM163.679 165.729L166.201 157.292H168.917L165.094 168.234C165.012 168.474 164.9 168.732 164.76 169.007C164.625 169.283 164.44 169.543 164.206 169.79C163.978 170.042 163.688 170.247 163.336 170.405C162.99 170.563 162.565 170.642 162.062 170.642C161.821 170.642 161.625 170.627 161.473 170.598C161.32 170.569 161.139 170.528 160.928 170.475V168.621C160.992 168.621 161.06 168.621 161.13 168.621C161.2 168.626 161.268 168.629 161.332 168.629C161.666 168.629 161.938 168.591 162.149 168.515C162.36 168.439 162.53 168.322 162.659 168.164C162.788 168.011 162.891 167.812 162.967 167.566L163.679 165.729ZM162.624 157.292L164.689 164.182L165.05 166.863L163.327 167.047L159.908 157.292H162.624ZM169.383 162.143V161.958C169.383 161.261 169.482 160.62 169.682 160.034C169.881 159.442 170.171 158.929 170.552 158.496C170.933 158.062 171.401 157.725 171.958 157.485C172.515 157.239 173.153 157.116 173.874 157.116C174.595 157.116 175.236 157.239 175.799 157.485C176.361 157.725 176.833 158.062 177.214 158.496C177.601 158.929 177.894 159.442 178.093 160.034C178.292 160.62 178.392 161.261 178.392 161.958V162.143C178.392 162.834 178.292 163.476 178.093 164.068C177.894 164.654 177.601 165.167 177.214 165.606C176.833 166.04 176.364 166.376 175.808 166.617C175.251 166.857 174.612 166.977 173.892 166.977C173.171 166.977 172.529 166.857 171.967 166.617C171.41 166.376 170.938 166.04 170.552 165.606C170.171 165.167 169.881 164.654 169.682 164.068C169.482 163.476 169.383 162.834 169.383 162.143ZM171.914 161.958V162.143C171.914 162.542 171.949 162.914 172.02 163.259C172.09 163.605 172.201 163.91 172.354 164.173C172.512 164.431 172.717 164.633 172.969 164.78C173.221 164.926 173.528 165 173.892 165C174.243 165 174.545 164.926 174.797 164.78C175.049 164.633 175.251 164.431 175.403 164.173C175.556 163.91 175.667 163.605 175.737 163.259C175.813 162.914 175.852 162.542 175.852 162.143V161.958C175.852 161.572 175.813 161.208 175.737 160.869C175.667 160.523 175.553 160.218 175.395 159.955C175.242 159.685 175.04 159.474 174.788 159.322C174.536 159.169 174.231 159.093 173.874 159.093C173.517 159.093 173.212 159.169 172.96 159.322C172.714 159.474 172.512 159.685 172.354 159.955C172.201 160.218 172.09 160.523 172.02 160.869C171.949 161.208 171.914 161.572 171.914 161.958ZM185.572 164.525V157.292H188.104V166.801H185.722L185.572 164.525ZM185.854 162.574L186.601 162.556C186.601 163.189 186.527 163.778 186.381 164.323C186.234 164.862 186.015 165.331 185.722 165.729C185.429 166.122 185.06 166.429 184.614 166.652C184.169 166.869 183.645 166.977 183.041 166.977C182.578 166.977 182.15 166.913 181.758 166.784C181.371 166.649 181.037 166.441 180.756 166.16C180.48 165.873 180.264 165.506 180.105 165.061C179.953 164.61 179.877 164.068 179.877 163.435V157.292H182.408V163.453C182.408 163.734 182.44 163.971 182.505 164.165C182.575 164.358 182.672 164.516 182.795 164.639C182.918 164.762 183.062 164.85 183.226 164.903C183.396 164.956 183.583 164.982 183.788 164.982C184.31 164.982 184.72 164.876 185.019 164.666C185.323 164.455 185.537 164.167 185.66 163.804C185.789 163.435 185.854 163.025 185.854 162.574ZM192.568 159.366V166.801H190.037V157.292H192.419L192.568 159.366ZM195.434 157.23L195.39 159.577C195.267 159.559 195.117 159.544 194.941 159.533C194.771 159.515 194.616 159.506 194.476 159.506C194.118 159.506 193.808 159.553 193.544 159.647C193.286 159.735 193.069 159.867 192.894 160.042C192.724 160.218 192.595 160.432 192.507 160.684C192.425 160.936 192.378 161.223 192.366 161.545L191.856 161.387C191.856 160.772 191.918 160.207 192.041 159.691C192.164 159.169 192.343 158.715 192.577 158.329C192.817 157.942 193.11 157.643 193.456 157.432C193.802 157.221 194.197 157.116 194.643 157.116C194.783 157.116 194.927 157.127 195.073 157.151C195.22 157.168 195.34 157.195 195.434 157.23ZM209.496 164.745V166.801H203.054V164.745H209.496ZM203.906 154.004V166.801H201.27V154.004H203.906ZM213.521 157.292V166.801H210.981V157.292H213.521ZM210.823 154.813C210.823 154.444 210.952 154.139 211.21 153.899C211.468 153.659 211.813 153.539 212.247 153.539C212.675 153.539 213.018 153.659 213.275 153.899C213.539 154.139 213.671 154.444 213.671 154.813C213.671 155.182 213.539 155.487 213.275 155.727C213.018 155.967 212.675 156.087 212.247 156.087C211.813 156.087 211.468 155.967 211.21 155.727C210.952 155.487 210.823 155.182 210.823 154.813ZM220.755 164.173C220.755 163.992 220.702 163.828 220.597 163.681C220.491 163.535 220.295 163.4 220.008 163.277C219.727 163.148 219.319 163.031 218.786 162.925C218.306 162.82 217.857 162.688 217.441 162.53C217.031 162.366 216.674 162.169 216.369 161.941C216.07 161.712 215.836 161.443 215.666 161.132C215.496 160.816 215.411 160.456 215.411 160.051C215.411 159.653 215.496 159.278 215.666 158.926C215.842 158.575 216.091 158.264 216.413 157.995C216.741 157.719 217.14 157.505 217.608 157.353C218.083 157.195 218.616 157.116 219.208 157.116C220.034 157.116 220.743 157.248 221.335 157.511C221.933 157.775 222.39 158.138 222.706 158.601C223.028 159.058 223.189 159.58 223.189 160.166H220.658C220.658 159.919 220.605 159.7 220.5 159.506C220.4 159.307 220.242 159.152 220.025 159.041C219.814 158.923 219.539 158.865 219.199 158.865C218.918 158.865 218.675 158.915 218.47 159.014C218.265 159.108 218.106 159.237 217.995 159.401C217.89 159.559 217.837 159.735 217.837 159.928C217.837 160.075 217.866 160.207 217.925 160.324C217.989 160.435 218.092 160.538 218.232 160.631C218.373 160.725 218.555 160.813 218.777 160.895C219.006 160.971 219.287 161.042 219.621 161.106C220.307 161.247 220.919 161.431 221.458 161.66C221.997 161.882 222.425 162.187 222.741 162.574C223.058 162.955 223.216 163.456 223.216 164.077C223.216 164.499 223.122 164.885 222.935 165.237C222.747 165.588 222.478 165.896 222.126 166.16C221.774 166.417 221.353 166.62 220.86 166.766C220.374 166.907 219.826 166.977 219.217 166.977C218.332 166.977 217.582 166.819 216.967 166.502C216.357 166.186 215.895 165.785 215.578 165.298C215.268 164.806 215.112 164.302 215.112 163.787H217.512C217.523 164.132 217.611 164.411 217.775 164.622C217.945 164.833 218.159 164.985 218.417 165.079C218.681 165.172 218.965 165.219 219.27 165.219C219.598 165.219 219.87 165.175 220.087 165.087C220.304 164.994 220.468 164.871 220.579 164.718C220.696 164.56 220.755 164.378 220.755 164.173ZM229.518 157.292V159.084H223.98V157.292H229.518ZM225.352 154.945H227.883V163.936C227.883 164.211 227.918 164.422 227.988 164.569C228.064 164.715 228.176 164.818 228.322 164.876C228.469 164.929 228.653 164.956 228.876 164.956C229.034 164.956 229.175 164.95 229.298 164.938C229.427 164.92 229.535 164.903 229.623 164.885L229.632 166.749C229.415 166.819 229.181 166.875 228.929 166.916C228.677 166.957 228.398 166.977 228.094 166.977C227.537 166.977 227.051 166.886 226.635 166.705C226.225 166.517 225.908 166.218 225.686 165.808C225.463 165.398 225.352 164.859 225.352 164.191V154.945ZM233.631 157.292V166.801H231.091V157.292H233.631ZM230.933 154.813C230.933 154.444 231.062 154.139 231.319 153.899C231.577 153.659 231.923 153.539 232.356 153.539C232.784 153.539 233.127 153.659 233.385 153.899C233.648 154.139 233.78 154.444 233.78 154.813C233.78 155.182 233.648 155.487 233.385 155.727C233.127 155.967 232.784 156.087 232.356 156.087C231.923 156.087 231.577 155.967 231.319 155.727C231.062 155.487 230.933 155.182 230.933 154.813ZM238.201 159.322V166.801H235.67V157.292H238.043L238.201 159.322ZM237.832 161.712H237.146C237.146 161.009 237.237 160.376 237.419 159.814C237.601 159.246 237.855 158.762 238.184 158.364C238.512 157.959 238.901 157.652 239.353 157.441C239.81 157.224 240.319 157.116 240.882 157.116C241.327 157.116 241.734 157.18 242.104 157.309C242.473 157.438 242.789 157.643 243.053 157.924C243.322 158.206 243.527 158.578 243.668 159.041C243.814 159.503 243.888 160.069 243.888 160.737V166.801H241.339V160.728C241.339 160.306 241.28 159.978 241.163 159.744C241.046 159.509 240.873 159.345 240.645 159.251C240.422 159.152 240.146 159.102 239.818 159.102C239.479 159.102 239.183 159.169 238.931 159.304C238.685 159.439 238.479 159.626 238.315 159.867C238.157 160.101 238.037 160.376 237.955 160.693C237.873 161.009 237.832 161.349 237.832 161.712ZM251.833 157.292H254.127V166.485C254.127 167.352 253.934 168.087 253.547 168.691C253.166 169.3 252.633 169.76 251.947 170.071C251.262 170.387 250.465 170.545 249.557 170.545C249.158 170.545 248.736 170.493 248.291 170.387C247.852 170.282 247.43 170.118 247.025 169.895C246.627 169.672 246.293 169.391 246.023 169.051L247.14 167.557C247.433 167.897 247.772 168.161 248.159 168.348C248.546 168.542 248.974 168.638 249.442 168.638C249.899 168.638 250.286 168.553 250.603 168.383C250.919 168.219 251.162 167.976 251.332 167.654C251.502 167.337 251.587 166.954 251.587 166.502V159.489L251.833 157.292ZM245.435 162.161V161.976C245.435 161.25 245.522 160.59 245.698 159.999C245.88 159.401 246.135 158.888 246.463 158.46C246.797 158.033 247.201 157.702 247.676 157.467C248.15 157.233 248.687 157.116 249.284 157.116C249.917 157.116 250.447 157.233 250.875 157.467C251.303 157.702 251.654 158.036 251.93 158.469C252.205 158.897 252.419 159.404 252.571 159.99C252.729 160.57 252.853 161.206 252.94 161.897V162.301C252.853 162.963 252.721 163.579 252.545 164.147C252.369 164.715 252.138 165.213 251.851 165.641C251.563 166.063 251.206 166.391 250.778 166.625C250.356 166.86 249.853 166.977 249.267 166.977C248.681 166.977 248.15 166.857 247.676 166.617C247.207 166.376 246.806 166.04 246.472 165.606C246.138 165.172 245.88 164.663 245.698 164.077C245.522 163.491 245.435 162.852 245.435 162.161ZM247.966 161.976V162.161C247.966 162.553 248.004 162.919 248.08 163.259C248.156 163.599 248.273 163.901 248.432 164.165C248.596 164.422 248.798 164.625 249.038 164.771C249.284 164.912 249.574 164.982 249.908 164.982C250.371 164.982 250.749 164.885 251.042 164.692C251.335 164.493 251.555 164.22 251.701 163.875C251.848 163.529 251.933 163.13 251.956 162.679V161.528C251.944 161.159 251.895 160.828 251.807 160.535C251.719 160.236 251.596 159.981 251.438 159.77C251.279 159.559 251.074 159.395 250.822 159.278C250.57 159.161 250.271 159.102 249.926 159.102C249.592 159.102 249.302 159.178 249.056 159.331C248.815 159.477 248.613 159.679 248.449 159.937C248.291 160.195 248.171 160.5 248.089 160.851C248.007 161.197 247.966 161.572 247.966 161.976Z" fill="#94A2B3"/>
<path d="M154.42 267.943C154.42 267.714 154.385 267.509 154.315 267.328C154.25 267.14 154.127 266.97 153.946 266.818C153.764 266.66 153.509 266.504 153.181 266.352C152.853 266.2 152.428 266.041 151.907 265.877C151.327 265.69 150.776 265.479 150.254 265.245C149.739 265.01 149.282 264.738 148.883 264.427C148.491 264.111 148.18 263.745 147.952 263.328C147.729 262.912 147.618 262.429 147.618 261.878C147.618 261.345 147.735 260.862 147.969 260.428C148.204 259.989 148.532 259.614 148.954 259.303C149.375 258.987 149.874 258.744 150.448 258.574C151.028 258.404 151.664 258.319 152.355 258.319C153.298 258.319 154.122 258.489 154.825 258.828C155.528 259.168 156.073 259.634 156.459 260.226C156.852 260.818 157.048 261.495 157.048 262.256H154.429C154.429 261.881 154.35 261.553 154.192 261.272C154.04 260.985 153.805 260.759 153.489 260.595C153.178 260.431 152.786 260.349 152.311 260.349C151.854 260.349 151.473 260.419 151.168 260.56C150.864 260.695 150.635 260.879 150.483 261.114C150.331 261.342 150.254 261.6 150.254 261.887C150.254 262.104 150.307 262.3 150.413 262.476C150.524 262.652 150.688 262.816 150.905 262.968C151.122 263.12 151.388 263.264 151.705 263.399C152.021 263.534 152.387 263.665 152.803 263.794C153.5 264.005 154.113 264.243 154.64 264.506C155.173 264.77 155.619 265.066 155.976 265.394C156.333 265.722 156.603 266.094 156.785 266.51C156.966 266.926 157.057 267.398 157.057 267.925C157.057 268.482 156.949 268.98 156.732 269.419C156.515 269.859 156.202 270.231 155.792 270.536C155.381 270.84 154.892 271.072 154.324 271.23C153.755 271.388 153.12 271.467 152.417 271.467C151.784 271.467 151.16 271.385 150.544 271.221C149.929 271.051 149.37 270.796 148.866 270.456C148.368 270.117 147.969 269.683 147.67 269.156C147.372 268.628 147.222 268.004 147.222 267.284H149.868C149.868 267.682 149.929 268.019 150.052 268.294C150.175 268.57 150.348 268.792 150.571 268.962C150.799 269.132 151.069 269.255 151.379 269.331C151.696 269.408 152.042 269.446 152.417 269.446C152.874 269.446 153.249 269.381 153.542 269.252C153.84 269.123 154.06 268.945 154.201 268.716C154.347 268.488 154.42 268.23 154.42 267.943ZM163.825 269.147V264.911C163.825 264.606 163.775 264.345 163.675 264.128C163.576 263.906 163.42 263.733 163.209 263.61C163.004 263.487 162.738 263.425 162.41 263.425C162.128 263.425 161.885 263.475 161.68 263.575C161.475 263.668 161.317 263.806 161.206 263.988C161.094 264.163 161.039 264.371 161.039 264.612H158.507C158.507 264.207 158.601 263.824 158.789 263.46C158.976 263.097 159.249 262.778 159.606 262.502C159.963 262.221 160.388 262.001 160.88 261.843C161.378 261.685 161.935 261.606 162.55 261.606C163.289 261.606 163.945 261.729 164.519 261.975C165.093 262.221 165.544 262.59 165.873 263.082C166.207 263.575 166.374 264.19 166.374 264.928V268.997C166.374 269.519 166.406 269.947 166.47 270.281C166.535 270.609 166.628 270.896 166.751 271.142V271.291H164.194C164.071 271.034 163.977 270.711 163.913 270.325C163.854 269.932 163.825 269.539 163.825 269.147ZM164.159 265.499L164.176 266.932H162.761C162.427 266.932 162.137 266.97 161.891 267.046C161.645 267.122 161.443 267.231 161.285 267.371C161.126 267.506 161.009 267.664 160.933 267.846C160.863 268.028 160.828 268.227 160.828 268.444C160.828 268.661 160.877 268.857 160.977 269.033C161.077 269.203 161.22 269.337 161.408 269.437C161.595 269.531 161.815 269.578 162.067 269.578C162.448 269.578 162.779 269.501 163.06 269.349C163.341 269.197 163.558 269.009 163.71 268.786C163.869 268.564 163.951 268.353 163.957 268.154L164.625 269.226C164.531 269.466 164.402 269.715 164.238 269.973C164.08 270.231 163.877 270.474 163.631 270.703C163.385 270.925 163.089 271.11 162.744 271.256C162.398 271.397 161.988 271.467 161.513 271.467C160.91 271.467 160.362 271.347 159.87 271.107C159.383 270.861 158.997 270.524 158.709 270.096C158.428 269.662 158.288 269.17 158.288 268.62C158.288 268.121 158.381 267.679 158.569 267.292C158.756 266.906 159.032 266.58 159.395 266.317C159.764 266.047 160.224 265.845 160.775 265.71C161.326 265.57 161.964 265.499 162.691 265.499H164.159ZM173.458 269.147V264.911C173.458 264.606 173.408 264.345 173.308 264.128C173.208 263.906 173.053 263.733 172.842 263.61C172.637 263.487 172.371 263.425 172.042 263.425C171.761 263.425 171.518 263.475 171.313 263.575C171.108 263.668 170.95 263.806 170.838 263.988C170.727 264.163 170.671 264.371 170.671 264.612H168.14C168.14 264.207 168.234 263.824 168.421 263.46C168.609 263.097 168.881 262.778 169.239 262.502C169.596 262.221 170.021 262.001 170.513 261.843C171.011 261.685 171.568 261.606 172.183 261.606C172.921 261.606 173.578 261.729 174.152 261.975C174.726 262.221 175.177 262.59 175.505 263.082C175.839 263.575 176.006 264.19 176.006 264.928V268.997C176.006 269.519 176.039 269.947 176.103 270.281C176.167 270.609 176.261 270.896 176.384 271.142V271.291H173.827C173.704 271.034 173.61 270.711 173.545 270.325C173.487 269.932 173.458 269.539 173.458 269.147ZM173.792 265.499L173.809 266.932H172.394C172.06 266.932 171.77 266.97 171.524 267.046C171.278 267.122 171.076 267.231 170.917 267.371C170.759 267.506 170.642 267.664 170.566 267.846C170.496 268.028 170.46 268.227 170.46 268.444C170.46 268.661 170.51 268.857 170.61 269.033C170.709 269.203 170.853 269.337 171.041 269.437C171.228 269.531 171.448 269.578 171.7 269.578C172.081 269.578 172.412 269.501 172.693 269.349C172.974 269.197 173.191 269.009 173.343 268.786C173.501 268.564 173.583 268.353 173.589 268.154L174.257 269.226C174.164 269.466 174.035 269.715 173.871 269.973C173.712 270.231 173.51 270.474 173.264 270.703C173.018 270.925 172.722 271.11 172.376 271.256C172.031 271.397 171.621 271.467 171.146 271.467C170.542 271.467 169.995 271.347 169.502 271.107C169.016 270.861 168.629 270.524 168.342 270.096C168.061 269.662 167.92 269.17 167.92 268.62C167.92 268.121 168.014 267.679 168.202 267.292C168.389 266.906 168.665 266.58 169.028 266.317C169.397 266.047 169.857 265.845 170.408 265.71C170.958 265.57 171.597 265.499 172.324 265.499H173.792ZM183.099 268.663C183.099 268.482 183.046 268.318 182.941 268.171C182.835 268.025 182.639 267.89 182.352 267.767C182.071 267.638 181.664 267.521 181.13 267.415C180.65 267.31 180.202 267.178 179.786 267.02C179.375 266.856 179.018 266.66 178.713 266.431C178.415 266.203 178.18 265.933 178.01 265.622C177.84 265.306 177.755 264.946 177.755 264.541C177.755 264.143 177.84 263.768 178.01 263.416C178.186 263.065 178.435 262.754 178.757 262.485C179.085 262.209 179.484 261.995 179.953 261.843C180.427 261.685 180.96 261.606 181.552 261.606C182.378 261.606 183.087 261.738 183.679 262.001C184.277 262.265 184.734 262.628 185.05 263.091C185.373 263.548 185.534 264.07 185.534 264.656H183.002C183.002 264.41 182.95 264.19 182.844 263.996C182.745 263.797 182.586 263.642 182.37 263.531C182.159 263.413 181.883 263.355 181.543 263.355C181.262 263.355 181.019 263.405 180.814 263.504C180.609 263.598 180.451 263.727 180.339 263.891C180.234 264.049 180.181 264.225 180.181 264.418C180.181 264.565 180.21 264.697 180.269 264.814C180.333 264.925 180.436 265.028 180.577 265.121C180.717 265.215 180.899 265.303 181.122 265.385C181.35 265.461 181.631 265.532 181.965 265.596C182.651 265.737 183.263 265.921 183.802 266.15C184.341 266.372 184.769 266.677 185.085 267.064C185.402 267.445 185.56 267.946 185.56 268.567C185.56 268.989 185.466 269.375 185.279 269.727C185.091 270.078 184.822 270.386 184.47 270.65C184.119 270.908 183.697 271.11 183.205 271.256C182.718 271.397 182.17 271.467 181.561 271.467C180.676 271.467 179.926 271.309 179.311 270.993C178.702 270.676 178.239 270.275 177.922 269.788C177.612 269.296 177.457 268.792 177.457 268.277H179.856C179.868 268.622 179.956 268.901 180.12 269.112C180.29 269.323 180.503 269.475 180.761 269.569C181.025 269.662 181.309 269.709 181.614 269.709C181.942 269.709 182.214 269.665 182.431 269.578C182.648 269.484 182.812 269.361 182.923 269.208C183.041 269.05 183.099 268.869 183.099 268.663Z" fill="#94A2B3"/>
<path d="M153.518 232.574C152.79 231.72 151.852 231.412 150.746 231.412C149.01 231.412 147.372 232.364 147.372 234.268C147.372 235.92 148.436 236.536 149.836 236.998C151.6 237.586 152.426 237.796 152.426 239.014C152.426 240.148 151.278 240.736 150.27 240.736C149.416 240.736 148.576 240.358 148.156 239.63L147.148 240.456C147.82 241.45 149.052 241.828 150.2 241.828C151.992 241.828 153.686 240.904 153.686 238.93C153.686 236.984 152.258 236.48 150.718 235.99C149.136 235.486 148.632 235.08 148.632 234.17C148.632 232.994 149.71 232.504 150.746 232.504C151.46 232.504 152.16 232.784 152.552 233.414L153.518 232.574ZM159.015 235.024H157.083V233.162H155.991V235.024H154.563V235.948H155.991V239.546C155.991 240.904 156.243 241.744 157.797 241.744C158.203 241.744 158.693 241.674 159.071 241.506L159.029 240.512C158.735 240.666 158.385 240.736 158.063 240.736C157.097 240.736 157.083 240.064 157.083 239.224V235.948H159.015V235.024ZM160.955 236.578C161.473 236.102 162.201 235.864 162.901 235.864C163.923 235.864 164.525 236.354 164.525 237.306V237.502H164.105C162.495 237.502 159.975 237.628 159.975 239.798C159.975 241.072 161.081 241.744 162.411 241.744C163.405 241.744 164.133 241.268 164.567 240.596H164.595C164.595 240.876 164.595 241.282 164.665 241.576H165.715C165.659 241.24 165.617 240.82 165.617 240.442V237.628C165.617 235.78 164.805 234.856 162.873 234.856C161.921 234.856 160.941 235.178 160.269 235.864L160.955 236.578ZM164.525 238.426V238.846C164.497 239.91 163.853 240.82 162.593 240.82C161.767 240.82 161.151 240.512 161.151 239.686C161.151 238.804 162.047 238.426 163.433 238.426H164.525ZM167.613 241.576H168.705V238.384C168.705 236.886 169.293 235.948 170.623 235.948C170.819 235.948 171.029 235.976 171.211 236.032L171.281 234.926C171.127 234.87 170.973 234.856 170.833 234.856C169.755 234.856 168.943 235.458 168.649 236.102H168.621C168.621 235.738 168.593 235.374 168.593 235.024H167.557C167.557 235.458 167.613 235.976 167.613 236.578V241.576ZM176.119 235.024H174.187V233.162H173.095V235.024H171.667V235.948H173.095V239.546C173.095 240.904 173.347 241.744 174.901 241.744C175.307 241.744 175.797 241.674 176.175 241.506L176.133 240.512C175.839 240.666 175.489 240.736 175.167 240.736C174.201 240.736 174.187 240.064 174.187 239.224V235.948H176.119V235.024ZM183.168 235.024H182.076V238.216C182.076 239.714 181.46 240.736 180.046 240.736C179.024 240.736 178.548 240.05 178.548 238.958V235.024H177.456V239.07C177.456 240.652 178.226 241.744 179.948 241.744C181.026 241.744 181.838 241.142 182.132 240.498H182.16C182.16 240.862 182.188 241.226 182.188 241.576H183.224C183.224 241.142 183.168 240.624 183.168 240.022V235.024ZM185.18 244.768H186.272V240.414H186.3C186.706 241.156 187.644 241.744 188.82 241.744C190.654 241.744 192.096 240.26 192.096 238.3C192.096 236.312 190.71 234.856 188.652 234.856C187.7 234.856 186.902 235.276 186.3 235.976H186.272V235.024H185.18V244.768ZM186.272 238.3C186.272 236.928 187.182 235.864 188.596 235.864C190.01 235.864 190.92 236.928 190.92 238.3C190.92 239.672 190.01 240.736 188.596 240.736C187.182 240.736 186.272 239.672 186.272 238.3ZM197.691 241.576H198.783V238.384C198.783 236.886 199.399 235.864 200.813 235.864C201.835 235.864 202.311 236.55 202.311 237.642V241.576H203.403V237.53C203.403 235.948 202.633 234.856 200.911 234.856C199.833 234.856 199.021 235.458 198.727 236.102H198.699C198.699 235.738 198.671 235.374 198.671 235.024H197.635C197.635 235.458 197.691 235.976 197.691 236.578V241.576ZM206.072 236.578C206.59 236.102 207.318 235.864 208.018 235.864C209.04 235.864 209.642 236.354 209.642 237.306V237.502H209.222C207.612 237.502 205.092 237.628 205.092 239.798C205.092 241.072 206.198 241.744 207.528 241.744C208.522 241.744 209.25 241.268 209.684 240.596H209.712C209.712 240.876 209.712 241.282 209.782 241.576H210.832C210.776 241.24 210.734 240.82 210.734 240.442V237.628C210.734 235.78 209.922 234.856 207.99 234.856C207.038 234.856 206.058 235.178 205.386 235.864L206.072 236.578ZM209.642 238.426V238.846C209.614 239.91 208.97 240.82 207.71 240.82C206.884 240.82 206.268 240.512 206.268 239.686C206.268 238.804 207.164 238.426 208.55 238.426H209.642ZM212.73 241.576H213.822V238.384C213.822 236.886 214.438 235.864 215.852 235.864C216.748 235.864 217.112 236.424 217.112 237.866V241.576H218.204V237.796C218.204 236.62 218.974 235.864 219.898 235.864C221.172 235.864 221.494 236.746 221.494 237.656V241.576H222.586V237.6C222.586 235.906 221.97 234.856 220.094 234.856C219.1 234.856 218.498 235.332 218.022 236.102C217.812 235.654 217.364 234.856 215.95 234.856C214.872 234.856 214.06 235.458 213.766 236.102H213.738C213.738 235.738 213.71 235.374 213.71 235.024H212.674C212.674 235.458 212.73 235.976 212.73 236.578V241.576ZM229.678 239.742C229.16 240.4 228.53 240.736 227.592 240.736C226.402 240.736 225.534 239.77 225.45 238.636H230.742V238.286C230.742 236.116 229.482 234.856 227.634 234.856C225.702 234.856 224.274 236.27 224.274 238.3C224.274 240.204 225.534 241.744 227.592 241.744C228.81 241.744 229.734 241.38 230.504 240.386L229.678 239.742ZM225.45 237.712C225.59 236.606 226.388 235.864 227.592 235.864C228.796 235.864 229.524 236.606 229.566 237.712H225.45Z" fill="black"/>
<path d="M134.956 241.433C133.458 248.772 126.196 253.565 118.857 251.992C111.519 250.495 106.726 243.23 108.299 235.891C109.797 228.552 117.06 223.759 124.398 225.332C127.019 225.856 129.415 227.129 131.287 229.077C134.507 232.297 135.93 236.94 134.956 241.433Z" fill="#2639ED"/>
<path fill-rule="evenodd" clip-rule="evenodd" d="M127.111 234.183C127.591 234.69 127.591 235.512 127.111 236.019L120.962 242.509C120.482 243.016 119.703 243.016 119.223 242.509L116.149 239.264C115.669 238.757 115.669 237.935 116.149 237.428C116.629 236.921 117.408 236.921 117.888 237.428L120.093 239.755L125.371 234.183C125.852 233.676 126.63 233.676 127.111 234.183Z" fill="url(#paint0_linear_573_53780)"/>
<path d="M154.42 359.91C154.42 359.681 154.385 359.476 154.315 359.294C154.25 359.107 154.127 358.937 153.946 358.785C153.764 358.626 153.509 358.471 153.181 358.319C152.853 358.166 152.428 358.008 151.907 357.844C151.327 357.657 150.776 357.446 150.254 357.211C149.739 356.977 149.282 356.705 148.883 356.394C148.491 356.078 148.18 355.711 147.952 355.295C147.729 354.879 147.618 354.396 147.618 353.845C147.618 353.312 147.735 352.829 147.969 352.395C148.204 351.956 148.532 351.581 148.954 351.27C149.375 350.954 149.874 350.71 150.448 350.541C151.028 350.371 151.664 350.286 152.355 350.286C153.298 350.286 154.122 350.456 154.825 350.795C155.528 351.135 156.073 351.601 156.459 352.193C156.852 352.785 157.048 353.461 157.048 354.223H154.429C154.429 353.848 154.35 353.52 154.192 353.239C154.04 352.952 153.805 352.726 153.489 352.562C153.178 352.398 152.786 352.316 152.311 352.316C151.854 352.316 151.473 352.386 151.168 352.527C150.864 352.662 150.635 352.846 150.483 353.081C150.331 353.309 150.254 353.567 150.254 353.854C150.254 354.071 150.307 354.267 150.413 354.443C150.524 354.619 150.688 354.783 150.905 354.935C151.122 355.087 151.388 355.231 151.705 355.366C152.021 355.5 152.387 355.632 152.803 355.761C153.5 355.972 154.113 356.209 154.64 356.473C155.173 356.737 155.619 357.033 155.976 357.361C156.333 357.689 156.603 358.061 156.785 358.477C156.966 358.893 157.057 359.365 157.057 359.892C157.057 360.449 156.949 360.947 156.732 361.386C156.515 361.826 156.202 362.198 155.792 362.502C155.381 362.807 154.892 363.039 154.324 363.197C153.755 363.355 153.12 363.434 152.417 363.434C151.784 363.434 151.16 363.352 150.544 363.188C149.929 363.018 149.37 362.763 148.866 362.423C148.368 362.083 147.969 361.65 147.67 361.123C147.372 360.595 147.222 359.971 147.222 359.25H149.868C149.868 359.649 149.929 359.986 150.052 360.261C150.175 360.537 150.348 360.759 150.571 360.929C150.799 361.099 151.069 361.222 151.379 361.298C151.696 361.374 152.042 361.413 152.417 361.413C152.874 361.413 153.249 361.348 153.542 361.219C153.84 361.09 154.06 360.912 154.201 360.683C154.347 360.455 154.42 360.197 154.42 359.91ZM163.825 361.114V356.877C163.825 356.573 163.775 356.312 163.675 356.095C163.576 355.873 163.42 355.7 163.209 355.577C163.004 355.454 162.738 355.392 162.41 355.392C162.128 355.392 161.885 355.442 161.68 355.541C161.475 355.635 161.317 355.773 161.206 355.955C161.094 356.13 161.039 356.338 161.039 356.579H158.507C158.507 356.174 158.601 355.791 158.789 355.427C158.976 355.064 159.249 354.745 159.606 354.469C159.963 354.188 160.388 353.968 160.88 353.81C161.378 353.652 161.935 353.573 162.55 353.573C163.289 353.573 163.945 353.696 164.519 353.942C165.093 354.188 165.544 354.557 165.873 355.049C166.207 355.541 166.374 356.157 166.374 356.895V360.964C166.374 361.486 166.406 361.914 166.47 362.248C166.535 362.576 166.628 362.863 166.751 363.109V363.258H164.194C164.071 363 163.977 362.678 163.913 362.291C163.854 361.899 163.825 361.506 163.825 361.114ZM164.159 357.466L164.176 358.899H162.761C162.427 358.899 162.137 358.937 161.891 359.013C161.645 359.089 161.443 359.198 161.285 359.338C161.126 359.473 161.009 359.631 160.933 359.813C160.863 359.995 160.828 360.194 160.828 360.411C160.828 360.627 160.877 360.824 160.977 360.999C161.077 361.169 161.22 361.304 161.408 361.404C161.595 361.498 161.815 361.544 162.067 361.544C162.448 361.544 162.779 361.468 163.06 361.316C163.341 361.164 163.558 360.976 163.71 360.753C163.869 360.531 163.951 360.32 163.957 360.121L164.625 361.193C164.531 361.433 164.402 361.682 164.238 361.94C164.08 362.198 163.877 362.441 163.631 362.669C163.385 362.892 163.089 363.077 162.744 363.223C162.398 363.364 161.988 363.434 161.513 363.434C160.91 363.434 160.362 363.314 159.87 363.074C159.383 362.828 158.997 362.491 158.709 362.063C158.428 361.629 158.288 361.137 158.288 360.586C158.288 360.088 158.381 359.646 158.569 359.259C158.756 358.873 159.032 358.547 159.395 358.284C159.764 358.014 160.224 357.812 160.775 357.677C161.326 357.537 161.964 357.466 162.691 357.466H164.159ZM173.458 361.114V356.877C173.458 356.573 173.408 356.312 173.308 356.095C173.208 355.873 173.053 355.7 172.842 355.577C172.637 355.454 172.371 355.392 172.042 355.392C171.761 355.392 171.518 355.442 171.313 355.541C171.108 355.635 170.95 355.773 170.838 355.955C170.727 356.13 170.671 356.338 170.671 356.579H168.14C168.14 356.174 168.234 355.791 168.421 355.427C168.609 355.064 168.881 354.745 169.239 354.469C169.596 354.188 170.021 353.968 170.513 353.81C171.011 353.652 171.568 353.573 172.183 353.573C172.921 353.573 173.578 353.696 174.152 353.942C174.726 354.188 175.177 354.557 175.505 355.049C175.839 355.541 176.006 356.157 176.006 356.895V360.964C176.006 361.486 176.039 361.914 176.103 362.248C176.167 362.576 176.261 362.863 176.384 363.109V363.258H173.827C173.704 363 173.61 362.678 173.545 362.291C173.487 361.899 173.458 361.506 173.458 361.114ZM173.792 357.466L173.809 358.899H172.394C172.06 358.899 171.77 358.937 171.524 359.013C171.278 359.089 171.076 359.198 170.917 359.338C170.759 359.473 170.642 359.631 170.566 359.813C170.496 359.995 170.46 360.194 170.46 360.411C170.46 360.627 170.51 360.824 170.61 360.999C170.709 361.169 170.853 361.304 171.041 361.404C171.228 361.498 171.448 361.544 171.7 361.544C172.081 361.544 172.412 361.468 172.693 361.316C172.974 361.164 173.191 360.976 173.343 360.753C173.501 360.531 173.583 360.32 173.589 360.121L174.257 361.193C174.164 361.433 174.035 361.682 173.871 361.94C173.712 362.198 173.51 362.441 173.264 362.669C173.018 362.892 172.722 363.077 172.376 363.223C172.031 363.364 171.621 363.434 171.146 363.434C170.542 363.434 169.995 363.314 169.502 363.074C169.016 362.828 168.629 362.491 168.342 362.063C168.061 361.629 167.92 361.137 167.92 360.586C167.92 360.088 168.014 359.646 168.202 359.259C168.389 358.873 168.665 358.547 169.028 358.284C169.397 358.014 169.857 357.812 170.408 357.677C170.958 357.537 171.597 357.466 172.324 357.466H173.792ZM183.099 360.63C183.099 360.449 183.046 360.285 182.941 360.138C182.835 359.992 182.639 359.857 182.352 359.734C182.071 359.605 181.664 359.488 181.13 359.382C180.65 359.277 180.202 359.145 179.786 358.987C179.375 358.823 179.018 358.626 178.713 358.398C178.415 358.169 178.18 357.9 178.01 357.589C177.84 357.273 177.755 356.913 177.755 356.508C177.755 356.11 177.84 355.735 178.01 355.383C178.186 355.032 178.435 354.721 178.757 354.452C179.085 354.176 179.484 353.962 179.953 353.81C180.427 353.652 180.96 353.573 181.552 353.573C182.378 353.573 183.087 353.705 183.679 353.968C184.277 354.232 184.734 354.595 185.05 355.058C185.373 355.515 185.534 356.037 185.534 356.623H183.002C183.002 356.376 182.95 356.157 182.844 355.963C182.745 355.764 182.586 355.609 182.37 355.498C182.159 355.38 181.883 355.322 181.543 355.322C181.262 355.322 181.019 355.372 180.814 355.471C180.609 355.565 180.451 355.694 180.339 355.858C180.234 356.016 180.181 356.192 180.181 356.385C180.181 356.532 180.21 356.664 180.269 356.781C180.333 356.892 180.436 356.995 180.577 357.088C180.717 357.182 180.899 357.27 181.122 357.352C181.35 357.428 181.631 357.499 181.965 357.563C182.651 357.704 183.263 357.888 183.802 358.117C184.341 358.339 184.769 358.644 185.085 359.031C185.402 359.412 185.56 359.913 185.56 360.534C185.56 360.956 185.466 361.342 185.279 361.694C185.091 362.045 184.822 362.353 184.47 362.617C184.119 362.874 183.697 363.077 183.205 363.223C182.718 363.364 182.17 363.434 181.561 363.434C180.676 363.434 179.926 363.276 179.311 362.959C178.702 362.643 178.239 362.242 177.922 361.755C177.612 361.263 177.457 360.759 177.457 360.244H179.856C179.868 360.589 179.956 360.868 180.12 361.079C180.29 361.29 180.503 361.442 180.761 361.536C181.025 361.629 181.309 361.676 181.614 361.676C181.942 361.676 182.214 361.632 182.431 361.544C182.648 361.451 182.812 361.328 182.923 361.175C183.041 361.017 183.099 360.835 183.099 360.63Z" fill="#94A2B3"/>
<path d="M153.518 324.541C152.79 323.687 151.852 323.379 150.746 323.379C149.01 323.379 147.372 324.331 147.372 326.235C147.372 327.887 148.436 328.503 149.836 328.965C151.6 329.553 152.426 329.763 152.426 330.981C152.426 332.115 151.278 332.703 150.27 332.703C149.416 332.703 148.576 332.325 148.156 331.597L147.148 332.423C147.82 333.417 149.052 333.795 150.2 333.795C151.992 333.795 153.686 332.871 153.686 330.897C153.686 328.951 152.258 328.447 150.718 327.957C149.136 327.453 148.632 327.047 148.632 326.137C148.632 324.961 149.71 324.471 150.746 324.471C151.46 324.471 152.16 324.751 152.552 325.381L153.518 324.541ZM159.015 326.991H157.083V325.129H155.991V326.991H154.563V327.915H155.991V331.513C155.991 332.871 156.243 333.711 157.797 333.711C158.203 333.711 158.693 333.641 159.071 333.473L159.029 332.479C158.735 332.633 158.385 332.703 158.063 332.703C157.097 332.703 157.083 332.031 157.083 331.191V327.915H159.015V326.991ZM160.955 328.545C161.473 328.069 162.201 327.831 162.901 327.831C163.923 327.831 164.525 328.321 164.525 329.273V329.469H164.105C162.495 329.469 159.975 329.595 159.975 331.765C159.975 333.039 161.081 333.711 162.411 333.711C163.405 333.711 164.133 333.235 164.567 332.563H164.595C164.595 332.843 164.595 333.249 164.665 333.543H165.715C165.659 333.207 165.617 332.787 165.617 332.409V329.595C165.617 327.747 164.805 326.823 162.873 326.823C161.921 326.823 160.941 327.145 160.269 327.831L160.955 328.545ZM164.525 330.393V330.813C164.497 331.877 163.853 332.787 162.593 332.787C161.767 332.787 161.151 332.479 161.151 331.653C161.151 330.771 162.047 330.393 163.433 330.393H164.525ZM167.613 333.543H168.705V330.351C168.705 328.853 169.293 327.915 170.623 327.915C170.819 327.915 171.029 327.943 171.211 327.999L171.281 326.893C171.127 326.837 170.973 326.823 170.833 326.823C169.755 326.823 168.943 327.425 168.649 328.069H168.621C168.621 327.705 168.593 327.341 168.593 326.991H167.557C167.557 327.425 167.613 327.943 167.613 328.545V333.543ZM176.119 326.991H174.187V325.129H173.095V326.991H171.667V327.915H173.095V331.513C173.095 332.871 173.347 333.711 174.901 333.711C175.307 333.711 175.797 333.641 176.175 333.473L176.133 332.479C175.839 332.633 175.489 332.703 175.167 332.703C174.201 332.703 174.187 332.031 174.187 331.191V327.915H176.119V326.991ZM183.168 326.991H182.076V330.183C182.076 331.681 181.46 332.703 180.046 332.703C179.024 332.703 178.548 332.017 178.548 330.925V326.991H177.456V331.037C177.456 332.619 178.226 333.711 179.948 333.711C181.026 333.711 181.838 333.109 182.132 332.465H182.16C182.16 332.829 182.188 333.193 182.188 333.543H183.224C183.224 333.109 183.168 332.591 183.168 331.989V326.991ZM185.18 336.735H186.272V332.381H186.3C186.706 333.123 187.644 333.711 188.82 333.711C190.654 333.711 192.096 332.227 192.096 330.267C192.096 328.279 190.71 326.823 188.652 326.823C187.7 326.823 186.902 327.243 186.3 327.943H186.272V326.991H185.18V336.735ZM186.272 330.267C186.272 328.895 187.182 327.831 188.596 327.831C190.01 327.831 190.92 328.895 190.92 330.267C190.92 331.639 190.01 332.703 188.596 332.703C187.182 332.703 186.272 331.639 186.272 330.267ZM201.275 326.991H199.343V325.129H198.251V326.991H196.823V327.915H198.251V331.513C198.251 332.871 198.503 333.711 200.057 333.711C200.463 333.711 200.953 333.641 201.331 333.473L201.289 332.479C200.995 332.633 200.645 332.703 200.323 332.703C199.357 332.703 199.343 332.031 199.343 331.191V327.915H201.275V326.991ZM208.185 326.991H206.995L205.049 332.129H205.021L202.991 326.991H201.717L204.433 333.585L203.985 334.817C203.747 335.461 203.481 335.895 202.767 335.895C202.459 335.895 202.221 335.867 201.997 335.783L201.857 336.735C202.151 336.875 202.529 336.903 202.837 336.903C204.153 336.903 204.587 336.147 205.021 335.041L208.185 326.991ZM209.311 336.735H210.403V332.381H210.431C210.837 333.123 211.775 333.711 212.951 333.711C214.785 333.711 216.227 332.227 216.227 330.267C216.227 328.279 214.841 326.823 212.783 326.823C211.831 326.823 211.033 327.243 210.431 327.943H210.403V326.991H209.311V336.735ZM210.403 330.267C210.403 328.895 211.313 327.831 212.727 327.831C214.141 327.831 215.051 328.895 215.051 330.267C215.051 331.639 214.141 332.703 212.727 332.703C211.313 332.703 210.403 331.639 210.403 330.267ZM222.951 331.709C222.433 332.367 221.803 332.703 220.865 332.703C219.675 332.703 218.807 331.737 218.723 330.603H224.015V330.253C224.015 328.083 222.755 326.823 220.907 326.823C218.975 326.823 217.547 328.237 217.547 330.267C217.547 332.171 218.807 333.711 220.865 333.711C222.083 333.711 223.007 333.347 223.777 332.353L222.951 331.709ZM218.723 329.679C218.863 328.573 219.661 327.831 220.865 327.831C222.069 327.831 222.797 328.573 222.839 329.679H218.723Z" fill="black"/>
<path d="M134.956 333.4C133.458 340.739 126.196 345.532 118.857 343.959C111.519 342.461 106.726 335.197 108.299 327.858C109.797 320.519 117.06 315.726 124.398 317.299C127.019 317.823 129.415 319.096 131.287 321.044C134.507 324.264 135.93 328.907 134.956 333.4Z" fill="#2639ED"/>
<path fill-rule="evenodd" clip-rule="evenodd" d="M127.111 326.15C127.591 326.657 127.591 327.479 127.111 327.986L120.962 334.476C120.482 334.983 119.703 334.983 119.223 334.476L116.149 331.231C115.669 330.724 115.669 329.902 116.149 329.395C116.629 328.888 117.408 328.888 117.888 329.395L120.093 331.722L125.371 326.15C125.852 325.643 126.63 325.643 127.111 326.15Z" fill="url(#paint1_linear_573_53780)"/>
<path d="M343.421 267.943C343.421 267.714 343.386 267.509 343.315 267.328C343.251 267.14 343.128 266.97 342.946 266.818C342.765 266.66 342.51 266.504 342.182 266.352C341.854 266.2 341.429 266.041 340.907 265.877C340.327 265.69 339.776 265.479 339.255 265.245C338.739 265.01 338.282 264.738 337.884 264.427C337.491 264.111 337.181 263.745 336.952 263.328C336.729 262.912 336.618 262.429 336.618 261.878C336.618 261.345 336.735 260.862 336.97 260.428C337.204 259.989 337.532 259.614 337.954 259.303C338.376 258.987 338.874 258.744 339.448 258.574C340.028 258.404 340.664 258.319 341.355 258.319C342.299 258.319 343.122 258.489 343.825 258.828C344.528 259.168 345.073 259.634 345.46 260.226C345.853 260.818 346.049 261.495 346.049 262.256H343.43C343.43 261.881 343.351 261.553 343.192 261.272C343.04 260.985 342.806 260.759 342.489 260.595C342.179 260.431 341.786 260.349 341.312 260.349C340.854 260.349 340.474 260.419 340.169 260.56C339.864 260.695 339.636 260.879 339.483 261.114C339.331 261.342 339.255 261.6 339.255 261.887C339.255 262.104 339.308 262.3 339.413 262.476C339.524 262.652 339.688 262.816 339.905 262.968C340.122 263.12 340.389 263.264 340.705 263.399C341.021 263.534 341.388 263.665 341.804 263.794C342.501 264.005 343.113 264.243 343.641 264.506C344.174 264.77 344.619 265.066 344.977 265.394C345.334 265.722 345.604 266.094 345.785 266.51C345.967 266.926 346.058 267.398 346.058 267.925C346.058 268.482 345.949 268.98 345.732 269.419C345.516 269.859 345.202 270.231 344.792 270.536C344.382 270.84 343.893 271.072 343.324 271.23C342.756 271.388 342.12 271.467 341.417 271.467C340.784 271.467 340.16 271.385 339.545 271.221C338.93 271.051 338.37 270.796 337.866 270.456C337.368 270.117 336.97 269.683 336.671 269.156C336.372 268.628 336.223 268.004 336.223 267.284H338.868C338.868 267.682 338.93 268.019 339.053 268.294C339.176 268.57 339.349 268.792 339.571 268.962C339.8 269.132 340.069 269.255 340.38 269.331C340.696 269.408 341.042 269.446 341.417 269.446C341.874 269.446 342.249 269.381 342.542 269.252C342.841 269.123 343.061 268.945 343.201 268.716C343.348 268.488 343.421 268.23 343.421 267.943ZM352.825 269.147V264.911C352.825 264.606 352.775 264.345 352.676 264.128C352.576 263.906 352.421 263.733 352.21 263.61C352.005 263.487 351.738 263.425 351.41 263.425C351.129 263.425 350.886 263.475 350.681 263.575C350.476 263.668 350.317 263.806 350.206 263.988C350.095 264.163 350.039 264.371 350.039 264.612H347.508C347.508 264.207 347.602 263.824 347.789 263.46C347.977 263.097 348.249 262.778 348.606 262.502C348.964 262.221 349.389 262.001 349.881 261.843C350.379 261.685 350.936 261.606 351.551 261.606C352.289 261.606 352.945 261.729 353.52 261.975C354.094 262.221 354.545 262.59 354.873 263.082C355.207 263.575 355.374 264.19 355.374 264.928V268.997C355.374 269.519 355.406 269.947 355.471 270.281C355.535 270.609 355.629 270.896 355.752 271.142V271.291H353.194C353.071 271.034 352.978 270.711 352.913 270.325C352.854 269.932 352.825 269.539 352.825 269.147ZM353.159 265.499L353.177 266.932H351.762C351.428 266.932 351.138 266.97 350.892 267.046C350.646 267.122 350.443 267.231 350.285 267.371C350.127 267.506 350.01 267.664 349.934 267.846C349.863 268.028 349.828 268.227 349.828 268.444C349.828 268.661 349.878 268.857 349.978 269.033C350.077 269.203 350.221 269.337 350.408 269.437C350.596 269.531 350.815 269.578 351.067 269.578C351.448 269.578 351.779 269.501 352.061 269.349C352.342 269.197 352.559 269.009 352.711 268.786C352.869 268.564 352.951 268.353 352.957 268.154L353.625 269.226C353.531 269.466 353.402 269.715 353.238 269.973C353.08 270.231 352.878 270.474 352.632 270.703C352.386 270.925 352.09 271.11 351.744 271.256C351.398 271.397 350.988 271.467 350.514 271.467C349.91 271.467 349.362 271.347 348.87 271.107C348.384 270.861 347.997 270.524 347.71 270.096C347.429 269.662 347.288 269.17 347.288 268.62C347.288 268.121 347.382 267.679 347.569 267.292C347.757 266.906 348.032 266.58 348.396 266.317C348.765 266.047 349.225 265.845 349.775 265.71C350.326 265.57 350.965 265.499 351.691 265.499H353.159ZM362.458 269.147V264.911C362.458 264.606 362.408 264.345 362.309 264.128C362.209 263.906 362.054 263.733 361.843 263.61C361.638 263.487 361.371 263.425 361.043 263.425C360.762 263.425 360.519 263.475 360.313 263.575C360.108 263.668 359.95 263.806 359.839 263.988C359.728 264.163 359.672 264.371 359.672 264.612H357.141C357.141 264.207 357.234 263.824 357.422 263.46C357.609 263.097 357.882 262.778 358.239 262.502C358.597 262.221 359.021 262.001 359.514 261.843C360.012 261.685 360.568 261.606 361.184 261.606C361.922 261.606 362.578 261.729 363.152 261.975C363.727 262.221 364.178 262.59 364.506 263.082C364.84 263.575 365.007 264.19 365.007 264.928V268.997C365.007 269.519 365.039 269.947 365.104 270.281C365.168 270.609 365.262 270.896 365.385 271.142V271.291H362.827C362.704 271.034 362.61 270.711 362.546 270.325C362.487 269.932 362.458 269.539 362.458 269.147ZM362.792 265.499L362.81 266.932H361.395C361.061 266.932 360.771 266.97 360.524 267.046C360.278 267.122 360.076 267.231 359.918 267.371C359.76 267.506 359.643 267.664 359.566 267.846C359.496 268.028 359.461 268.227 359.461 268.444C359.461 268.661 359.511 268.857 359.61 269.033C359.71 269.203 359.854 269.337 360.041 269.437C360.229 269.531 360.448 269.578 360.7 269.578C361.081 269.578 361.412 269.501 361.693 269.349C361.975 269.197 362.191 269.009 362.344 268.786C362.502 268.564 362.584 268.353 362.59 268.154L363.258 269.226C363.164 269.466 363.035 269.715 362.871 269.973C362.713 270.231 362.511 270.474 362.265 270.703C362.019 270.925 361.723 271.11 361.377 271.256C361.031 271.397 360.621 271.467 360.146 271.467C359.543 271.467 358.995 271.347 358.503 271.107C358.017 270.861 357.63 270.524 357.343 270.096C357.062 269.662 356.921 269.17 356.921 268.62C356.921 268.121 357.015 267.679 357.202 267.292C357.39 266.906 357.665 266.58 358.028 266.317C358.397 266.047 358.857 265.845 359.408 265.71C359.959 265.57 360.598 265.499 361.324 265.499H362.792ZM372.1 268.663C372.1 268.482 372.047 268.318 371.941 268.171C371.836 268.025 371.64 267.89 371.353 267.767C371.071 267.638 370.664 267.521 370.131 267.415C369.65 267.31 369.202 267.178 368.786 267.02C368.376 266.856 368.019 266.66 367.714 266.431C367.415 266.203 367.181 265.933 367.011 265.622C366.841 265.306 366.756 264.946 366.756 264.541C366.756 264.143 366.841 263.768 367.011 263.416C367.187 263.065 367.436 262.754 367.758 262.485C368.086 262.209 368.484 261.995 368.953 261.843C369.428 261.685 369.961 261.606 370.553 261.606C371.379 261.606 372.088 261.738 372.68 262.001C373.277 262.265 373.734 262.628 374.051 263.091C374.373 263.548 374.534 264.07 374.534 264.656H372.003C372.003 264.41 371.95 264.19 371.845 263.996C371.745 263.797 371.587 263.642 371.37 263.531C371.159 263.413 370.884 263.355 370.544 263.355C370.263 263.355 370.02 263.405 369.814 263.504C369.609 263.598 369.451 263.727 369.34 263.891C369.234 264.049 369.182 264.225 369.182 264.418C369.182 264.565 369.211 264.697 369.27 264.814C369.334 264.925 369.437 265.028 369.577 265.121C369.718 265.215 369.899 265.303 370.122 265.385C370.351 265.461 370.632 265.532 370.966 265.596C371.651 265.737 372.264 265.921 372.803 266.15C373.342 266.372 373.77 266.677 374.086 267.064C374.402 267.445 374.561 267.946 374.561 268.567C374.561 268.989 374.467 269.375 374.279 269.727C374.092 270.078 373.822 270.386 373.471 270.65C373.119 270.908 372.697 271.11 372.205 271.256C371.719 271.397 371.171 271.467 370.562 271.467C369.677 271.467 368.927 271.309 368.312 270.993C367.702 270.676 367.239 270.275 366.923 269.788C366.612 269.296 366.457 268.792 366.457 268.277H368.856C368.868 268.622 368.956 268.901 369.12 269.112C369.29 269.323 369.504 269.475 369.762 269.569C370.025 269.662 370.31 269.709 370.614 269.709C370.942 269.709 371.215 269.665 371.432 269.578C371.648 269.484 371.812 269.361 371.924 269.208C372.041 269.05 372.1 268.869 372.1 268.663Z" fill="#94A2B3"/>
<path d="M335.7 241.576H337.03L338.052 239.14H343.008L344.016 241.576H345.388L341.174 231.664H340.068L335.7 241.576ZM342.56 238.048H338.514L340.572 233.176H340.6L342.56 238.048ZM345.782 240.526C346.426 241.45 347.224 241.744 348.33 241.744C349.632 241.744 350.948 241.17 350.948 239.686C350.948 238.37 349.968 237.95 348.806 237.726C347.938 237.558 347.154 237.32 347.154 236.774C347.154 236.158 347.84 235.864 348.442 235.864C349.086 235.864 349.548 236.186 349.828 236.648L350.738 236.046C350.29 235.206 349.436 234.856 348.512 234.856C347.294 234.856 346.062 235.514 346.062 236.788C346.062 238.146 347.126 238.412 348.372 238.692C349.072 238.846 349.772 239.028 349.772 239.728C349.772 240.442 349.016 240.736 348.33 240.736C347.56 240.736 347.084 240.386 346.65 239.854L345.782 240.526ZM352.471 241.576H353.563V238.132L356.811 241.576H358.421L354.935 238.006L358.099 235.024H356.545L353.563 237.908V230.992H352.471V241.576ZM359.569 241.576H360.661V235.024H359.569V241.576ZM359.317 232.462C359.317 232.924 359.653 233.26 360.115 233.26C360.577 233.26 360.913 232.924 360.913 232.462C360.913 232.028 360.563 231.664 360.115 231.664C359.667 231.664 359.317 232.028 359.317 232.462ZM362.834 241.576H363.926V238.384C363.926 236.886 364.542 235.864 365.956 235.864C366.978 235.864 367.454 236.55 367.454 237.642V241.576H368.546V237.53C368.546 235.948 367.776 234.856 366.054 234.856C364.976 234.856 364.164 235.458 363.87 236.102H363.842C363.842 235.738 363.814 235.374 363.814 235.024H362.778C362.778 235.458 362.834 235.976 362.834 236.578V241.576ZM377.151 235.024H376.059V236.144H376.031C375.597 235.276 374.603 234.856 373.721 234.856C371.635 234.856 370.235 236.158 370.235 238.3C370.235 240.232 371.663 241.66 373.721 241.66C374.589 241.66 375.513 241.282 376.031 240.442H376.059V241.282C376.059 242.668 375.541 243.928 373.581 243.928C372.573 243.928 371.831 243.536 371.145 242.794L370.361 243.69C371.285 244.6 372.307 244.936 373.581 244.936C375.877 244.936 377.151 243.648 377.151 241.282V235.024ZM371.411 238.3C371.411 236.928 372.349 235.864 373.721 235.864C375.107 235.864 376.059 236.858 376.059 238.272C376.059 239.532 375.219 240.652 373.721 240.652C372.447 240.652 371.411 239.63 371.411 238.3ZM383.264 241.576H384.44V237.124H386.428C387.828 237.124 389.676 236.55 389.676 234.38C389.676 232.308 388.024 231.664 386.204 231.664H383.264V241.576ZM384.44 232.756H386.428C387.604 232.756 388.416 233.288 388.416 234.394C388.416 235.5 387.604 236.032 386.428 236.032H384.44V232.756ZM391.367 241.576H392.459V238.384C392.459 236.886 393.047 235.948 394.377 235.948C394.573 235.948 394.783 235.976 394.965 236.032L395.035 234.926C394.881 234.87 394.727 234.856 394.587 234.856C393.509 234.856 392.697 235.458 392.403 236.102H392.375C392.375 235.738 392.347 235.374 392.347 235.024H391.311C391.311 235.458 391.367 235.976 391.367 236.578V241.576ZM396.387 241.576H397.479V235.024H396.387V241.576ZM396.135 232.462C396.135 232.924 396.471 233.26 396.933 233.26C397.395 233.26 397.731 232.924 397.731 232.462C397.731 232.028 397.381 231.664 396.933 231.664C396.485 231.664 396.135 232.028 396.135 232.462ZM405.182 235.892C404.524 235.178 403.628 234.856 402.662 234.856C400.646 234.856 399.274 236.312 399.274 238.3C399.274 240.316 400.632 241.744 402.662 241.744C403.614 241.744 404.51 241.422 405.14 240.694L404.328 239.924C403.922 240.484 403.376 240.736 402.662 240.736C401.332 240.736 400.45 239.644 400.45 238.3C400.45 236.956 401.192 235.864 402.662 235.864C403.32 235.864 403.852 236.102 404.314 236.662L405.182 235.892ZM411.432 239.742C410.914 240.4 410.284 240.736 409.346 240.736C408.156 240.736 407.288 239.77 407.204 238.636H412.496V238.286C412.496 236.116 411.236 234.856 409.388 234.856C407.456 234.856 406.028 236.27 406.028 238.3C406.028 240.204 407.288 241.744 409.346 241.744C410.564 241.744 411.488 241.38 412.258 240.386L411.432 239.742ZM407.204 237.712C407.344 236.606 408.142 235.864 409.346 235.864C410.55 235.864 411.278 236.606 411.32 237.712H407.204Z" fill="black"/>
<path d="M323.956 241.433C322.458 248.772 315.196 253.565 307.857 251.992C300.519 250.495 295.726 243.23 297.299 235.891C298.797 228.552 306.06 223.759 313.398 225.332C316.019 225.856 318.415 227.129 320.287 229.077C323.507 232.297 324.93 236.94 323.956 241.433Z" fill="#2639ED"/>
<path fill-rule="evenodd" clip-rule="evenodd" d="M316.111 234.183C316.591 234.69 316.591 235.512 316.111 236.019L309.962 242.509C309.482 243.016 308.703 243.016 308.223 242.509L305.149 239.264C304.669 238.757 304.669 237.935 305.149 237.428C305.629 236.921 306.408 236.921 306.888 237.428L309.093 239.755L314.371 234.183C314.852 233.676 315.63 233.676 316.111 234.183Z" fill="url(#paint2_linear_573_53780)"/>
<path d="M341.52 346.038H340.332V347.298C338.208 347.55 336.228 348.918 336.228 351.186C336.228 353.004 337.2 353.976 339.018 354.552L340.332 354.948V357.99C339.36 357.918 338.424 357.648 337.794 356.874L335.886 359.016C337.074 360.096 338.748 360.474 340.332 360.474V361.734H341.52V360.474C343.878 360.24 345.858 358.926 345.858 356.406C345.858 354.732 344.832 353.616 343.248 353.148L341.52 352.644V349.782C342.294 349.818 343.068 350.034 343.644 350.538L345.372 348.432C344.328 347.604 342.816 347.298 341.52 347.298V346.038ZM340.332 352.356C340.026 352.248 339.036 352.14 339.036 351.06C339.036 350.304 339.666 349.98 340.332 349.836V352.356ZM341.52 355.254L341.862 355.38C342.492 355.614 343.05 355.848 343.05 356.622C343.05 357.45 342.258 357.81 341.52 357.954V355.254ZM352.477 360.258H361.369V357.882H355.717L359.587 354.552C360.559 353.706 361.261 352.77 361.261 351.132C361.261 348.576 359.461 347.298 357.139 347.298C354.637 347.298 352.801 348.576 352.639 351.204L355.339 351.402C355.411 350.484 356.005 349.782 356.995 349.782C357.823 349.782 358.561 350.304 358.561 351.168C358.561 351.942 357.931 352.482 357.427 352.95L352.477 357.396V360.258ZM366.135 354.876H366.765C367.971 354.876 369.285 354.912 369.285 356.352C369.285 357.306 368.727 357.99 367.557 357.99C366.405 357.99 365.847 357.414 365.667 356.514L362.823 357.18C363.345 359.466 365.127 360.474 367.395 360.474C369.897 360.474 371.985 359.214 371.985 356.658C371.985 355.182 371.121 353.886 369.591 353.688V353.634C370.995 353.346 371.769 352.248 371.769 350.844C371.769 348.396 369.735 347.298 367.467 347.298C365.307 347.298 363.489 348.144 362.931 350.358L365.901 350.97C366.063 350.304 366.639 349.782 367.485 349.782C368.367 349.782 369.069 350.34 369.069 351.114C369.069 352.32 368.007 352.536 367.017 352.536H366.135V354.876ZM373.781 360.258H382.673V357.882H377.021L380.891 354.552C381.863 353.706 382.565 352.77 382.565 351.132C382.565 348.576 380.765 347.298 378.443 347.298C375.941 347.298 374.105 348.576 373.943 351.204L376.643 351.402C376.715 350.484 377.309 349.782 378.299 349.782C379.127 349.782 379.865 350.304 379.865 351.168C379.865 351.942 379.235 352.482 378.731 352.95L373.781 357.396V360.258ZM384.56 358.71C384.56 359.628 385.298 360.366 386.216 360.366C387.134 360.366 387.872 359.628 387.872 358.71C387.872 357.792 387.134 357.054 386.216 357.054C385.298 357.054 384.56 357.792 384.56 358.71ZM394.872 360.258H397.464V357.702H399.102V355.434H397.464V347.514H394.512L389.31 355.434V357.702H394.872V360.258ZM394.872 355.434H392.01L394.836 351.042H394.872V355.434ZM400.412 360.258H409.304V357.882H403.652L407.522 354.552C408.494 353.706 409.196 352.77 409.196 351.132C409.196 348.576 407.396 347.298 405.074 347.298C402.572 347.298 400.736 348.576 400.574 351.204L403.274 351.402C403.346 350.484 403.94 349.782 404.93 349.782C405.758 349.782 406.496 350.304 406.496 351.168C406.496 351.942 405.866 352.482 405.362 352.95L400.412 357.396V360.258ZM416.805 360.258H419.613V350.484H419.649L422.871 360.258H425.013L428.361 350.484H428.397V360.258H431.205V347.514H426.975L424.023 355.83H423.987L421.053 347.514H416.805V360.258ZM449.875 347.514H447.067V355.236C447.067 356.802 445.987 357.99 444.511 357.99C443.017 357.99 441.937 356.802 441.937 355.236V347.514H439.129V355.344C439.129 358.35 440.965 360.582 444.511 360.582C448.039 360.582 449.875 358.35 449.875 355.344V347.514ZM460.697 348.522C459.617 347.568 458.231 347.19 456.791 347.19C454.289 347.19 451.931 348.612 451.931 351.33C451.931 355.578 457.907 354.318 457.907 356.658C457.907 357.558 456.881 357.99 455.963 357.99C455.027 357.99 454.091 357.54 453.515 356.784L451.517 358.98C452.723 360.096 454.163 360.582 455.801 360.582C458.429 360.582 460.715 359.232 460.715 356.388C460.715 351.924 454.847 353.418 454.847 351.096C454.847 350.142 455.945 349.782 456.737 349.782C457.421 349.782 458.321 350.052 458.771 350.628L460.697 348.522ZM462.807 360.258H467.397C471.195 360.258 474.561 358.044 474.561 353.922C474.561 349.26 471.123 347.514 467.019 347.514H462.807V360.258ZM465.615 350.106H467.271C469.647 350.106 471.645 351.276 471.645 353.778C471.645 356.676 469.683 357.666 467.073 357.666H465.615V350.106Z" fill="#94A2B3"/>
<path d="M335.7 333.543H337.03L338.052 331.107H343.008L344.016 333.543H345.388L341.174 323.631H340.068L335.7 333.543ZM342.56 330.015H338.514L340.572 325.143H340.6L342.56 330.015ZM346.51 333.543H347.602V330.351C347.602 328.853 348.218 327.831 349.632 327.831C350.654 327.831 351.13 328.517 351.13 329.609V333.543H352.222V329.497C352.222 327.915 351.452 326.823 349.73 326.823C348.652 326.823 347.84 327.425 347.546 328.069H347.518C347.518 327.705 347.49 327.341 347.49 326.991H346.454C346.454 327.425 346.51 327.943 346.51 328.545V333.543ZM354.289 333.543H355.381V330.351C355.381 328.853 355.997 327.831 357.411 327.831C358.433 327.831 358.909 328.517 358.909 329.609V333.543H360.001V329.497C360.001 327.915 359.231 326.823 357.509 326.823C356.431 326.823 355.619 327.425 355.325 328.069H355.297C355.297 327.705 355.269 327.341 355.269 326.991H354.233C354.233 327.425 354.289 327.943 354.289 328.545V333.543ZM367.78 326.991H366.688V330.183C366.688 331.681 366.072 332.703 364.658 332.703C363.636 332.703 363.16 332.017 363.16 330.925V326.991H362.068V331.037C362.068 332.619 362.838 333.711 364.56 333.711C365.638 333.711 366.45 333.109 366.744 332.465H366.772C366.772 332.829 366.8 333.193 366.8 333.543H367.836C367.836 333.109 367.78 332.591 367.78 331.989V326.991ZM370.45 328.545C370.968 328.069 371.696 327.831 372.396 327.831C373.418 327.831 374.02 328.321 374.02 329.273V329.469H373.6C371.99 329.469 369.47 329.595 369.47 331.765C369.47 333.039 370.576 333.711 371.906 333.711C372.9 333.711 373.628 333.235 374.062 332.563H374.09C374.09 332.843 374.09 333.249 374.16 333.543H375.21C375.154 333.207 375.112 332.787 375.112 332.409V329.595C375.112 327.747 374.3 326.823 372.368 326.823C371.416 326.823 370.436 327.145 369.764 327.831L370.45 328.545ZM374.02 330.393V330.813C373.992 331.877 373.348 332.787 372.088 332.787C371.262 332.787 370.646 332.479 370.646 331.653C370.646 330.771 371.542 330.393 372.928 330.393H374.02ZM377.205 333.543H378.297V322.959H377.205V333.543ZM384.367 333.543H385.459V330.351C385.459 328.853 386.047 327.915 387.377 327.915C387.573 327.915 387.783 327.943 387.965 327.999L388.035 326.893C387.881 326.837 387.727 326.823 387.587 326.823C386.509 326.823 385.697 327.425 385.403 328.069H385.375C385.375 327.705 385.347 327.341 385.347 326.991H384.311C384.311 327.425 384.367 327.943 384.367 328.545V333.543ZM394.069 331.709C393.551 332.367 392.921 332.703 391.983 332.703C390.793 332.703 389.925 331.737 389.841 330.603H395.133V330.253C395.133 328.083 393.873 326.823 392.025 326.823C390.093 326.823 388.665 328.237 388.665 330.267C388.665 332.171 389.925 333.711 391.983 333.711C393.201 333.711 394.125 333.347 394.895 332.353L394.069 331.709ZM389.841 329.679C389.981 328.573 390.779 327.831 391.983 327.831C393.187 327.831 393.915 328.573 393.957 329.679H389.841ZM402.394 326.991H401.218L399.272 332.129H399.244L397.2 326.991H395.926L398.6 333.543H399.804L402.394 326.991ZM408.602 331.709C408.084 332.367 407.454 332.703 406.516 332.703C405.326 332.703 404.458 331.737 404.374 330.603H409.666V330.253C409.666 328.083 408.406 326.823 406.558 326.823C404.626 326.823 403.198 328.237 403.198 330.267C403.198 332.171 404.458 333.711 406.516 333.711C407.734 333.711 408.658 333.347 409.428 332.353L408.602 331.709ZM404.374 329.679C404.514 328.573 405.312 327.831 406.516 327.831C407.72 327.831 408.448 328.573 408.49 329.679H404.374ZM411.355 333.543H412.447V330.351C412.447 328.853 413.063 327.831 414.477 327.831C415.499 327.831 415.975 328.517 415.975 329.609V333.543H417.067V329.497C417.067 327.915 416.297 326.823 414.575 326.823C413.497 326.823 412.685 327.425 412.391 328.069H412.363C412.363 327.705 412.335 327.341 412.335 326.991H411.299C411.299 327.425 411.355 327.943 411.355 328.545V333.543ZM424.847 326.991H423.755V330.183C423.755 331.681 423.139 332.703 421.725 332.703C420.703 332.703 420.227 332.017 420.227 330.925V326.991H419.135V331.037C419.135 332.619 419.905 333.711 421.627 333.711C422.705 333.711 423.517 333.109 423.811 332.465H423.839C423.839 332.829 423.867 333.193 423.867 333.543H424.903C424.903 333.109 424.847 332.591 424.847 331.989V326.991ZM431.94 331.709C431.422 332.367 430.792 332.703 429.854 332.703C428.664 332.703 427.796 331.737 427.712 330.603H433.004V330.253C433.004 328.083 431.744 326.823 429.896 326.823C427.964 326.823 426.536 328.237 426.536 330.267C426.536 332.171 427.796 333.711 429.854 333.711C431.072 333.711 431.996 333.347 432.766 332.353L431.94 331.709ZM427.712 329.679C427.852 328.573 428.65 327.831 429.854 327.831C431.058 327.831 431.786 328.573 431.828 329.679H427.712Z" fill="black"/>
<path d="M323.956 333.4C322.458 340.739 315.196 345.532 307.857 343.959C300.519 342.461 295.726 335.197 297.299 327.858C298.797 320.519 306.06 315.726 313.398 317.299C316.019 317.823 318.415 319.096 320.287 321.044C323.507 324.264 324.93 328.907 323.956 333.4Z" fill="#2639ED"/>
<path fill-rule="evenodd" clip-rule="evenodd" d="M316.111 326.15C316.591 326.657 316.591 327.479 316.111 327.986L309.962 334.476C309.482 334.983 308.703 334.983 308.223 334.476L305.149 331.231C304.669 330.724 304.669 329.902 305.149 329.395C305.629 328.888 306.408 328.888 306.888 329.395L309.093 331.722L314.371 326.15C314.852 325.643 315.63 325.643 316.111 326.15Z" fill="url(#paint3_linear_573_53780)"/>
<g filter="url(#filter1_d_573_53780)">
<rect width="406.373" height="101.934" rx="10" transform="matrix(0.999985 -0.00549281 -0.00539025 0.999985 280.549 71.8849)" fill="white"/>
</g>
<g filter="url(#filter2_d_573_53780)">
<circle r="66.0801" transform="matrix(0.999985 -0.00549281 -0.00539025 0.999985 371.872 122.442)" fill="white"/>
</g>
<path opacity="0.7" d="M419.249 122.087C419.1 149.786 396.944 172.36 369.764 172.51C342.583 172.659 320.669 150.326 320.819 122.628C320.968 94.9301 343.123 72.3553 370.304 72.206C397.485 72.0567 419.399 94.3894 419.249 122.087ZM330.662 122.574C330.542 144.733 348.073 162.599 369.818 162.479C391.562 162.36 409.287 144.3 409.406 122.142C409.526 99.9831 391.995 82.1169 370.25 82.2364C348.505 82.3558 330.781 100.416 330.662 122.574Z" fill="#EFEFFF"/>
<path d="M370.277 77.2212C370.292 74.4514 372.556 72.1667 375.309 72.4385C385.473 73.4422 395.091 77.6572 402.783 84.5596C411.73 92.5865 417.458 103.696 418.895 115.804C420.332 127.912 417.378 140.186 410.587 150.324C404.754 159.032 396.433 165.65 386.835 169.309C384.224 170.304 381.469 168.668 380.803 165.972C380.146 163.31 381.779 160.622 384.334 159.58C391.65 156.593 397.985 151.436 402.476 144.731C407.909 136.62 410.272 126.801 409.123 117.115C407.973 107.428 403.39 98.5407 396.233 92.1192C390.331 86.8232 383.012 83.5048 375.25 82.5338C372.505 82.1905 370.262 79.991 370.277 77.2212Z" fill="#00B929"/>
<path d="M352.02 129.17L361.9 129.115L361.914 126.475L355.634 126.51L359.954 122.786C361.039 121.84 361.824 120.796 361.834 118.976C361.849 116.136 359.857 114.727 357.277 114.741C354.497 114.757 352.45 116.188 352.254 119.109L355.253 119.312C355.338 118.292 356.002 117.508 357.102 117.502C358.022 117.497 358.839 118.073 358.834 119.033C358.829 119.893 358.126 120.497 357.563 121.02L352.037 125.99L352.02 129.17ZM363.574 122.027C363.555 125.386 364.594 129.341 368.794 129.318C372.994 129.294 374.075 125.329 374.093 121.969C374.112 118.609 373.073 114.655 368.873 114.678C364.673 114.701 363.592 118.667 363.574 122.027ZM366.574 122.01C366.582 120.53 366.698 117.45 368.858 117.438C371.018 117.426 371.101 120.505 371.093 121.985C371.086 123.465 370.969 126.546 368.809 126.558C366.649 126.569 366.566 123.49 366.574 122.01ZM384.891 125.249C384.879 127.449 386.63 129.22 388.81 129.208C390.99 129.196 392.759 127.406 392.771 125.206C392.783 123.006 391.032 121.256 388.852 121.268C386.673 121.28 384.903 123.049 384.891 125.249ZM390.731 125.217C390.725 126.297 389.881 127.162 388.821 127.168C387.761 127.173 386.925 126.318 386.931 125.238C386.937 124.178 387.782 123.313 388.841 123.308C389.901 123.302 390.737 124.157 390.731 125.217ZM374.867 118.605C374.856 120.805 376.606 122.555 378.786 122.543C380.966 122.531 382.735 120.761 382.747 118.561C382.759 116.361 381.009 114.611 378.829 114.623C376.649 114.635 374.879 116.405 374.867 118.605ZM380.707 118.573C380.702 119.633 379.857 120.497 378.797 120.503C377.737 120.509 376.902 119.653 376.907 118.593C376.913 117.533 377.758 116.669 378.818 116.663C379.878 116.657 380.713 117.513 380.707 118.573ZM378.912 128.802L380.428 129.654L388.766 115.108L387.091 114.178L378.912 128.802Z" fill="#00B929"/>
<path d="M636.241 121.428L642.168 121.395L642.174 120.381L637.481 120.407L637.481 120.381L640.329 117.701C641.257 116.825 642.133 116.001 642.14 114.532C642.149 112.894 640.867 112.043 639.346 112.051C637.864 112.06 636.703 112.859 636.448 114.368L637.63 114.466C637.804 113.581 638.457 112.992 639.38 112.987C640.303 112.982 641.054 113.576 641.048 114.538C641.044 115.435 640.612 115.931 639.736 116.781L636.247 120.18L636.241 121.428ZM643.333 116.787C643.322 118.88 643.892 121.542 646.427 121.528C648.962 121.514 649.562 118.846 649.573 116.753C649.584 114.66 649.013 111.998 646.479 112.012C643.944 112.026 643.344 114.694 643.333 116.787ZM644.425 116.781C644.432 115.429 644.653 112.958 646.473 112.948C648.293 112.938 648.488 115.407 648.481 116.759C648.474 118.111 648.252 120.582 646.432 120.592C644.612 120.602 644.418 118.133 644.425 116.781ZM650.57 114.265C650.563 115.539 651.559 116.534 652.833 116.527C654.106 116.52 655.113 115.514 655.12 114.24C655.127 112.966 654.131 111.97 652.857 111.977C651.583 111.984 650.577 112.991 650.57 114.265ZM651.506 114.26C651.51 113.532 652.137 112.917 652.852 112.913C653.567 112.909 654.188 113.517 654.184 114.245C654.18 114.973 653.553 115.587 652.838 115.591C652.123 115.595 651.502 114.987 651.506 114.26ZM655.834 119.202C655.827 120.475 656.823 121.471 658.097 121.464C659.371 121.457 660.377 120.45 660.384 119.177C660.391 117.903 659.395 116.907 658.121 116.914C656.847 116.921 655.841 117.928 655.834 119.202ZM656.77 119.196C656.774 118.468 657.401 117.854 658.116 117.85C658.831 117.846 659.452 118.454 659.448 119.182C659.444 119.91 658.817 120.524 658.102 120.528C657.387 120.532 656.766 119.924 656.77 119.196ZM652.248 121.34L652.96 121.752L658.784 112.101L658.071 111.689L652.248 121.34Z" fill="#00B929"/>
<path d="M459.839 124.118L462.179 124.105L462.203 119.575L466.226 113.463L463.451 113.478L461.045 117.467L458.816 113.504L455.906 113.52L459.864 119.588L459.839 124.118ZM464.75 120.446C464.738 122.771 466.53 124.261 468.78 124.249C471.03 124.236 472.838 122.727 472.85 120.402C472.863 118.077 471.071 116.586 468.821 116.599C466.571 116.611 464.763 118.121 464.75 120.446ZM467 120.434C467.006 119.339 467.685 118.585 468.81 118.579C469.935 118.573 470.606 119.319 470.6 120.414C470.594 121.509 469.915 122.263 468.79 122.269C467.665 122.275 466.994 121.529 467 120.434ZM481.215 116.711L478.965 116.723L478.945 120.353C478.94 121.298 478.755 122.214 477.585 122.22C476.43 122.227 476.421 121.147 476.426 120.307L476.445 116.737L474.195 116.749L474.173 120.769C474.163 122.719 474.575 124.217 476.855 124.204C477.95 124.198 478.688 123.594 478.991 123.023L479.021 123.023L479.016 124.013L481.176 124.001L481.215 116.711ZM482.769 123.992L485.019 123.98L485.035 120.935C485.043 119.48 485.258 118.488 486.968 118.479C487.298 118.477 487.613 118.536 487.928 118.624L487.939 116.569C487.729 116.51 487.444 116.497 487.189 116.498C486.199 116.503 485.567 116.972 485.082 117.859L485.052 117.86L485.058 116.69L482.808 116.702L482.769 123.992ZM493.691 123.932L500.366 123.895L500.377 121.735L496.042 121.759L496.088 113.299L493.748 113.312L493.691 123.932ZM501.402 123.89L503.652 123.877L503.691 116.587L501.441 116.6L501.402 123.89ZM501.274 114.306C501.27 115.026 501.852 115.607 502.572 115.604C503.292 115.6 503.88 115.011 503.884 114.291C503.888 113.571 503.306 112.99 502.586 112.994C501.866 112.997 501.278 113.586 501.274 114.306ZM510.809 117.328C510.137 116.612 509.074 116.378 508.114 116.383C506.584 116.391 505.05 117.15 505.041 118.86C505.026 121.635 508.826 120.624 508.82 121.794C508.818 122.184 508.307 122.322 507.797 122.325C507.122 122.328 506.628 122.046 506.211 121.538L504.838 123.061C505.554 123.792 506.678 124.041 507.698 124.035C509.258 124.026 511.06 123.477 511.07 121.617C511.085 118.842 507.286 119.777 507.291 118.697C507.294 118.262 507.745 118.095 508.12 118.093C508.66 118.09 509.093 118.298 509.421 118.701L510.809 117.328ZM517.216 116.513L515.236 116.524L515.248 114.364L512.998 114.376L512.986 116.536L511.546 116.544L511.536 118.344L512.976 118.336L512.958 121.801C512.949 123.391 514.101 124 515.601 123.992C516.126 123.989 516.681 123.941 517.177 123.758L517.187 121.883C516.991 122.064 516.511 122.097 516.271 122.098C515.296 122.103 515.209 121.534 515.213 120.754L515.226 118.324L517.206 118.313L517.216 116.513ZM518.35 123.796L520.6 123.784L520.639 116.494L518.389 116.507L518.35 123.796ZM518.222 114.213C518.218 114.933 518.8 115.514 519.52 115.51C520.24 115.506 520.828 114.918 520.832 114.198C520.836 113.478 520.254 112.896 519.534 112.9C518.814 112.904 518.226 113.493 518.222 114.213ZM522.217 123.775L524.467 123.763L524.486 120.133C524.491 119.188 524.676 118.272 525.846 118.266C527.001 118.259 527.01 119.339 527.006 120.179L526.987 123.749L529.236 123.737L529.258 119.717C529.269 117.767 528.857 116.269 526.577 116.282C525.482 116.288 524.744 116.892 524.441 117.463L524.411 117.463L524.416 116.473L522.256 116.485L522.217 123.775ZM538.519 116.396L536.449 116.407L536.444 117.367L536.414 117.368C536.072 116.844 535.205 116.234 533.93 116.241C531.86 116.253 530.59 118.119 530.58 120.054C530.568 122.259 531.984 123.812 534.144 123.8C534.819 123.796 535.691 123.536 536.204 122.828L536.234 122.828L536.231 123.533C536.225 124.568 535.576 125.322 534.211 125.329C533.296 125.334 532.533 124.979 531.846 124.397L530.591 126.264C531.637 127.098 532.955 127.316 534.245 127.309C537.065 127.294 538.468 125.816 538.483 123.071L538.519 116.396ZM532.83 120.027C532.835 119.082 533.619 118.223 534.639 118.217C535.659 118.212 536.435 119.062 536.43 120.007C536.424 120.952 535.64 121.812 534.62 121.817C533.6 121.823 532.825 120.972 532.83 120.027Z" fill="#94A2B3"/>
<defs>
<filter id="filter0_d_573_53780" x="0" y="76" width="602" height="460" filterUnits="userSpaceOnUse" color-interpolation-filters="sRGB">
<feFlood flood-opacity="0" result="BackgroundImageFix"/>
<feColorMatrix in="SourceAlpha" type="matrix" values="0 0 0 0 0 0 0 0 0 0 0 0 0 0 0 0 0 0 127 0" result="hardAlpha"/>
<feOffset dy="20"/>
<feGaussianBlur stdDeviation="30"/>
<feComposite in2="hardAlpha" operator="out"/>
<feColorMatrix type="matrix" values="0 0 0 0 0.00784314 0 0 0 0 0.513726 0 0 0 0 0.913725 0 0 0 0.1 0"/>
<feBlend mode="normal" in2="BackgroundImageFix" result="effect1_dropShadow_573_53780"/>
<feBlend mode="normal" in="SourceGraphic" in2="effect1_dropShadow_573_53780" result="shape"/>
</filter>
<filter id="filter1_d_573_53780" x="220.054" y="13.7075" width="526.809" height="224.055" filterUnits="userSpaceOnUse" color-interpolation-filters="sRGB">
<feFlood flood-opacity="0" result="BackgroundImageFix"/>
<feColorMatrix in="SourceAlpha" type="matrix" values="0 0 0 0 0 0 0 0 0 0 0 0 0 0 0 0 0 0 127 0" result="hardAlpha"/>
<feOffset dy="4"/>
<feGaussianBlur stdDeviation="30"/>
<feComposite in2="hardAlpha" operator="out"/>
<feColorMatrix type="matrix" values="0 0 0 0 0 0 0 0 0 0 0 0 0 0 0 0 0 0 0.05 0"/>
<feBlend mode="normal" in2="BackgroundImageFix" result="effect1_dropShadow_573_53780"/>
<feBlend mode="normal" in="SourceGraphic" in2="effect1_dropShadow_573_53780" result="shape"/>
</filter>
<filter id="filter2_d_573_53780" x="245.792" y="0.361938" width="252.16" height="252.16" filterUnits="userSpaceOnUse" color-interpolation-filters="sRGB">
<feFlood flood-opacity="0" result="BackgroundImageFix"/>
<feColorMatrix in="SourceAlpha" type="matrix" values="0 0 0 0 0 0 0 0 0 0 0 0 0 0 0 0 0 0 127 0" result="hardAlpha"/>
<feOffset dy="4"/>
<feGaussianBlur stdDeviation="30"/>
<feComposite in2="hardAlpha" operator="out"/>
<feColorMatrix type="matrix" values="0 0 0 0 0 0 0 0 0 0.615686 0 0 0 0 0.866667 0 0 0 0.05 0"/>
<feBlend mode="normal" in2="BackgroundImageFix" result="effect1_dropShadow_573_53780"/>
<feBlend mode="normal" in="SourceGraphic" in2="effect1_dropShadow_573_53780" result="shape"/>
</filter>
<linearGradient id="paint0_linear_573_53780" x1="124.829" y1="240.953" x2="117.345" y2="233.654" gradientUnits="userSpaceOnUse">
<stop offset="0.0113208" stop-color="white"/>
<stop offset="1" stop-color="white"/>
</linearGradient>
<linearGradient id="paint1_linear_573_53780" x1="124.829" y1="332.92" x2="117.345" y2="325.621" gradientUnits="userSpaceOnUse">
<stop offset="0.0113208" stop-color="white"/>
<stop offset="1" stop-color="white"/>
</linearGradient>
<linearGradient id="paint2_linear_573_53780" x1="313.829" y1="240.953" x2="306.345" y2="233.654" gradientUnits="userSpaceOnUse">
<stop offset="0.0113208" stop-color="white"/>
<stop offset="1" stop-color="white"/>
</linearGradient>
<linearGradient id="paint3_linear_573_53780" x1="313.829" y1="332.92" x2="306.345" y2="325.621" gradientUnits="userSpaceOnUse">
<stop offset="0.0113208" stop-color="white"/>
<stop offset="1" stop-color="white"/>
</linearGradient>
</defs>
</svg>
