<svg width="32" height="32" viewBox="0 0 32 32" fill="none" xmlns="http://www.w3.org/2000/svg">
<path d="M26.125 6.22899H24.9616V5.88333C24.9616 4.84716 24.1177 4 23.0866 4H23.0589C22.0276 4 21.1839 4.84714 21.1839 5.88333V6.22899H10.8145V5.88333C10.8145 4.84716 9.97072 4 8.93947 4H8.91094C7.87971 4 7.03597 4.84714 7.03597 5.88333V6.22899H5.87499C4.84377 6.22899 4 7.07693 4 8.11169V26.1167C4 27.1528 4.84374 28 5.87499 28H26.125C27.1563 28 28 27.1528 28 26.1167V8.11169C28 7.07693 27.1563 6.22899 26.125 6.22899ZM21.9338 5.88333C21.9338 5.2606 22.4378 4.75339 23.0588 4.75339H23.0865C23.7068 4.75339 24.2115 5.2606 24.2115 5.88333V9.23324C24.2115 9.85598 23.7068 10.3632 23.0865 10.3632H23.0588C22.4378 10.3632 21.9338 9.85598 21.9338 9.23324V5.88333ZM7.78597 5.88333C7.78597 5.2606 8.28991 4.75339 8.9111 4.75339H8.93947C9.55894 4.75339 10.0645 5.2606 10.0645 5.88333V9.23324C10.0645 9.85598 9.55892 10.3632 8.93947 10.3632H8.9111C8.28991 10.3632 7.78597 9.85598 7.78597 9.23324V5.88333ZM26.125 26.4942H5.87499C5.67162 26.4942 5.49999 26.3192 5.49999 26.1167V12.8786H26.5001V26.1167C26.5001 26.3192 26.3284 26.4942 26.125 26.4942ZM8.25615 15.5748H11.7159V17.2774H8.25615V15.5748ZM14.297 15.5748H17.7295V17.2774H14.297V15.5748ZM20.3105 15.5748H23.6879V17.2774H20.3105V15.5748ZM8.25615 19.0348H11.7159V20.7097H8.25615V19.0348ZM14.297 19.0348H17.7295V20.7097H14.297V19.0348ZM20.3105 19.0348H23.6879V20.7097H20.3105V19.0348ZM8.25615 22.4122H11.7159V24.1695H8.25615V22.4122ZM14.297 22.4122H17.7295V24.1695H14.297V22.4122ZM20.3105 22.4122H23.6879V24.1695H20.3105V22.4122Z" fill="#009DDD"/>
</svg>
