<svg width="32" height="32" viewBox="0 0 32 32" fill="none" xmlns="http://www.w3.org/2000/svg">
<path d="M21.0515 21.9645C21.2893 22.8663 20.8732 23.3714 20.2621 23.708C19.5913 24.0776 19.1182 23.5703 18.5497 23.1111C18.8367 24.0351 18.4065 24.5636 17.7569 24.9233C16.8551 25.4226 16.4227 24.5303 15.9512 24.2655C15.7427 24.7133 15.6016 25.2125 15.309 25.5957C14.9087 26.1192 14.3355 26.1562 13.8076 25.7475C11.5534 24.0024 9.29249 22.2648 7.07897 20.4692C6.71832 20.1766 6.5055 19.629 6.36352 19.1575C6.19566 18.6003 6.17687 17.9979 6.09711 17.4146C6.00687 16.7555 6.14022 16.1654 6.5634 15.6282C7.82954 14.0134 9.06026 12.3749 10.3353 10.77C11.2633 9.60213 12.6452 9.41487 13.9111 10.2846L11.2639 12.7147C10.8124 13.1289 10.3461 13.5271 9.91493 13.9623C9.2312 14.6528 9.14773 15.517 9.6476 16.3517C10.6948 18.1014 12.9298 18.7349 14.912 17.7096C15.9013 17.198 16.7624 16.4385 17.7351 15.753C19.5008 17.1352 21.3459 18.5594 23.1643 20.0171C23.6571 20.4128 23.6537 20.9549 23.3106 21.476C22.7661 22.3036 22.1858 22.5777 21.5781 22.2971C21.4312 22.23 21.3028 22.1252 21.0515 21.9645Z" fill="#009DDD"/>
<path d="M23.8769 18.4859L17.5548 13.5664C16.9034 14.1593 16.285 14.7346 15.6523 15.2942C14.847 16.0069 13.9892 16.6389 12.8395 16.5665C12.4892 16.5433 12.1475 16.448 11.8357 16.2866C10.869 15.7741 10.8222 15.3598 11.6202 14.6305C13.3246 13.0699 15.0434 11.5251 16.7402 9.95647C17.2268 9.5065 17.7316 9.29275 18.4051 9.43843C18.9318 9.55239 19.4979 9.50496 20.0122 9.65033C20.5099 9.79108 21.0612 9.98604 21.4203 10.3319C22.8636 11.7219 24.2461 13.1753 25.6419 14.6129C26.4908 15.4876 26.456 16.1178 25.544 16.9518C25.0038 17.4446 24.4691 17.9401 23.8769 18.4859Z" fill="#009DDD"/>
<path d="M4.07499 15.9512C3.96288 15.9013 3.8902 15.8841 3.83568 15.8425C3.03491 15.225 2.2172 14.6241 1.45493 13.9613C1.35484 13.8745 1.45278 13.407 1.59568 13.2172C2.92003 11.4728 4.26871 9.74836 5.6177 8.02331C6.5623 6.81538 6.56754 6.81815 7.80904 7.76984C8.24022 8.09939 8.65724 8.44433 9.0952 8.76248C9.41766 8.99625 9.42814 9.23617 9.1956 9.53492C7.60392 11.5781 6.01265 13.6219 4.42178 15.6664C4.32816 15.7868 4.18125 15.8659 4.07499 15.9512Z" fill="#009DDD"/>
<path d="M28.0223 14.6559C27.8126 14.4683 27.6487 14.3414 27.5077 14.1939C25.9018 12.5064 24.3111 10.806 22.688 9.13394C22.2697 8.70275 22.2041 8.41201 22.7049 8.00116C23.3209 7.49482 23.8904 6.9272 24.4604 6.36882C24.7536 6.08177 24.9677 6.05097 25.2723 6.37806C26.9394 8.16932 28.6327 9.93625 30.2925 11.7337C30.4265 11.8787 30.4967 12.3065 30.3975 12.4075C29.6457 13.1735 28.8422 13.8924 28.0223 14.6559Z" fill="#009DDD"/>
</svg>
