<svg width="24" height="16" viewBox="0 0 24 16" fill="none" xmlns="http://www.w3.org/2000/svg">
<g clip-path="url(#clip0_1076_13541)">
<path d="M21.9972 15.7499L21.9994 15.7499C22.9545 15.7581 23.7381 14.9773 23.75 14.0042L23.75 2.0063C23.7462 1.53569 23.5589 1.08617 23.2297 0.756802C22.9014 0.428269 22.4589 0.246149 21.9972 0.250071L2.00064 0.250062C1.54109 0.246149 1.09858 0.428269 0.770279 0.756802C0.441145 1.08617 0.253838 1.53569 0.250008 2.00426L0.25 13.9937C0.253838 14.4643 0.441145 14.9138 0.770279 15.2432C1.09858 15.5717 1.54109 15.7538 2.00277 15.7499H21.9972ZM21.9962 16.2499C21.9958 16.2499 21.9955 16.2499 21.9951 16.2499L21.9972 16.2499H21.9962Z" fill="white" stroke="black" stroke-opacity="0.2" stroke-width="0.5"/>
<path d="M12.6123 16.0002H21.9971C22.5239 16.0046 23.0309 15.7995 23.4065 15.4301C23.7821 15.0607 23.9955 14.5573 23.9999 14.0305V11.6719C20.4561 13.7062 16.6127 15.167 12.6123 16.0002Z" fill="#F27712"/>
<path d="M23.1725 9.29692H22.32L21.3601 8.03072H21.269V9.29692H20.5738V6.15209H21.6C22.4028 6.15209 22.8663 6.48313 22.8663 7.07899C22.8663 7.56727 22.5766 7.88175 22.0552 7.98106L23.1725 9.29692ZM22.1463 7.10382C22.1463 6.79761 21.9145 6.64037 21.4842 6.64037H21.269V7.59209H21.4676C21.9145 7.59209 22.1463 7.42658 22.1463 7.10382ZM18.1407 6.15209H20.1104V6.68175H18.8359V7.3852H20.0607V7.92313H18.8359V8.77554H20.1104V9.3052H18.1407V6.15209ZM15.9063 9.37968L14.4001 6.14382H15.1614L16.1132 8.26244L17.0732 6.14382H17.818L16.2952 9.37968H15.9228H15.9063ZM9.60833 9.37141C8.54902 9.37141 7.72143 8.6514 7.72143 7.71623C7.72143 6.80589 8.56557 6.06934 9.62488 6.06934C9.92281 6.06934 10.1711 6.12727 10.4773 6.25968V6.98796C10.2454 6.76013 9.9334 6.63236 9.60833 6.63209C8.94626 6.63209 8.44143 7.11209 8.44143 7.71623C8.44143 8.35347 8.93798 8.80865 9.64143 8.80865C9.95591 8.80865 10.1959 8.70934 10.4773 8.46106V9.18934C10.1628 9.32175 9.89798 9.37141 9.60833 9.37141ZM7.50626 8.33692C7.50626 8.94934 7.00143 9.37141 6.27315 9.37141C5.7435 9.37141 5.36281 9.18934 5.04005 8.77554L5.49522 8.38658C5.65246 8.66796 5.91729 8.80865 6.24833 8.80865C6.56281 8.80865 6.78626 8.6183 6.78626 8.37003C6.78626 8.22934 6.72005 8.12175 6.57936 8.03899C6.4251 7.96413 6.26446 7.9032 6.09936 7.85692C5.44557 7.65003 5.22212 7.42658 5.22212 6.98796C5.22212 6.47485 5.70212 6.08589 6.33109 6.08589C6.72833 6.08589 7.08419 6.21003 7.38212 6.44175L7.01798 6.85554C6.87366 6.69732 6.66938 6.6072 6.45522 6.60727C6.15729 6.60727 5.94212 6.75623 5.94212 6.95485C5.94212 7.12037 6.06626 7.2114 6.48005 7.35209C7.27453 7.60037 7.50626 7.83209 7.50626 8.3452V8.33692ZM4.08833 6.15209H4.7835V9.3052H4.08833V6.15209ZM1.85384 9.3052H0.827637V6.15209H1.85384C2.97936 6.15209 3.75729 6.79761 3.75729 7.72451C3.75729 8.19623 3.52557 8.64313 3.12005 8.94106C2.77246 9.18934 2.3835 9.3052 1.84557 9.3052H1.85384ZM2.66488 6.9383C2.43315 6.75623 2.16833 6.69003 1.71315 6.69003H1.52281V8.77554H1.71315C2.16005 8.77554 2.44143 8.69278 2.66488 8.52727C2.90488 8.32865 3.04557 8.03072 3.04557 7.72451C3.04557 7.4183 2.90488 7.12865 2.66488 6.9383Z" fill="black"/>
<path d="M12.414 6.06934C11.5036 6.06934 10.7588 6.79761 10.7588 7.69968C10.7588 8.65968 11.4705 9.37968 12.414 9.37968C13.3409 9.37968 14.0691 8.6514 14.0691 7.72451C14.0691 6.79761 13.3491 6.06934 12.414 6.06934Z" fill="#F27712"/>
</g>
<defs>
<clipPath id="clip0_1076_13541">
<rect width="24" height="16" fill="white"/>
</clipPath>
</defs>
</svg>
