<svg width="24" height="17" viewBox="0 0 24 17" fill="none" xmlns="http://www.w3.org/2000/svg">
<path d="M22.2026 0.517578H1.79742C0.804703 0.517578 0 1.32228 0 2.315V14.4443C0 15.437 0.804703 16.2417 1.79742 16.2417H22.2026C23.1952 16.2417 24 15.437 24 14.4443V2.315C24 1.32228 23.1953 0.517578 22.2026 0.517578Z" fill="#41479B"/>
<path d="M23.9751 2.01791C23.8335 1.1667 23.094 0.517578 22.2026 0.517578H21.7349L14.069 5.54009V0.517625H9.93103V5.54014L2.26509 0.517625H1.79742C0.906 0.517625 0.166547 1.1667 0.0248906 2.01795L6.57698 6.31077H0V10.4487H6.57698L0.0248906 14.7414C0.166547 15.5926 0.906 16.2418 1.79742 16.2418H2.26509L9.93103 11.2192V16.2418H14.069V11.2192L21.7349 16.2418H22.2026C23.094 16.2418 23.8335 15.5927 23.9751 14.7414L17.423 10.4486H24V6.31067H17.423L23.9751 2.01791Z" fill="#F5F5F5"/>
<path d="M13.2414 0.517578H10.7586V7.13825H0V9.62103H10.7586V16.2417H13.2414V9.62103H24V7.13825H13.2414V0.517578Z" fill="#FF4B55"/>
<path d="M1.16339 16.1264L9.90947 10.4492H8.38941L0.433594 15.6135C0.628266 15.8407 0.878437 16.0188 1.16339 16.1264Z" fill="#FF4B55"/>
<path d="M16.2388 10.4492H14.7188L23.1898 15.9479C23.4269 15.7922 23.6247 15.5819 23.7658 15.335L16.2388 10.4492Z" fill="#FF4B55"/>
<path d="M0.1875 1.51014L7.58109 6.30953H9.10116L0.723094 0.871094C0.498141 1.03853 0.314063 1.25744 0.1875 1.51014Z" fill="#FF4B55"/>
<path d="M15.5904 6.3118L23.5608 1.13797C23.3639 0.911516 23.1118 0.734516 22.8249 0.628906L14.0703 6.3118H15.5904Z" fill="#FF4B55"/>
</svg>
