<svg width="20" height="18" viewBox="0 0 20 18" fill="none" xmlns="http://www.w3.org/2000/svg">
<path fill-rule="evenodd" clip-rule="evenodd" d="M19.8678 9.49762C19.4527 10.2206 18.4767 11.7386 16.9548 13.1266L15.5437 11.7156C16.6038 10.7646 17.3708 9.71862 17.8267 9.00462C16.8948 7.58562 14.0717 3.89362 9.78075 4.00262C9.18075 4.01762 8.61775 4.11162 8.08175 4.25362L6.50175 2.67362C7.47375 2.28962 8.54475 2.03362 9.72975 2.00362C15.7048 1.81662 19.2297 7.39062 19.8678 8.50262C20.0438 8.81062 20.0438 9.18962 19.8678 9.49762ZM11.9178 13.7466L13.4978 15.3266C12.5268 15.7106 11.4548 15.9666 10.2708 15.9966C10.1888 15.9986 10.1067 15.9996 10.0247 15.9996C4.16175 15.9996 0.76175 10.5946 0.13275 9.49762C-0.04425 9.18962 -0.04425 8.81062 0.13275 8.50262C0.54675 7.77962 1.52275 6.26162 3.04475 4.87262L4.45575 6.28462C3.39575 7.23562 2.62975 8.28162 2.17275 8.99562C3.10475 10.4146 5.91475 14.0976 10.2198 13.9976C10.8198 13.9826 11.3828 13.8886 11.9178 13.7466ZM9.99975 10.4996C9.17275 10.4996 8.49975 9.82762 8.49975 8.99962C8.49975 8.97462 8.51075 8.95162 8.51175 8.92562L10.0747 10.4886C10.0487 10.4896 10.0258 10.4996 9.99975 10.4996ZM2.70675 0.292622C2.31675 -0.0973779 1.68375 -0.0973779 1.29275 0.292622C0.90275 0.683622 0.90275 1.31662 1.29275 1.70662L6.92375 7.33762C6.64675 7.84562 6.49975 8.41062 6.49975 8.99962C6.49975 10.9296 8.07075 12.4996 9.99975 12.4996C10.5898 12.4996 11.1547 12.3526 11.6628 12.0766L17.2927 17.7066C17.4888 17.9026 17.7437 17.9996 17.9998 17.9996C18.2558 17.9996 18.5117 17.9026 18.7067 17.7066C19.0977 17.3166 19.0977 16.6836 18.7067 16.2926L2.70675 0.292622Z" fill="#1C2E45" fill-opacity="0.6"/>
</svg>
