<svg width="24" height="24" viewBox="0 0 24 24" fill="none" xmlns="http://www.w3.org/2000/svg">
<path d="M7.39535 5H16.6047C17.3721 5 18 5.63646 18 6.41436V7.97015C18 8.5359 17.6512 9.24308 17.3023 9.59667L14.3023 12.2839C13.8837 12.6375 13.6047 13.3447 13.6047 13.9105V16.9513C13.6047 17.3756 13.3256 17.9414 12.9767 18.1535L12 18.79C11.093 19.3557 9.83721 18.7193 9.83721 17.5878V13.8397C9.83721 13.3447 9.55814 12.7083 9.27907 12.3547L6.62791 9.52595C6.27907 9.17236 6 8.5359 6 8.11159V6.48508C6 5.63646 6.62791 5 7.39535 5Z" stroke="#272D4E" stroke-width="1.3" stroke-miterlimit="10" stroke-linecap="round" stroke-linejoin="round"/>
</svg>
