<svg width="616" height="523" viewBox="0 0 616 523" fill="none" xmlns="http://www.w3.org/2000/svg">
<g filter="url(#filter0_d_1245_2143)">
<rect x="60" y="30" width="496" height="403" rx="10" fill="white"/>
</g>
<path d="M237.346 313.392L233.865 324H231.062L235.816 311.203H237.601L237.346 313.392ZM240.237 324L236.748 313.392L236.467 311.203H238.269L243.05 324H240.237ZM240.079 319.236V321.302H233.32V319.236H240.079ZM246.328 316.318V327.656H243.797V314.49H246.144L246.328 316.318ZM252.349 319.14V319.324C252.349 320.016 252.267 320.657 252.103 321.249C251.944 321.841 251.71 322.356 251.399 322.796C251.089 323.229 250.702 323.569 250.239 323.815C249.782 324.056 249.255 324.176 248.657 324.176C248.077 324.176 247.573 324.059 247.146 323.824C246.718 323.59 246.357 323.262 246.064 322.84C245.777 322.412 245.546 321.917 245.37 321.354C245.194 320.792 245.06 320.188 244.966 319.544V319.061C245.06 318.369 245.194 317.736 245.37 317.162C245.546 316.582 245.777 316.081 246.064 315.659C246.357 315.231 246.715 314.9 247.137 314.666C247.564 314.432 248.065 314.314 248.64 314.314C249.243 314.314 249.773 314.429 250.23 314.657C250.693 314.886 251.08 315.214 251.391 315.642C251.707 316.069 251.944 316.579 252.103 317.171C252.267 317.763 252.349 318.419 252.349 319.14ZM249.809 319.324V319.14C249.809 318.735 249.773 318.363 249.703 318.023C249.639 317.678 249.533 317.376 249.387 317.118C249.246 316.86 249.059 316.661 248.824 316.521C248.596 316.374 248.317 316.301 247.989 316.301C247.644 316.301 247.348 316.356 247.102 316.468C246.861 316.579 246.665 316.74 246.513 316.951C246.36 317.162 246.246 317.414 246.17 317.707C246.094 318 246.047 318.331 246.029 318.7V319.922C246.059 320.355 246.141 320.745 246.275 321.091C246.41 321.431 246.618 321.7 246.899 321.899C247.181 322.099 247.55 322.198 248.007 322.198C248.341 322.198 248.622 322.125 248.851 321.979C249.079 321.826 249.264 321.618 249.404 321.354C249.551 321.091 249.653 320.786 249.712 320.44C249.776 320.095 249.809 319.723 249.809 319.324ZM256.453 316.318V327.656H253.922V314.49H256.269L256.453 316.318ZM262.474 319.14V319.324C262.474 320.016 262.392 320.657 262.228 321.249C262.069 321.841 261.835 322.356 261.524 322.796C261.214 323.229 260.827 323.569 260.364 323.815C259.907 324.056 259.38 324.176 258.782 324.176C258.202 324.176 257.698 324.059 257.271 323.824C256.843 323.59 256.482 323.262 256.189 322.84C255.902 322.412 255.671 321.917 255.495 321.354C255.319 320.792 255.185 320.188 255.091 319.544V319.061C255.185 318.369 255.319 317.736 255.495 317.162C255.671 316.582 255.902 316.081 256.189 315.659C256.482 315.231 256.84 314.9 257.262 314.666C257.689 314.432 258.19 314.314 258.765 314.314C259.368 314.314 259.898 314.429 260.355 314.657C260.818 314.886 261.205 315.214 261.516 315.642C261.832 316.069 262.069 316.579 262.228 317.171C262.392 317.763 262.474 318.419 262.474 319.14ZM259.934 319.324V319.14C259.934 318.735 259.898 318.363 259.828 318.023C259.764 317.678 259.658 317.376 259.512 317.118C259.371 316.86 259.184 316.661 258.949 316.521C258.721 316.374 258.442 316.301 258.114 316.301C257.769 316.301 257.473 316.356 257.227 316.468C256.986 316.579 256.79 316.74 256.638 316.951C256.485 317.162 256.371 317.414 256.295 317.707C256.219 318 256.172 318.331 256.154 318.7V319.922C256.184 320.355 256.266 320.745 256.4 321.091C256.535 321.431 256.743 321.7 257.024 321.899C257.306 322.099 257.675 322.198 258.132 322.198C258.466 322.198 258.747 322.125 258.976 321.979C259.204 321.826 259.389 321.618 259.529 321.354C259.676 321.091 259.778 320.786 259.837 320.44C259.901 320.095 259.934 319.723 259.934 319.324ZM266.578 316.564V324H264.047V314.49H266.429L266.578 316.564ZM269.443 314.429L269.399 316.775C269.276 316.758 269.127 316.743 268.951 316.731C268.781 316.714 268.626 316.705 268.485 316.705C268.128 316.705 267.817 316.752 267.554 316.846C267.296 316.934 267.079 317.065 266.903 317.241C266.733 317.417 266.604 317.631 266.517 317.883C266.435 318.135 266.388 318.422 266.376 318.744L265.866 318.586C265.866 317.971 265.928 317.405 266.051 316.89C266.174 316.368 266.353 315.914 266.587 315.527C266.827 315.141 267.12 314.842 267.466 314.631C267.812 314.42 268.207 314.314 268.652 314.314C268.793 314.314 268.937 314.326 269.083 314.35C269.229 314.367 269.35 314.394 269.443 314.429ZM269.971 319.342V319.157C269.971 318.46 270.07 317.818 270.27 317.232C270.469 316.641 270.759 316.128 271.14 315.694C271.521 315.261 271.989 314.924 272.546 314.684C273.103 314.438 273.741 314.314 274.462 314.314C275.183 314.314 275.824 314.438 276.387 314.684C276.949 314.924 277.421 315.261 277.802 315.694C278.188 316.128 278.481 316.641 278.681 317.232C278.88 317.818 278.979 318.46 278.979 319.157V319.342C278.979 320.033 278.88 320.675 278.681 321.267C278.481 321.853 278.188 322.365 277.802 322.805C277.421 323.238 276.952 323.575 276.396 323.815C275.839 324.056 275.2 324.176 274.479 324.176C273.759 324.176 273.117 324.056 272.555 323.815C271.998 323.575 271.526 323.238 271.14 322.805C270.759 322.365 270.469 321.853 270.27 321.267C270.07 320.675 269.971 320.033 269.971 319.342ZM272.502 319.157V319.342C272.502 319.74 272.537 320.112 272.607 320.458C272.678 320.804 272.789 321.108 272.941 321.372C273.1 321.63 273.305 321.832 273.557 321.979C273.809 322.125 274.116 322.198 274.479 322.198C274.831 322.198 275.133 322.125 275.385 321.979C275.637 321.832 275.839 321.63 275.991 321.372C276.144 321.108 276.255 320.804 276.325 320.458C276.401 320.112 276.439 319.74 276.439 319.342V319.157C276.439 318.771 276.401 318.407 276.325 318.067C276.255 317.722 276.141 317.417 275.982 317.153C275.83 316.884 275.628 316.673 275.376 316.521C275.124 316.368 274.819 316.292 274.462 316.292C274.104 316.292 273.8 316.368 273.548 316.521C273.302 316.673 273.1 316.884 272.941 317.153C272.789 317.417 272.678 317.722 272.607 318.067C272.537 318.407 272.502 318.771 272.502 319.157ZM283.629 322.154L285.738 314.49H288.384L285.176 324H283.576L283.629 322.154ZM282.179 314.49L284.297 322.163L284.341 324H282.732L279.524 314.49H282.179ZM293.771 324.176C293.033 324.176 292.371 324.059 291.785 323.824C291.199 323.584 290.701 323.253 290.291 322.831C289.887 322.409 289.576 321.92 289.359 321.363C289.143 320.801 289.034 320.203 289.034 319.57V319.219C289.034 318.498 289.137 317.839 289.342 317.241C289.547 316.644 289.84 316.125 290.221 315.686C290.607 315.246 291.076 314.909 291.627 314.675C292.178 314.435 292.799 314.314 293.49 314.314C294.164 314.314 294.762 314.426 295.283 314.648C295.805 314.871 296.241 315.188 296.593 315.598C296.95 316.008 297.22 316.5 297.401 317.074C297.583 317.643 297.674 318.275 297.674 318.973V320.027H290.115V318.34H295.187V318.146C295.187 317.795 295.122 317.481 294.993 317.206C294.87 316.925 294.683 316.702 294.431 316.538C294.179 316.374 293.856 316.292 293.464 316.292C293.13 316.292 292.843 316.365 292.603 316.512C292.362 316.658 292.166 316.863 292.014 317.127C291.867 317.391 291.756 317.701 291.68 318.059C291.609 318.41 291.574 318.797 291.574 319.219V319.57C291.574 319.951 291.627 320.303 291.732 320.625C291.844 320.947 291.999 321.226 292.198 321.46C292.403 321.694 292.649 321.876 292.937 322.005C293.229 322.134 293.561 322.198 293.93 322.198C294.387 322.198 294.812 322.11 295.204 321.935C295.603 321.753 295.945 321.48 296.232 321.117L297.463 322.453C297.264 322.74 296.991 323.016 296.646 323.279C296.306 323.543 295.896 323.76 295.415 323.93C294.935 324.094 294.387 324.176 293.771 324.176ZM304.731 321.926V310.5H307.28V324H304.986L304.731 321.926ZM298.72 319.359V319.175C298.72 318.448 298.802 317.789 298.966 317.197C299.13 316.6 299.37 316.087 299.687 315.659C300.003 315.231 300.393 314.9 300.855 314.666C301.318 314.432 301.846 314.314 302.438 314.314C302.994 314.314 303.48 314.432 303.896 314.666C304.318 314.9 304.676 315.234 304.969 315.668C305.268 316.096 305.508 316.603 305.689 317.188C305.871 317.769 306.003 318.404 306.085 319.096V319.5C306.003 320.162 305.871 320.777 305.689 321.346C305.508 321.914 305.268 322.412 304.969 322.84C304.676 323.262 304.318 323.59 303.896 323.824C303.475 324.059 302.982 324.176 302.42 324.176C301.828 324.176 301.301 324.056 300.838 323.815C300.381 323.575 299.994 323.238 299.678 322.805C299.367 322.371 299.13 321.861 298.966 321.275C298.802 320.689 298.72 320.051 298.72 319.359ZM301.251 319.175V319.359C301.251 319.752 301.28 320.118 301.339 320.458C301.403 320.798 301.506 321.1 301.646 321.363C301.793 321.621 301.98 321.823 302.209 321.97C302.443 322.11 302.728 322.181 303.062 322.181C303.495 322.181 303.853 322.084 304.134 321.891C304.415 321.691 304.629 321.419 304.775 321.073C304.928 320.728 305.016 320.329 305.039 319.878V318.727C305.021 318.357 304.969 318.026 304.881 317.733C304.799 317.435 304.676 317.18 304.512 316.969C304.354 316.758 304.154 316.594 303.914 316.477C303.68 316.359 303.401 316.301 303.079 316.301C302.751 316.301 302.47 316.377 302.235 316.529C302.001 316.676 301.811 316.878 301.664 317.136C301.523 317.394 301.418 317.698 301.348 318.05C301.283 318.396 301.251 318.771 301.251 319.175ZM319.102 313.392L315.621 324H312.817L317.572 311.203H319.356L319.102 313.392ZM321.993 324L318.504 313.392L318.223 311.203H320.024L324.806 324H321.993ZM321.835 319.236V321.302H315.076V319.236H321.835ZM331.45 321.926V310.5H333.999V324H331.705L331.45 321.926ZM325.438 319.359V319.175C325.438 318.448 325.521 317.789 325.685 317.197C325.849 316.6 326.089 316.087 326.405 315.659C326.722 315.231 327.111 314.9 327.574 314.666C328.037 314.432 328.564 314.314 329.156 314.314C329.713 314.314 330.199 314.432 330.615 314.666C331.037 314.9 331.395 315.234 331.688 315.668C331.986 316.096 332.227 316.603 332.408 317.188C332.59 317.769 332.722 318.404 332.804 319.096V319.5C332.722 320.162 332.59 320.777 332.408 321.346C332.227 321.914 331.986 322.412 331.688 322.84C331.395 323.262 331.037 323.59 330.615 323.824C330.193 324.059 329.701 324.176 329.139 324.176C328.547 324.176 328.02 324.056 327.557 323.815C327.1 323.575 326.713 323.238 326.396 322.805C326.086 322.371 325.849 321.861 325.685 321.275C325.521 320.689 325.438 320.051 325.438 319.359ZM327.97 319.175V319.359C327.97 319.752 327.999 320.118 328.058 320.458C328.122 320.798 328.225 321.1 328.365 321.363C328.512 321.621 328.699 321.823 328.928 321.97C329.162 322.11 329.446 322.181 329.78 322.181C330.214 322.181 330.571 322.084 330.853 321.891C331.134 321.691 331.348 321.419 331.494 321.073C331.646 320.728 331.734 320.329 331.758 319.878V318.727C331.74 318.357 331.688 318.026 331.6 317.733C331.518 317.435 331.395 317.18 331.23 316.969C331.072 316.758 330.873 316.594 330.633 316.477C330.398 316.359 330.12 316.301 329.798 316.301C329.47 316.301 329.188 316.377 328.954 316.529C328.72 316.676 328.529 316.878 328.383 317.136C328.242 317.394 328.137 317.698 328.066 318.05C328.002 318.396 327.97 318.771 327.97 319.175ZM339.211 322.154L341.32 314.49H343.966L340.758 324H339.158L339.211 322.154ZM337.761 314.49L339.879 322.163L339.923 324H338.314L335.106 314.49H337.761ZM347.771 314.49V324H345.231V314.49H347.771ZM345.073 312.012C345.073 311.643 345.202 311.338 345.46 311.098C345.718 310.857 346.063 310.737 346.497 310.737C346.925 310.737 347.268 310.857 347.525 311.098C347.789 311.338 347.921 311.643 347.921 312.012C347.921 312.381 347.789 312.686 347.525 312.926C347.268 313.166 346.925 313.286 346.497 313.286C346.063 313.286 345.718 313.166 345.46 312.926C345.202 312.686 345.073 312.381 345.073 312.012ZM355.005 321.372C355.005 321.19 354.952 321.026 354.847 320.88C354.741 320.733 354.545 320.599 354.258 320.476C353.977 320.347 353.569 320.229 353.036 320.124C352.556 320.019 352.107 319.887 351.691 319.729C351.281 319.564 350.924 319.368 350.619 319.14C350.32 318.911 350.086 318.642 349.916 318.331C349.746 318.015 349.661 317.654 349.661 317.25C349.661 316.852 349.746 316.477 349.916 316.125C350.092 315.773 350.341 315.463 350.663 315.193C350.991 314.918 351.39 314.704 351.858 314.552C352.333 314.394 352.866 314.314 353.458 314.314C354.284 314.314 354.993 314.446 355.585 314.71C356.183 314.974 356.64 315.337 356.956 315.8C357.278 316.257 357.439 316.778 357.439 317.364H354.908C354.908 317.118 354.855 316.898 354.75 316.705C354.65 316.506 354.492 316.351 354.275 316.239C354.064 316.122 353.789 316.063 353.449 316.063C353.168 316.063 352.925 316.113 352.72 316.213C352.515 316.307 352.356 316.436 352.245 316.6C352.14 316.758 352.087 316.934 352.087 317.127C352.087 317.273 352.116 317.405 352.175 317.522C352.239 317.634 352.342 317.736 352.482 317.83C352.623 317.924 352.805 318.012 353.027 318.094C353.256 318.17 353.537 318.24 353.871 318.305C354.557 318.445 355.169 318.63 355.708 318.858C356.247 319.081 356.675 319.386 356.991 319.772C357.308 320.153 357.466 320.654 357.466 321.275C357.466 321.697 357.372 322.084 357.185 322.436C356.997 322.787 356.728 323.095 356.376 323.358C356.024 323.616 355.603 323.818 355.11 323.965C354.624 324.105 354.076 324.176 353.467 324.176C352.582 324.176 351.832 324.018 351.217 323.701C350.607 323.385 350.145 322.983 349.828 322.497C349.518 322.005 349.362 321.501 349.362 320.985H351.762C351.773 321.331 351.861 321.609 352.025 321.82C352.195 322.031 352.409 322.184 352.667 322.277C352.931 322.371 353.215 322.418 353.52 322.418C353.848 322.418 354.12 322.374 354.337 322.286C354.554 322.192 354.718 322.069 354.829 321.917C354.946 321.759 355.005 321.577 355.005 321.372ZM358.705 319.342V319.157C358.705 318.46 358.805 317.818 359.004 317.232C359.203 316.641 359.493 316.128 359.874 315.694C360.255 315.261 360.724 314.924 361.28 314.684C361.837 314.438 362.476 314.314 363.196 314.314C363.917 314.314 364.559 314.438 365.121 314.684C365.684 314.924 366.155 315.261 366.536 315.694C366.923 316.128 367.216 316.641 367.415 317.232C367.614 317.818 367.714 318.46 367.714 319.157V319.342C367.714 320.033 367.614 320.675 367.415 321.267C367.216 321.853 366.923 322.365 366.536 322.805C366.155 323.238 365.687 323.575 365.13 323.815C364.573 324.056 363.935 324.176 363.214 324.176C362.493 324.176 361.852 324.056 361.289 323.815C360.732 323.575 360.261 323.238 359.874 322.805C359.493 322.365 359.203 321.853 359.004 321.267C358.805 320.675 358.705 320.033 358.705 319.342ZM361.236 319.157V319.342C361.236 319.74 361.271 320.112 361.342 320.458C361.412 320.804 361.523 321.108 361.676 321.372C361.834 321.63 362.039 321.832 362.291 321.979C362.543 322.125 362.851 322.198 363.214 322.198C363.565 322.198 363.867 322.125 364.119 321.979C364.371 321.832 364.573 321.63 364.726 321.372C364.878 321.108 364.989 320.804 365.06 320.458C365.136 320.112 365.174 319.74 365.174 319.342V319.157C365.174 318.771 365.136 318.407 365.06 318.067C364.989 317.722 364.875 317.417 364.717 317.153C364.564 316.884 364.362 316.673 364.11 316.521C363.858 316.368 363.554 316.292 363.196 316.292C362.839 316.292 362.534 316.368 362.282 316.521C362.036 316.673 361.834 316.884 361.676 317.153C361.523 317.417 361.412 317.722 361.342 318.067C361.271 318.407 361.236 318.771 361.236 319.157ZM371.801 316.564V324H369.27V314.49H371.651L371.801 316.564ZM374.666 314.429L374.622 316.775C374.499 316.758 374.35 316.743 374.174 316.731C374.004 316.714 373.849 316.705 373.708 316.705C373.351 316.705 373.04 316.752 372.776 316.846C372.519 316.934 372.302 317.065 372.126 317.241C371.956 317.417 371.827 317.631 371.739 317.883C371.657 318.135 371.61 318.422 371.599 318.744L371.089 318.586C371.089 317.971 371.15 317.405 371.273 316.89C371.396 316.368 371.575 315.914 371.81 315.527C372.05 315.141 372.343 314.842 372.688 314.631C373.034 314.42 373.43 314.314 373.875 314.314C374.016 314.314 374.159 314.326 374.306 314.35C374.452 314.367 374.572 314.394 374.666 314.429ZM381.003 321.372C381.003 321.19 380.95 321.026 380.845 320.88C380.739 320.733 380.543 320.599 380.256 320.476C379.975 320.347 379.567 320.229 379.034 320.124C378.554 320.019 378.105 319.887 377.689 319.729C377.279 319.564 376.922 319.368 376.617 319.14C376.318 318.911 376.084 318.642 375.914 318.331C375.744 318.015 375.659 317.654 375.659 317.25C375.659 316.852 375.744 316.477 375.914 316.125C376.09 315.773 376.339 315.463 376.661 315.193C376.989 314.918 377.388 314.704 377.856 314.552C378.331 314.394 378.864 314.314 379.456 314.314C380.282 314.314 380.991 314.446 381.583 314.71C382.181 314.974 382.638 315.337 382.954 315.8C383.276 316.257 383.438 316.778 383.438 317.364H380.906C380.906 317.118 380.854 316.898 380.748 316.705C380.648 316.506 380.49 316.351 380.273 316.239C380.062 316.122 379.787 316.063 379.447 316.063C379.166 316.063 378.923 316.113 378.718 316.213C378.513 316.307 378.354 316.436 378.243 316.6C378.138 316.758 378.085 316.934 378.085 317.127C378.085 317.273 378.114 317.405 378.173 317.522C378.237 317.634 378.34 317.736 378.48 317.83C378.621 317.924 378.803 318.012 379.025 318.094C379.254 318.17 379.535 318.24 379.869 318.305C380.555 318.445 381.167 318.63 381.706 318.858C382.245 319.081 382.673 319.386 382.989 319.772C383.306 320.153 383.464 320.654 383.464 321.275C383.464 321.697 383.37 322.084 383.183 322.436C382.995 322.787 382.726 323.095 382.374 323.358C382.022 323.616 381.601 323.818 381.108 323.965C380.622 324.105 380.074 324.176 379.465 324.176C378.58 324.176 377.83 324.018 377.215 323.701C376.605 323.385 376.143 322.983 375.826 322.497C375.516 322.005 375.36 321.501 375.36 320.985H377.76C377.771 321.331 377.859 321.609 378.023 321.82C378.193 322.031 378.407 322.184 378.665 322.277C378.929 322.371 379.213 322.418 379.518 322.418C379.846 322.418 380.118 322.374 380.335 322.286C380.552 322.192 380.716 322.069 380.827 321.917C380.944 321.759 381.003 321.577 381.003 321.372Z" fill="#94A2B3"/>
<path d="M249.797 247.805V282H243.047V255.586L234.938 258.164V252.844L249.07 247.805H249.797ZM283.875 261.938V267.844C283.875 270.406 283.602 272.617 283.055 274.477C282.508 276.32 281.719 277.836 280.688 279.023C279.672 280.195 278.461 281.062 277.055 281.625C275.648 282.188 274.086 282.469 272.367 282.469C270.992 282.469 269.711 282.297 268.523 281.953C267.336 281.594 266.266 281.039 265.312 280.289C264.375 279.539 263.562 278.594 262.875 277.453C262.203 276.297 261.688 274.922 261.328 273.328C260.969 271.734 260.789 269.906 260.789 267.844V261.938C260.789 259.375 261.062 257.18 261.609 255.352C262.172 253.508 262.961 252 263.977 250.828C265.008 249.656 266.227 248.797 267.633 248.25C269.039 247.688 270.602 247.406 272.32 247.406C273.695 247.406 274.969 247.586 276.141 247.945C277.328 248.289 278.398 248.828 279.352 249.562C280.305 250.297 281.117 251.242 281.789 252.398C282.461 253.539 282.977 254.906 283.336 256.5C283.695 258.078 283.875 259.891 283.875 261.938ZM277.102 268.734V261.023C277.102 259.789 277.031 258.711 276.891 257.789C276.766 256.867 276.57 256.086 276.305 255.445C276.039 254.789 275.711 254.258 275.32 253.852C274.93 253.445 274.484 253.148 273.984 252.961C273.484 252.773 272.93 252.68 272.32 252.68C271.555 252.68 270.875 252.828 270.281 253.125C269.703 253.422 269.211 253.898 268.805 254.555C268.398 255.195 268.086 256.055 267.867 257.133C267.664 258.195 267.562 259.492 267.562 261.023V268.734C267.562 269.969 267.625 271.055 267.75 271.992C267.891 272.93 268.094 273.734 268.359 274.406C268.641 275.062 268.969 275.602 269.344 276.023C269.734 276.43 270.18 276.727 270.68 276.914C271.195 277.102 271.758 277.195 272.367 277.195C273.117 277.195 273.781 277.047 274.359 276.75C274.953 276.438 275.453 275.953 275.859 275.297C276.281 274.625 276.594 273.75 276.797 272.672C277 271.594 277.102 270.281 277.102 268.734ZM311.438 261.938V267.844C311.438 270.406 311.164 272.617 310.617 274.477C310.07 276.32 309.281 277.836 308.25 279.023C307.234 280.195 306.023 281.062 304.617 281.625C303.211 282.188 301.648 282.469 299.93 282.469C298.555 282.469 297.273 282.297 296.086 281.953C294.898 281.594 293.828 281.039 292.875 280.289C291.938 279.539 291.125 278.594 290.438 277.453C289.766 276.297 289.25 274.922 288.891 273.328C288.531 271.734 288.352 269.906 288.352 267.844V261.938C288.352 259.375 288.625 257.18 289.172 255.352C289.734 253.508 290.523 252 291.539 250.828C292.57 249.656 293.789 248.797 295.195 248.25C296.602 247.688 298.164 247.406 299.883 247.406C301.258 247.406 302.531 247.586 303.703 247.945C304.891 248.289 305.961 248.828 306.914 249.562C307.867 250.297 308.68 251.242 309.352 252.398C310.023 253.539 310.539 254.906 310.898 256.5C311.258 258.078 311.438 259.891 311.438 261.938ZM304.664 268.734V261.023C304.664 259.789 304.594 258.711 304.453 257.789C304.328 256.867 304.133 256.086 303.867 255.445C303.602 254.789 303.273 254.258 302.883 253.852C302.492 253.445 302.047 253.148 301.547 252.961C301.047 252.773 300.492 252.68 299.883 252.68C299.117 252.68 298.438 252.828 297.844 253.125C297.266 253.422 296.773 253.898 296.367 254.555C295.961 255.195 295.648 256.055 295.43 257.133C295.227 258.195 295.125 259.492 295.125 261.023V268.734C295.125 269.969 295.188 271.055 295.312 271.992C295.453 272.93 295.656 273.734 295.922 274.406C296.203 275.062 296.531 275.602 296.906 276.023C297.297 276.43 297.742 276.727 298.242 276.914C298.758 277.102 299.32 277.195 299.93 277.195C300.68 277.195 301.344 277.047 301.922 276.75C302.516 276.438 303.016 275.953 303.422 275.297C303.844 274.625 304.156 273.75 304.359 272.672C304.562 271.594 304.664 270.281 304.664 268.734ZM339 261.938V267.844C339 270.406 338.727 272.617 338.18 274.477C337.633 276.32 336.844 277.836 335.812 279.023C334.797 280.195 333.586 281.062 332.18 281.625C330.773 282.188 329.211 282.469 327.492 282.469C326.117 282.469 324.836 282.297 323.648 281.953C322.461 281.594 321.391 281.039 320.438 280.289C319.5 279.539 318.688 278.594 318 277.453C317.328 276.297 316.812 274.922 316.453 273.328C316.094 271.734 315.914 269.906 315.914 267.844V261.938C315.914 259.375 316.188 257.18 316.734 255.352C317.297 253.508 318.086 252 319.102 250.828C320.133 249.656 321.352 248.797 322.758 248.25C324.164 247.688 325.727 247.406 327.445 247.406C328.82 247.406 330.094 247.586 331.266 247.945C332.453 248.289 333.523 248.828 334.477 249.562C335.43 250.297 336.242 251.242 336.914 252.398C337.586 253.539 338.102 254.906 338.461 256.5C338.82 258.078 339 259.891 339 261.938ZM332.227 268.734V261.023C332.227 259.789 332.156 258.711 332.016 257.789C331.891 256.867 331.695 256.086 331.43 255.445C331.164 254.789 330.836 254.258 330.445 253.852C330.055 253.445 329.609 253.148 329.109 252.961C328.609 252.773 328.055 252.68 327.445 252.68C326.68 252.68 326 252.828 325.406 253.125C324.828 253.422 324.336 253.898 323.93 254.555C323.523 255.195 323.211 256.055 322.992 257.133C322.789 258.195 322.688 259.492 322.688 261.023V268.734C322.688 269.969 322.75 271.055 322.875 271.992C323.016 272.93 323.219 273.734 323.484 274.406C323.766 275.062 324.094 275.602 324.469 276.023C324.859 276.43 325.305 276.727 325.805 276.914C326.32 277.102 326.883 277.195 327.492 277.195C328.242 277.195 328.906 277.047 329.484 276.75C330.078 276.438 330.578 275.953 330.984 275.297C331.406 274.625 331.719 273.75 331.922 272.672C332.125 271.594 332.227 270.281 332.227 268.734ZM377.906 262.992V268.875H354.516V262.992H377.906ZM369.422 253.734V278.578H363.023V253.734H369.422Z" fill="#383874"/>
<path d="M251.927 115.852C253.502 115.34 254.364 113.648 253.852 112.073C253.34 110.498 251.648 109.636 250.073 110.148C248.498 110.66 247.636 112.352 248.148 113.927C248.66 115.502 250.352 116.364 251.927 115.852Z" fill="#EAEEF9"/>
<path d="M256.618 105.902C257.668 105.56 258.243 104.432 257.902 103.382C257.56 102.332 256.432 101.757 255.382 102.098C254.332 102.44 253.757 103.568 254.098 104.618C254.44 105.668 255.568 106.243 256.618 105.902Z" fill="#EAEEF9"/>
<path d="M372.536 122.822C374.37 121.145 374.498 118.299 372.821 116.464C371.146 114.63 368.299 114.502 366.464 116.178C364.63 117.855 364.502 120.701 366.179 122.536C367.854 124.37 370.701 124.498 372.536 122.822Z" fill="#EAEEF9"/>
<path d="M373.349 105.476C374.165 104.731 374.221 103.466 373.477 102.651C372.731 101.835 371.465 101.778 370.651 102.524C369.836 103.269 369.778 104.534 370.524 105.349C371.268 106.165 372.534 106.222 373.349 105.476Z" fill="#EAEEF9"/>
<path d="M308 208C338.928 208 364 182.928 364 152C364 121.072 338.928 96 308 96C277.072 96 252 121.072 252 152C252 182.928 277.072 208 308 208Z" fill="#EAEEF9"/>
<path d="M277.844 129.175V135.39V185.108C277.844 187.41 279.674 189.251 281.849 189.251H361.946C364.234 189.251 365.95 187.41 365.95 185.108V135.39V129.406C365.95 126.989 364.006 125.032 361.602 125.032H281.849L277.844 129.175Z" fill="white"/>
<g filter="url(#filter1_d_1245_2143)">
<path d="M255.188 123.651V131.017V189.711C255.188 192.359 257.362 194.545 259.993 194.545H354.622C357.255 194.545 359.429 192.359 359.429 189.711V131.017V123.881C359.429 121.004 357.14 118.817 354.394 118.817H259.993L255.188 123.651Z" fill="white"/>
</g>
<path d="M328.419 128.715H255.188V123.651C255.188 121.004 257.362 118.817 259.993 118.817H354.622C357.255 118.817 359.429 121.004 359.429 123.651V128.715H343.294H328.419Z" fill="url(#paint0_linear_1245_2143)"/>
<path d="M261.36 125.607C262.245 125.607 262.962 124.886 262.962 123.996C262.962 123.106 262.245 122.385 261.36 122.385C260.475 122.385 259.758 123.106 259.758 123.996C259.758 124.886 260.475 125.607 261.36 125.607Z" fill="white"/>
<path d="M265.938 125.607C266.823 125.607 267.54 124.886 267.54 123.996C267.54 123.106 266.823 122.385 265.938 122.385C265.053 122.385 264.336 123.106 264.336 123.996C264.336 124.886 265.053 125.607 265.938 125.607Z" fill="white"/>
<path d="M270.633 125.607C271.518 125.607 272.235 124.886 272.235 123.996C272.235 123.106 271.518 122.385 270.633 122.385C269.748 122.385 269.031 123.106 269.031 123.996C269.031 124.886 269.748 125.607 270.633 125.607Z" fill="white"/>
<path d="M343 94C344.105 94 345 93.1046 345 92C345 90.8955 344.105 90 343 90C341.895 90 341 90.8955 341 92C341 93.1046 341.895 94 343 94Z" fill="url(#paint1_linear_1245_2143)"/>
<path d="M246.062 177.169C247.167 177.169 248.062 176.273 248.062 175.169C248.062 174.064 247.167 173.169 246.062 173.169C244.958 173.169 244.062 174.064 244.062 175.169C244.062 176.273 244.958 177.169 246.062 177.169Z" fill="url(#paint2_linear_1245_2143)"/>
<path d="M328.535 166.757C326.227 178.065 315.036 185.45 303.729 183.027C292.422 180.719 285.038 169.526 287.461 158.218C289.768 146.909 300.96 139.525 312.267 141.948C316.305 142.756 319.997 144.717 322.882 147.718C327.843 152.679 330.035 159.834 328.535 166.757Z" fill="url(#paint3_linear_1245_2143)"/>
<path d="M304.055 168.303C304.055 168.303 310.142 174.776 315.291 179.955C315.291 179.955 320.1 176.765 322.262 174.652C324.326 172.635 326.411 167.467 326.411 167.467L316.433 155.817L308.613 163.821L304.055 168.303Z" fill="url(#paint4_linear_1245_2143)"/>
<path fill-rule="evenodd" clip-rule="evenodd" d="M316.445 155.586C317.185 156.367 317.185 157.633 316.445 158.414L306.971 168.414C306.231 169.195 305.032 169.195 304.292 168.414L299.555 163.414C298.815 162.633 298.815 161.367 299.555 160.586C300.295 159.805 301.495 159.805 302.235 160.586L305.632 164.172L313.765 155.586C314.505 154.805 315.705 154.805 316.445 155.586Z" fill="url(#paint5_linear_1245_2143)"/>
<defs>
<filter id="filter0_d_1245_2143" x="0" y="0" width="616" height="523" filterUnits="userSpaceOnUse" color-interpolation-filters="sRGB">
<feFlood flood-opacity="0" result="BackgroundImageFix"/>
<feColorMatrix in="SourceAlpha" type="matrix" values="0 0 0 0 0 0 0 0 0 0 0 0 0 0 0 0 0 0 127 0" result="hardAlpha"/>
<feOffset dy="30"/>
<feGaussianBlur stdDeviation="30"/>
<feComposite in2="hardAlpha" operator="out"/>
<feColorMatrix type="matrix" values="0 0 0 0 0 0 0 0 0 0.615686 0 0 0 0 0.866667 0 0 0 0.1 0"/>
<feBlend mode="normal" in2="BackgroundImageFix" result="effect1_dropShadow_1245_2143"/>
<feBlend mode="normal" in="SourceGraphic" in2="effect1_dropShadow_1245_2143" result="shape"/>
</filter>
<filter id="filter1_d_1245_2143" x="253.188" y="118.817" width="112.242" height="83.7275" filterUnits="userSpaceOnUse" color-interpolation-filters="sRGB">
<feFlood flood-opacity="0" result="BackgroundImageFix"/>
<feColorMatrix in="SourceAlpha" type="matrix" values="0 0 0 0 0 0 0 0 0 0 0 0 0 0 0 0 0 0 127 0" result="hardAlpha"/>
<feOffset dx="2" dy="4"/>
<feGaussianBlur stdDeviation="2"/>
<feComposite in2="hardAlpha" operator="out"/>
<feColorMatrix type="matrix" values="0 0 0 0 0.0666667 0 0 0 0 0.0941176 0 0 0 0 0.152941 0 0 0 0.08 0"/>
<feBlend mode="normal" in2="BackgroundImageFix" result="effect1_dropShadow_1245_2143"/>
<feBlend mode="normal" in="SourceGraphic" in2="effect1_dropShadow_1245_2143" result="shape"/>
</filter>
<linearGradient id="paint0_linear_1245_2143" x1="387.95" y1="116.25" x2="349.691" y2="188.691" gradientUnits="userSpaceOnUse">
<stop stop-color="#21D4FD"/>
<stop offset="1" stop-color="#0283E9"/>
</linearGradient>
<linearGradient id="paint1_linear_1245_2143" x1="341.101" y1="91.9714" x2="344.982" y2="91.9714" gradientUnits="userSpaceOnUse">
<stop stop-color="#FF66A9"/>
<stop offset="1" stop-color="#F53689"/>
</linearGradient>
<linearGradient id="paint2_linear_1245_2143" x1="244.162" y1="175.158" x2="248.042" y2="175.158" gradientUnits="userSpaceOnUse">
<stop stop-color="#FF66A9"/>
<stop offset="1" stop-color="#F53689"/>
</linearGradient>
<linearGradient id="paint3_linear_1245_2143" x1="340.492" y1="130.593" x2="272.025" y2="142.902" gradientUnits="userSpaceOnUse">
<stop stop-color="#21D4FD"/>
<stop offset="1" stop-color="#0283E9"/>
</linearGradient>
<linearGradient id="paint4_linear_1245_2143" x1="310.563" y1="162.16" x2="319.133" y2="173.071" gradientUnits="userSpaceOnUse">
<stop stop-color="#4F6AFF"/>
<stop offset="1" stop-color="#657EFF" stop-opacity="0"/>
</linearGradient>
<linearGradient id="paint5_linear_1245_2143" x1="312.929" y1="166.017" x2="301.399" y2="154.77" gradientUnits="userSpaceOnUse">
<stop offset="0.0113208" stop-color="#C2D1FF"/>
<stop offset="1" stop-color="white"/>
</linearGradient>
</defs>
</svg>
