<svg width="24" height="24" viewBox="0 0 24 24" fill="none" xmlns="http://www.w3.org/2000/svg">
<path fill-rule="evenodd" clip-rule="evenodd" d="M3.94824 6H20.0512C20.5732 6 21.0002 6.427 21.0002 6.949V7.051C21.0002 7.573 20.5732 8 20.0512 8H3.94824C3.42624 8 3.00024 7.573 3.00024 7.051V6.949C3.00024 6.427 3.42624 6 3.94824 6ZM20.0512 11H3.94824C3.42624 11 3.00024 11.427 3.00024 11.949V12.051C3.00024 12.573 3.42624 13 3.94824 13H20.0512C20.5732 13 21.0002 12.573 21.0002 12.051V11.949C21.0002 11.427 20.5732 11 20.0512 11ZM20.0512 16H3.94824C3.42624 16 3.00024 16.427 3.00024 16.949V17.051C3.00024 17.573 3.42624 18 3.94824 18H20.0512C20.5732 18 21.0002 17.573 21.0002 17.051V16.949C21.0002 16.427 20.5732 16 20.0512 16Z" fill="black"/>
<mask id="mask0_1702_18253" style="mask-type:alpha" maskUnits="userSpaceOnUse" x="3" y="3" width="19" height="15">
<path fill-rule="evenodd" clip-rule="evenodd" d="M3.948 3H20.051C20.573 3 21 3.6405 21 4.4235V4.5765C21 5.3595 20.573 6 20.051 6H3.948C3.426 6 3 5.3595 3 4.5765V4.4235C3 3.6405 3.426 3 3.948 3ZM20.0513 11H3.94831C3.42631 11 3.00031 11.427 3.00031 11.949V12.051C3.00031 12.573 3.42631 13 3.94831 13H20.0513C20.5733 13 21.0003 12.573 21.0003 12.051V11.949C21.0003 11.427 20.5733 11 20.0513 11ZM20.0513 16H3.94831C3.42631 16 3.00031 16.427 3.00031 16.949V17.051C3.00031 17.573 3.42631 18 3.94831 18H20.0513C20.5733 18 21.0003 17.573 21.0003 17.051V16.949C21.0003 16.427 20.5733 16 20.0513 16Z" fill="white"/>
</mask>
<g mask="url(#mask0_1702_18253)">
</g>
</svg>
