<svg width="201" height="201" viewBox="0 0 201 201" fill="none" xmlns="http://www.w3.org/2000/svg">
<path d="M30.0585 60.1146C32.0374 59.4715 33.1202 57.3458 32.4769 55.3668C31.8338 53.3879 29.708 52.305 27.7291 52.9483C25.7502 53.5914 24.6674 55.7171 25.3105 57.6961C25.9538 59.6751 28.0794 60.7579 30.0585 60.1146Z" fill="#EAEEF9"/>
<path d="M35.9529 47.6142C37.2723 47.1853 37.9942 45.7683 37.5653 44.4489C37.1366 43.1296 35.7195 42.4078 34.4002 42.8366C33.0809 43.2655 32.3589 44.6825 32.7878 46.0018C33.2165 47.3212 34.6338 48.043 35.9529 47.6142Z" fill="#EAEEF9"/>
<path d="M181.572 68.8701C183.877 66.7639 184.038 63.1883 181.931 60.8836C179.826 58.5788 176.25 58.4178 173.945 60.524C171.64 62.6302 171.479 66.2058 173.586 68.5105C175.691 70.8153 179.267 70.9763 181.572 68.8701Z" fill="#EAEEF9"/>
<path d="M182.593 47.0801C183.619 46.144 183.69 44.5548 182.755 43.5305C181.818 42.5062 180.228 42.4346 179.204 43.3707C178.181 44.3067 178.108 45.896 179.045 46.9203C179.98 47.9445 181.57 48.0162 182.593 47.0801Z" fill="#EAEEF9"/>
<path d="M100.498 175.875C139.351 175.875 170.848 144.378 170.848 105.525C170.848 66.6716 139.351 35.1748 100.498 35.1748C61.6451 35.1748 30.1484 66.6716 30.1484 105.525C30.1484 144.378 61.6451 175.875 100.498 175.875Z" fill="#EAEEF9"/>
<path d="M62.6133 76.8514V84.6586V147.117C62.6133 150.008 64.9131 152.322 67.6443 152.322H168.267C171.141 152.322 173.297 150.008 173.297 147.117V84.6586V77.1404C173.297 74.1044 170.854 71.6465 167.834 71.6465H67.6443L62.6133 76.8514Z" fill="white"/>
<g filter="url(#filter0_d_1172_2045)">
<path d="M34.1523 69.9112V79.1643V152.9C34.1523 156.225 36.8835 158.972 40.1896 158.972H159.067C162.374 158.972 165.105 156.225 165.105 152.9V79.1643V70.2004C165.105 66.5859 162.23 63.8389 158.78 63.8389H40.1896L34.1523 69.9112Z" fill="white"/>
</g>
<path d="M126.15 76.2727H34.1523V69.9112C34.1523 66.5859 36.8835 63.8389 40.1896 63.8389H159.067C162.374 63.8389 165.105 66.5859 165.105 69.9112V76.2727H144.837H126.15Z" fill="url(#paint0_linear_1172_2045)"/>
<path d="M41.9148 72.3695C43.0263 72.3695 43.9272 71.4634 43.9272 70.3454C43.9272 69.2276 43.0263 68.3213 41.9148 68.3213C40.8034 68.3213 39.9023 69.2276 39.9023 70.3454C39.9023 71.4634 40.8034 72.3695 41.9148 72.3695Z" fill="white"/>
<path d="M47.6609 72.3695C48.7722 72.3695 49.6733 71.4634 49.6733 70.3454C49.6733 69.2276 48.7722 68.3213 47.6609 68.3213C46.5494 68.3213 45.6484 69.2276 45.6484 70.3454C45.6484 71.4634 46.5494 72.3695 47.6609 72.3695Z" fill="white"/>
<path d="M53.5554 72.3695C54.6669 72.3695 55.5678 71.4634 55.5678 70.3454C55.5678 69.2276 54.6669 68.3213 53.5554 68.3213C52.4439 68.3213 51.543 69.2276 51.543 70.3454C51.543 71.4634 52.4439 72.3695 53.5554 72.3695Z" fill="white"/>
<path d="M144.469 32.6627C145.857 32.6627 146.982 31.5379 146.982 30.1502C146.982 28.7627 145.857 27.6377 144.469 27.6377C143.082 27.6377 141.957 28.7627 141.957 30.1502C141.957 31.5379 143.082 32.6627 144.469 32.6627Z" fill="url(#paint1_linear_1172_2045)"/>
<path d="M22.6922 137.144C24.0798 137.144 25.2047 136.019 25.2047 134.632C25.2047 133.244 24.0798 132.119 22.6922 132.119C21.3046 132.119 20.1797 133.244 20.1797 134.632C20.1797 136.019 21.3046 137.144 22.6922 137.144Z" fill="url(#paint2_linear_1172_2045)"/>
<path fill-rule="evenodd" clip-rule="evenodd" d="M46.6048 84.9161C46.3314 84.9161 46.0719 84.9705 45.8356 85.0685C45.5792 85.1748 45.2852 85.0531 45.1789 84.7968C45.0726 84.5404 45.1942 84.2464 45.4506 84.1401C45.8068 83.9924 46.197 83.9111 46.6048 83.9111H47.8647C48.1422 83.9111 48.3672 84.1361 48.3672 84.4136C48.3672 84.6912 48.1422 84.9161 47.8647 84.9161H46.6048ZM49.8819 84.4136C49.8819 84.1361 50.1068 83.9111 50.3844 83.9111H52.904C53.1816 83.9111 53.4065 84.1361 53.4065 84.4136C53.4065 84.6912 53.1816 84.9161 52.904 84.9161H50.3844C50.1068 84.9161 49.8819 84.6912 49.8819 84.4136ZM54.9212 84.4136C54.9212 84.1361 55.1462 83.9111 55.4237 83.9111H57.9434C58.2209 83.9111 58.4459 84.1361 58.4459 84.4136C58.4459 84.6912 58.2209 84.9161 57.9434 84.9161H55.4237C55.1462 84.9161 54.9212 84.6912 54.9212 84.4136ZM59.9606 84.4136C59.9606 84.1361 60.1856 83.9111 60.4631 83.9111H62.9828C63.2603 83.9111 63.4853 84.1361 63.4853 84.4136C63.4853 84.6912 63.2603 84.9161 62.9828 84.9161H60.4631C60.1856 84.9161 59.9606 84.6912 59.9606 84.4136ZM64.9999 84.4136C64.9999 84.1361 65.2249 83.9111 65.5024 83.9111H68.0221C68.2996 83.9111 68.5246 84.1361 68.5246 84.4136C68.5246 84.6912 68.2996 84.9161 68.0221 84.9161H65.5024C65.2249 84.9161 64.9999 84.6912 64.9999 84.4136ZM70.0393 84.4136C70.0393 84.1361 70.2643 83.9111 70.5418 83.9111H73.0615C73.339 83.9111 73.564 84.1361 73.564 84.4136C73.564 84.6912 73.339 84.9161 73.0615 84.9161H70.5418C70.2643 84.9161 70.0393 84.6912 70.0393 84.4136ZM75.0786 84.4136C75.0786 84.1361 75.3036 83.9111 75.5811 83.9111H78.1008C78.3783 83.9111 78.6033 84.1361 78.6033 84.4136C78.6033 84.6912 78.3783 84.9161 78.1008 84.9161H75.5811C75.3036 84.9161 75.0786 84.6912 75.0786 84.4136ZM80.118 84.4136C80.118 84.1361 80.343 83.9111 80.6205 83.9111H83.1402C83.4177 83.9111 83.6427 84.1361 83.6427 84.4136C83.6427 84.6912 83.4177 84.9161 83.1402 84.9161H80.6205C80.343 84.9161 80.118 84.6912 80.118 84.4136ZM85.1574 84.4136C85.1574 84.1361 85.3823 83.9111 85.6599 83.9111H88.1795C88.4571 83.9111 88.682 84.1361 88.682 84.4136C88.682 84.6912 88.4571 84.9161 88.1795 84.9161H85.6599C85.3823 84.9161 85.1574 84.6912 85.1574 84.4136ZM90.1967 84.4136C90.1967 84.1361 90.4217 83.9111 90.6992 83.9111H93.2189C93.4964 83.9111 93.7214 84.1361 93.7214 84.4136C93.7214 84.6912 93.4964 84.9161 93.2189 84.9161H90.6992C90.4217 84.9161 90.1967 84.6912 90.1967 84.4136ZM95.2361 84.4136C95.2361 84.1361 95.4611 83.9111 95.7386 83.9111H98.2583C98.5358 83.9111 98.7608 84.1361 98.7608 84.4136C98.7608 84.6912 98.5358 84.9161 98.2583 84.9161H95.7386C95.4611 84.9161 95.2361 84.6912 95.2361 84.4136ZM100.275 84.4136C100.275 84.1361 100.5 83.9111 100.778 83.9111H103.298C103.575 83.9111 103.8 84.1361 103.8 84.4136C103.8 84.6912 103.575 84.9161 103.298 84.9161H100.778C100.5 84.9161 100.275 84.6912 100.275 84.4136ZM105.315 84.4136C105.315 84.1361 105.54 83.9111 105.817 83.9111H108.337C108.614 83.9111 108.839 84.1361 108.839 84.4136C108.839 84.6912 108.614 84.9161 108.337 84.9161H105.817C105.54 84.9161 105.315 84.6912 105.315 84.4136ZM110.354 84.4136C110.354 84.1361 110.579 83.9111 110.857 83.9111H113.376C113.654 83.9111 113.879 84.1361 113.879 84.4136C113.879 84.6912 113.654 84.9161 113.376 84.9161H110.857C110.579 84.9161 110.354 84.6912 110.354 84.4136ZM115.394 84.4136C115.394 84.1361 115.618 83.9111 115.896 83.9111H118.416C118.693 83.9111 118.918 84.1361 118.918 84.4136C118.918 84.6912 118.693 84.9161 118.416 84.9161H115.896C115.618 84.9161 115.394 84.6912 115.394 84.4136ZM120.433 84.4136C120.433 84.1361 120.658 83.9111 120.935 83.9111H123.455C123.733 83.9111 123.958 84.1361 123.958 84.4136C123.958 84.6912 123.733 84.9161 123.455 84.9161H120.935C120.658 84.9161 120.433 84.6912 120.433 84.4136ZM125.472 84.4136C125.472 84.1361 125.697 83.9111 125.975 83.9111H128.494C128.772 83.9111 128.997 84.1361 128.997 84.4136C128.997 84.6912 128.772 84.9161 128.494 84.9161H125.975C125.697 84.9161 125.472 84.6912 125.472 84.4136ZM130.512 84.4136C130.512 84.1361 130.737 83.9111 131.014 83.9111H133.534C133.811 83.9111 134.036 84.1361 134.036 84.4136C134.036 84.6912 133.811 84.9161 133.534 84.9161H131.014C130.737 84.9161 130.512 84.6912 130.512 84.4136ZM135.551 84.4136C135.551 84.1361 135.776 83.9111 136.053 83.9111H138.573C138.851 83.9111 139.076 84.1361 139.076 84.4136C139.076 84.6912 138.851 84.9161 138.573 84.9161H136.053C135.776 84.9161 135.551 84.6912 135.551 84.4136ZM140.59 84.4136C140.59 84.1361 140.815 83.9111 141.093 83.9111H143.612C143.89 83.9111 144.115 84.1361 144.115 84.4136C144.115 84.6912 143.89 84.9161 143.612 84.9161H141.093C140.815 84.9161 140.59 84.6912 140.59 84.4136ZM145.63 84.4136C145.63 84.1361 145.855 83.9111 146.132 83.9111H148.652C148.929 83.9111 149.154 84.1361 149.154 84.4136C149.154 84.6912 148.929 84.9161 148.652 84.9161H146.132C145.855 84.9161 145.63 84.6912 145.63 84.4136ZM150.669 84.4136C150.669 84.1361 150.894 83.9111 151.172 83.9111H152.431C152.839 83.9111 153.229 83.9924 153.586 84.1401C153.842 84.2464 153.964 84.5404 153.857 84.7968C153.751 85.0531 153.457 85.1748 153.201 85.0685C152.964 84.9705 152.705 84.9161 152.431 84.9161H151.172C150.894 84.9161 150.669 84.6912 150.669 84.4136ZM44.4755 85.5002C44.7318 85.6065 44.8535 85.9005 44.7472 86.1569C44.6492 86.3932 44.5948 86.6527 44.5948 86.9261V88.091C44.5948 88.3686 44.3699 88.5935 44.0923 88.5935C43.8148 88.5935 43.5898 88.3686 43.5898 88.091V86.9261C43.5898 86.5183 43.6711 86.1281 43.8188 85.7719C43.9251 85.5155 44.2191 85.3939 44.4755 85.5002ZM154.561 85.5002C154.817 85.3939 155.111 85.5155 155.217 85.7719C155.365 86.1281 155.446 86.5183 155.446 86.9261V88.091C155.446 88.3686 155.221 88.5935 154.944 88.5935C154.666 88.5935 154.441 88.3686 154.441 88.091V86.9261C154.441 86.6527 154.387 86.3932 154.289 86.1569C154.183 85.9005 154.304 85.6065 154.561 85.5002ZM154.944 89.9184C155.221 89.9184 155.446 90.1434 155.446 90.4209V92.7507C155.446 93.0282 155.221 93.2532 154.944 93.2532C154.666 93.2532 154.441 93.0282 154.441 92.7507V90.4209C154.441 90.1434 154.666 89.9184 154.944 89.9184ZM44.0923 89.9184C44.3699 89.9184 44.5948 90.1434 44.5948 90.4209V92.7507C44.5948 93.0282 44.3699 93.2532 44.0923 93.2532C43.8148 93.2532 43.5898 93.0282 43.5898 92.7507V90.4209C43.5898 90.1434 43.8148 89.9184 44.0923 89.9184ZM44.0923 94.578C44.3699 94.578 44.5948 94.803 44.5948 95.0805V97.4104C44.5948 97.6879 44.3699 97.9129 44.0923 97.9129C43.8148 97.9129 43.5898 97.6879 43.5898 97.4104V95.0805C43.5898 94.803 43.8148 94.578 44.0923 94.578ZM154.944 94.578C155.221 94.578 155.446 94.803 155.446 95.0805V97.4104C155.446 97.6879 155.221 97.9129 154.944 97.9129C154.666 97.9129 154.441 97.6879 154.441 97.4104V95.0805C154.441 94.803 154.666 94.578 154.944 94.578ZM44.0923 99.2377C44.3699 99.2377 44.5948 99.4627 44.5948 99.7402V102.07C44.5948 102.348 44.3699 102.573 44.0923 102.573C43.8148 102.573 43.5898 102.348 43.5898 102.07V99.7402C43.5898 99.4627 43.8148 99.2377 44.0923 99.2377ZM154.944 99.2377C155.221 99.2377 155.446 99.4627 155.446 99.7402V102.07C155.446 102.348 155.221 102.573 154.944 102.573C154.666 102.573 154.441 102.348 154.441 102.07V99.7402C154.441 99.4627 154.666 99.2377 154.944 99.2377ZM154.944 103.897C155.221 103.897 155.446 104.122 155.446 104.4V106.73C155.446 107.007 155.221 107.232 154.944 107.232C154.666 107.232 154.441 107.007 154.441 106.73V104.4C154.441 104.122 154.666 103.897 154.944 103.897ZM44.0923 103.897C44.3699 103.897 44.5948 104.122 44.5948 104.4V106.73C44.5948 107.007 44.3699 107.232 44.0923 107.232C43.8148 107.232 43.5898 107.007 43.5898 106.73V104.4C43.5898 104.122 43.8148 103.897 44.0923 103.897ZM44.0923 108.557C44.3699 108.557 44.5948 108.782 44.5948 109.06V110.224C44.5948 110.498 44.6492 110.757 44.7472 110.994C44.8535 111.25 44.7318 111.544 44.4755 111.65C44.2191 111.757 43.9251 111.635 43.8188 111.379C43.6711 111.022 43.5898 110.632 43.5898 110.224V109.06C43.5898 108.782 43.8148 108.557 44.0923 108.557ZM154.944 108.557C155.221 108.557 155.446 108.782 155.446 109.06V110.224C155.446 110.632 155.365 111.022 155.217 111.379C155.111 111.635 154.817 111.757 154.561 111.65C154.304 111.544 154.183 111.25 154.289 110.994C154.387 110.757 154.441 110.498 154.441 110.224V109.06C154.441 108.782 154.666 108.557 154.944 108.557ZM45.1789 112.354C45.2852 112.097 45.5792 111.976 45.8356 112.082C46.0719 112.18 46.3314 112.234 46.6048 112.234H47.8647C48.1422 112.234 48.3672 112.459 48.3672 112.737C48.3672 113.014 48.1422 113.239 47.8647 113.239H46.6048C46.197 113.239 45.8068 113.158 45.4506 113.01C45.1942 112.904 45.0726 112.61 45.1789 112.354ZM153.857 112.354C153.964 112.61 153.842 112.904 153.586 113.01C153.229 113.158 152.839 113.239 152.431 113.239H151.172C150.894 113.239 150.669 113.014 150.669 112.737C150.669 112.459 150.894 112.234 151.172 112.234H152.431C152.705 112.234 152.964 112.18 153.201 112.082C153.457 111.976 153.751 112.097 153.857 112.354ZM49.8819 112.737C49.8819 112.459 50.1068 112.234 50.3844 112.234H52.904C53.1816 112.234 53.4065 112.459 53.4065 112.737C53.4065 113.014 53.1816 113.239 52.904 113.239H50.3844C50.1068 113.239 49.8819 113.014 49.8819 112.737ZM54.9212 112.737C54.9212 112.459 55.1462 112.234 55.4237 112.234H57.9434C58.2209 112.234 58.4459 112.459 58.4459 112.737C58.4459 113.014 58.2209 113.239 57.9434 113.239H55.4237C55.1462 113.239 54.9212 113.014 54.9212 112.737ZM59.9606 112.737C59.9606 112.459 60.1855 112.234 60.4631 112.234H62.9827C63.2603 112.234 63.4852 112.459 63.4852 112.737C63.4852 113.014 63.2603 113.239 62.9827 113.239H60.4631C60.1855 113.239 59.9606 113.014 59.9606 112.737ZM64.9999 112.737C64.9999 112.459 65.2249 112.234 65.5024 112.234H68.0221C68.2996 112.234 68.5246 112.459 68.5246 112.737C68.5246 113.014 68.2996 113.239 68.0221 113.239H65.5024C65.2249 113.239 64.9999 113.014 64.9999 112.737ZM70.0393 112.737C70.0393 112.459 70.2643 112.234 70.5418 112.234H73.0615C73.339 112.234 73.564 112.459 73.564 112.737C73.564 113.014 73.339 113.239 73.0615 113.239H70.5418C70.2643 113.239 70.0393 113.014 70.0393 112.737ZM75.0786 112.737C75.0786 112.459 75.3036 112.234 75.5811 112.234H78.1008C78.3783 112.234 78.6033 112.459 78.6033 112.737C78.6033 113.014 78.3783 113.239 78.1008 113.239H75.5811C75.3036 113.239 75.0786 113.014 75.0786 112.737ZM80.118 112.737C80.118 112.459 80.343 112.234 80.6205 112.234H83.1402C83.4177 112.234 83.6427 112.459 83.6427 112.737C83.6427 113.014 83.4177 113.239 83.1402 113.239H80.6205C80.343 113.239 80.118 113.014 80.118 112.737ZM85.1574 112.737C85.1574 112.459 85.3823 112.234 85.6599 112.234H88.1795C88.4571 112.234 88.682 112.459 88.682 112.737C88.682 113.014 88.4571 113.239 88.1795 113.239H85.6599C85.3823 113.239 85.1574 113.014 85.1574 112.737ZM90.1967 112.737C90.1967 112.459 90.4217 112.234 90.6992 112.234H93.2189C93.4964 112.234 93.7214 112.459 93.7214 112.737C93.7214 113.014 93.4964 113.239 93.2189 113.239H90.6992C90.4217 113.239 90.1967 113.014 90.1967 112.737ZM95.2361 112.737C95.2361 112.459 95.4611 112.234 95.7386 112.234H98.2583C98.5358 112.234 98.7608 112.459 98.7608 112.737C98.7608 113.014 98.5358 113.239 98.2583 113.239H95.7386C95.4611 113.239 95.2361 113.014 95.2361 112.737ZM100.275 112.737C100.275 112.459 100.5 112.234 100.778 112.234H103.298C103.575 112.234 103.8 112.459 103.8 112.737C103.8 113.014 103.575 113.239 103.298 113.239H100.778C100.5 113.239 100.275 113.014 100.275 112.737ZM105.315 112.737C105.315 112.459 105.54 112.234 105.817 112.234H108.337C108.614 112.234 108.839 112.459 108.839 112.737C108.839 113.014 108.614 113.239 108.337 113.239H105.817C105.54 113.239 105.315 113.014 105.315 112.737ZM110.354 112.737C110.354 112.459 110.579 112.234 110.857 112.234H113.376C113.654 112.234 113.879 112.459 113.879 112.737C113.879 113.014 113.654 113.239 113.376 113.239H110.857C110.579 113.239 110.354 113.014 110.354 112.737ZM115.394 112.737C115.394 112.459 115.618 112.234 115.896 112.234H118.416C118.693 112.234 118.918 112.459 118.918 112.737C118.918 113.014 118.693 113.239 118.416 113.239H115.896C115.618 113.239 115.394 113.014 115.394 112.737ZM120.433 112.737C120.433 112.459 120.658 112.234 120.935 112.234H123.455C123.733 112.234 123.958 112.459 123.958 112.737C123.958 113.014 123.733 113.239 123.455 113.239H120.935C120.658 113.239 120.433 113.014 120.433 112.737ZM125.472 112.737C125.472 112.459 125.697 112.234 125.975 112.234H128.494C128.772 112.234 128.997 112.459 128.997 112.737C128.997 113.014 128.772 113.239 128.494 113.239H125.975C125.697 113.239 125.472 113.014 125.472 112.737ZM130.512 112.737C130.512 112.459 130.737 112.234 131.014 112.234H133.534C133.811 112.234 134.036 112.459 134.036 112.737C134.036 113.014 133.811 113.239 133.534 113.239H131.014C130.737 113.239 130.512 113.014 130.512 112.737ZM135.551 112.737C135.551 112.459 135.776 112.234 136.053 112.234H138.573C138.851 112.234 139.076 112.459 139.076 112.737C139.076 113.014 138.851 113.239 138.573 113.239H136.053C135.776 113.239 135.551 113.014 135.551 112.737ZM140.59 112.737C140.59 112.459 140.815 112.234 141.093 112.234H143.612C143.89 112.234 144.115 112.459 144.115 112.737C144.115 113.014 143.89 113.239 143.612 113.239H141.093C140.815 113.239 140.59 113.014 140.59 112.737ZM145.63 112.737C145.63 112.459 145.855 112.234 146.132 112.234H148.652C148.929 112.234 149.154 112.459 149.154 112.737C149.154 113.014 148.929 113.239 148.652 113.239H146.132C145.855 113.239 145.63 113.014 145.63 112.737Z" fill="#CED7E2"/>
<path d="M43.9258 123.39C43.9258 122.003 45.0507 120.878 46.4383 120.878H152.265C153.652 120.878 154.777 122.003 154.777 123.39V146.689C154.777 148.076 153.652 149.201 152.265 149.201H46.4383C45.0507 149.201 43.9258 148.076 43.9258 146.689V123.39Z" fill="#E3EAF2"/>
<g filter="url(#filter1_d_1172_2045)">
<path d="M70.4415 125.611H24.8203C23.4567 125.611 22.4648 124.496 22.4648 123.258V94.6472C22.4648 93.2848 23.5806 92.2939 24.8203 92.2939H70.4415C71.8058 92.2939 72.797 93.4086 72.797 94.6472V123.258C72.797 124.62 71.6814 125.611 70.4415 125.611Z" fill="url(#paint3_linear_1172_2045)"/>
</g>
<path d="M47.6297 107.528C50.4368 107.528 52.7131 105.255 52.7131 102.45C52.7131 99.6456 50.4368 97.3721 47.6297 97.3721C44.8226 97.3721 42.5469 99.6456 42.5469 102.45C42.5469 105.255 44.8226 107.528 47.6297 107.528Z" fill="white"/>
<path d="M63.6234 113.473H31.7624C31.2664 113.473 30.8945 113.102 30.8945 112.606C30.8945 112.111 31.2664 111.739 31.7624 111.739H63.499C63.9952 111.739 64.3671 112.111 64.3671 112.606C64.4914 113.102 64.1196 113.473 63.6234 113.473Z" fill="white"/>
<path d="M63.6234 120.162H31.7624C31.2664 120.162 30.8945 119.79 30.8945 119.295C30.8945 118.799 31.2664 118.428 31.7624 118.428H63.499C63.9952 118.428 64.3671 118.799 64.3671 119.295C64.4914 119.79 64.1196 120.162 63.6234 120.162Z" fill="white"/>
<defs>
<filter id="filter0_d_1172_2045" x="32.1523" y="63.8389" width="138.953" height="103.133" filterUnits="userSpaceOnUse" color-interpolation-filters="sRGB">
<feFlood flood-opacity="0" result="BackgroundImageFix"/>
<feColorMatrix in="SourceAlpha" type="matrix" values="0 0 0 0 0 0 0 0 0 0 0 0 0 0 0 0 0 0 127 0" result="hardAlpha"/>
<feOffset dx="2" dy="4"/>
<feGaussianBlur stdDeviation="2"/>
<feComposite in2="hardAlpha" operator="out"/>
<feColorMatrix type="matrix" values="0 0 0 0 0.0666667 0 0 0 0 0.0941176 0 0 0 0 0.152941 0 0 0 0.08 0"/>
<feBlend mode="normal" in2="BackgroundImageFix" result="effect1_dropShadow_1172_2045"/>
<feBlend mode="normal" in="SourceGraphic" in2="effect1_dropShadow_1172_2045" result="shape"/>
</filter>
<filter id="filter1_d_1172_2045" x="14.4648" y="89.2939" width="66.332" height="49.3174" filterUnits="userSpaceOnUse" color-interpolation-filters="sRGB">
<feFlood flood-opacity="0" result="BackgroundImageFix"/>
<feColorMatrix in="SourceAlpha" type="matrix" values="0 0 0 0 0 0 0 0 0 0 0 0 0 0 0 0 0 0 127 0" result="hardAlpha"/>
<feOffset dy="5"/>
<feGaussianBlur stdDeviation="4"/>
<feColorMatrix type="matrix" values="0 0 0 0 0.1125 0 0 0 0 0.295916 0 0 0 0 1 0 0 0 0.22 0"/>
<feBlend mode="normal" in2="BackgroundImageFix" result="effect1_dropShadow_1172_2045"/>
<feBlend mode="normal" in="SourceGraphic" in2="effect1_dropShadow_1172_2045" result="shape"/>
</filter>
<linearGradient id="paint0_linear_1172_2045" x1="200.936" y1="60.6138" x2="152.873" y2="151.618" gradientUnits="userSpaceOnUse">
<stop stop-color="#21D4FD"/>
<stop offset="1" stop-color="#0283E9"/>
</linearGradient>
<linearGradient id="paint1_linear_1172_2045" x1="142.084" y1="30.1142" x2="146.959" y2="30.1142" gradientUnits="userSpaceOnUse">
<stop stop-color="#FF66A9"/>
<stop offset="1" stop-color="#F53689"/>
</linearGradient>
<linearGradient id="paint2_linear_1172_2045" x1="20.3044" y1="134.618" x2="25.1791" y2="134.618" gradientUnits="userSpaceOnUse">
<stop stop-color="#FF66A9"/>
<stop offset="1" stop-color="#F53689"/>
</linearGradient>
<linearGradient id="paint3_linear_1172_2045" x1="86.5684" y1="83.6522" x2="7.68619" y2="105.076" gradientUnits="userSpaceOnUse">
<stop stop-color="#21D4FD"/>
<stop offset="1" stop-color="#0283E9"/>
</linearGradient>
</defs>
</svg>
