<svg width="201" height="201" viewBox="0 0 201 201" fill="none" xmlns="http://www.w3.org/2000/svg">
<path d="M30.0585 60.1146C32.0374 59.4715 33.1202 57.3458 32.4769 55.3668C31.8338 53.3879 29.708 52.305 27.7291 52.9483C25.7502 53.5914 24.6674 55.7171 25.3105 57.6961C25.9538 59.6751 28.0794 60.7579 30.0585 60.1146Z" fill="#EAEEF9"/>
<path d="M35.9529 47.6142C37.2723 47.1853 37.9942 45.7683 37.5653 44.4489C37.1366 43.1296 35.7195 42.4078 34.4002 42.8366C33.0809 43.2655 32.3589 44.6825 32.7878 46.0018C33.2165 47.3212 34.6338 48.043 35.9529 47.6142Z" fill="#EAEEF9"/>
<path d="M181.572 68.8701C183.877 66.7639 184.038 63.1883 181.931 60.8836C179.826 58.5788 176.25 58.4178 173.945 60.524C171.64 62.6302 171.479 66.2058 173.586 68.5105C175.691 70.8153 179.267 70.9763 181.572 68.8701Z" fill="#EAEEF9"/>
<path d="M182.593 47.0801C183.619 46.144 183.69 44.5548 182.755 43.5305C181.818 42.5062 180.228 42.4346 179.204 43.3707C178.181 44.3067 178.108 45.896 179.045 46.9203C179.98 47.9445 181.57 48.0162 182.593 47.0801Z" fill="#EAEEF9"/>
<path d="M100.498 175.875C139.351 175.875 170.848 144.378 170.848 105.525C170.848 66.6716 139.351 35.1748 100.498 35.1748C61.6451 35.1748 30.1484 66.6716 30.1484 105.525C30.1484 144.378 61.6451 175.875 100.498 175.875Z" fill="#EAEEF9"/>
<path d="M62.6133 76.8514V84.6586V147.117C62.6133 150.008 64.9131 152.322 67.6443 152.322H168.267C171.141 152.322 173.297 150.008 173.297 147.117V84.6586V77.1404C173.297 74.1044 170.854 71.6465 167.834 71.6465H67.6443L62.6133 76.8514Z" fill="white"/>
<g filter="url(#filter0_d_1172_2008)">
<path d="M34.1523 69.9112V79.1643V152.9C34.1523 156.225 36.8835 158.972 40.1896 158.972H159.067C162.374 158.972 165.105 156.225 165.105 152.9V79.1643V70.2004C165.105 66.5859 162.23 63.8389 158.78 63.8389H40.1896L34.1523 69.9112Z" fill="white"/>
</g>
<path d="M126.15 76.2727H34.1523V69.9112C34.1523 66.5859 36.8835 63.8389 40.1896 63.8389H159.067C162.374 63.8389 165.105 66.5859 165.105 69.9112V76.2727H144.837H126.15Z" fill="url(#paint0_linear_1172_2008)"/>
<path d="M41.9148 72.3695C43.0263 72.3695 43.9272 71.4634 43.9272 70.3454C43.9272 69.2276 43.0263 68.3213 41.9148 68.3213C40.8034 68.3213 39.9023 69.2276 39.9023 70.3454C39.9023 71.4634 40.8034 72.3695 41.9148 72.3695Z" fill="white"/>
<path d="M47.6609 72.3695C48.7722 72.3695 49.6733 71.4634 49.6733 70.3454C49.6733 69.2276 48.7722 68.3213 47.6609 68.3213C46.5494 68.3213 45.6484 69.2276 45.6484 70.3454C45.6484 71.4634 46.5494 72.3695 47.6609 72.3695Z" fill="white"/>
<path d="M53.5554 72.3695C54.6669 72.3695 55.5678 71.4634 55.5678 70.3454C55.5678 69.2276 54.6669 68.3213 53.5554 68.3213C52.4439 68.3213 51.543 69.2276 51.543 70.3454C51.543 71.4634 52.4439 72.3695 53.5554 72.3695Z" fill="white"/>
<path d="M94.093 111.984L70.6625 111.839C69.6562 111.839 68.9375 110.972 68.9375 110.104C68.9375 109.092 69.8 108.369 70.6625 108.369L94.093 108.514C95.0993 108.514 95.818 109.381 95.818 110.249C95.818 111.116 95.0993 111.984 94.093 111.984Z" fill="#E3EAF2"/>
<path d="M149.722 111.984L122.698 111.839C121.691 111.839 120.973 110.972 120.973 110.104C120.973 109.092 121.835 108.369 122.698 108.369L149.578 108.514C150.584 108.514 151.303 109.381 151.303 110.249C151.447 111.116 150.728 111.984 149.722 111.984Z" fill="#E3EAF2"/>
<path d="M131.753 145.96L104.729 145.816C103.723 145.816 103.004 144.948 103.004 144.081C103.004 143.068 103.866 142.346 104.729 142.346L131.753 142.49C132.759 142.49 133.478 143.358 133.478 144.225C133.478 145.237 132.616 145.96 131.753 145.96Z" fill="url(#paint1_linear_1172_2008)"/>
<path d="M115.079 111.839L101.998 111.695C100.992 111.695 100.273 110.827 100.273 109.96C100.273 108.948 101.136 108.225 101.998 108.225L115.079 108.369C116.085 108.369 116.804 109.237 116.804 110.104C116.948 111.116 116.085 111.839 115.079 111.839Z" fill="url(#paint2_linear_1172_2008)"/>
<path d="M61.3168 111.695H51.6858C50.6795 111.695 49.9609 110.827 49.9609 109.96C49.9609 108.948 50.6795 108.225 51.6858 108.225H61.3168C62.3229 108.225 63.0417 109.092 63.0417 109.96C63.0417 110.972 62.3229 111.695 61.3168 111.695Z" fill="url(#paint3_linear_1172_2008)"/>
<path d="M98.691 123.261L84.6039 123.116C83.5976 123.116 82.8789 122.249 82.8789 121.381C82.8789 120.369 83.7414 119.646 84.6039 119.646L98.691 119.791C99.6973 119.791 100.416 120.658 100.416 121.526C100.56 122.394 99.6973 123.261 98.691 123.261Z" fill="url(#paint4_linear_1172_2008)"/>
<path d="M142.393 123.55L106.6 123.116C105.594 123.116 104.875 122.249 104.875 121.381C104.875 120.369 105.738 119.646 106.6 119.646L142.393 120.08C143.399 120.08 144.118 120.948 144.118 121.815C144.118 122.683 143.255 123.55 142.393 123.55Z" fill="#E3EAF2"/>
<path d="M75.2602 123.116H51.6858C50.6795 123.116 49.9609 122.249 49.9609 121.381C49.9609 120.369 50.8233 119.646 51.6858 119.646H75.2602C76.2663 119.646 76.9851 120.514 76.9851 121.381C76.9851 122.249 76.2663 123.116 75.2602 123.116Z" fill="#E3EAF2"/>
<path d="M117.234 134.538L84.6039 134.394C83.5976 134.394 82.8789 133.526 82.8789 132.659C82.8789 131.647 83.7414 130.924 84.6039 130.924L117.378 131.068C118.384 131.068 119.103 131.936 119.103 132.803C119.103 133.815 118.24 134.538 117.234 134.538Z" fill="url(#paint5_linear_1172_2008)"/>
<path d="M75.2602 134.394H51.6858C50.6795 134.394 49.9609 133.526 49.9609 132.659C49.9609 131.647 50.8233 130.924 51.6858 130.924H75.2602C76.2663 130.924 76.9851 131.791 76.9851 132.659C76.9851 133.526 76.2663 134.394 75.2602 134.394Z" fill="#E3EAF2"/>
<path d="M95.6738 145.816L77.7055 145.671C76.6992 145.671 75.9805 144.803 75.9805 143.936C75.9805 142.924 76.843 142.201 77.7055 142.201L95.6738 142.346C96.6799 142.346 97.3986 143.213 97.3986 144.081C97.3986 145.093 96.6799 145.816 95.6738 145.816Z" fill="#E3EAF2"/>
<path d="M66.2042 145.671H51.6858C50.6795 145.671 49.9609 144.803 49.9609 143.936C49.9609 142.924 50.8233 142.201 51.6858 142.201H66.2042C67.2103 142.201 67.929 143.069 67.929 143.936C68.0728 144.948 67.2103 145.671 66.2042 145.671Z" fill="url(#paint6_linear_1172_2008)"/>
<path d="M117.809 94.4895L51.6858 94.2003C50.6795 94.2003 49.9609 93.3328 49.9609 92.4654C49.9609 91.4533 50.8233 90.7305 51.6858 90.7305L117.809 91.0196C118.815 91.0196 119.534 91.887 119.534 92.7546C119.534 93.7665 118.815 94.4895 117.809 94.4895Z" fill="#1C3754"/>
<path d="M179.061 154.857C176.161 169.063 162.103 178.34 147.899 175.296C133.694 172.397 124.418 158.336 127.462 144.13C130.36 129.924 144.42 120.647 158.624 123.691C163.697 124.706 168.336 127.17 171.959 130.939C178.191 137.172 180.945 146.16 179.061 154.857Z" fill="url(#paint7_linear_1172_2008)"/>
<path d="M143.293 150.642C143.293 150.642 155.806 164.929 162.274 171.435C162.274 171.435 167.159 168.824 169.875 166.169C172.468 163.636 174.278 160.326 174.278 160.326L163.275 149.082H151.651L143.293 150.642Z" fill="url(#paint8_linear_1172_2008)"/>
<path fill-rule="evenodd" clip-rule="evenodd" d="M153.263 139.13C154.303 139.13 155.147 139.974 155.147 141.014V147.61H161.742C162.783 147.61 163.627 148.453 163.627 149.494C163.627 150.535 162.783 151.378 161.742 151.378H155.147V157.974C155.147 159.014 154.303 159.858 153.263 159.858C152.222 159.858 151.378 159.014 151.378 157.974V151.378H144.783C143.742 151.378 142.898 150.535 142.898 149.494C142.898 148.453 143.742 147.61 144.783 147.61H151.378V141.014C151.378 139.974 152.222 139.13 153.263 139.13Z" fill="url(#paint9_linear_1172_2008)"/>
<path d="M144.469 32.6627C145.857 32.6627 146.982 31.5379 146.982 30.1502C146.982 28.7627 145.857 27.6377 144.469 27.6377C143.082 27.6377 141.957 28.7627 141.957 30.1502C141.957 31.5379 143.082 32.6627 144.469 32.6627Z" fill="url(#paint10_linear_1172_2008)"/>
<path d="M22.6922 137.144C24.0798 137.144 25.2047 136.019 25.2047 134.632C25.2047 133.244 24.0798 132.119 22.6922 132.119C21.3046 132.119 20.1797 133.244 20.1797 134.632C20.1797 136.019 21.3046 137.144 22.6922 137.144Z" fill="url(#paint11_linear_1172_2008)"/>
<defs>
<filter id="filter0_d_1172_2008" x="32.1523" y="63.8389" width="138.953" height="103.133" filterUnits="userSpaceOnUse" color-interpolation-filters="sRGB">
<feFlood flood-opacity="0" result="BackgroundImageFix"/>
<feColorMatrix in="SourceAlpha" type="matrix" values="0 0 0 0 0 0 0 0 0 0 0 0 0 0 0 0 0 0 127 0" result="hardAlpha"/>
<feOffset dx="2" dy="4"/>
<feGaussianBlur stdDeviation="2"/>
<feComposite in2="hardAlpha" operator="out"/>
<feColorMatrix type="matrix" values="0 0 0 0 0.0666667 0 0 0 0 0.0941176 0 0 0 0 0.152941 0 0 0 0.08 0"/>
<feBlend mode="normal" in2="BackgroundImageFix" result="effect1_dropShadow_1172_2008"/>
<feBlend mode="normal" in="SourceGraphic" in2="effect1_dropShadow_1172_2008" result="shape"/>
</filter>
<linearGradient id="paint0_linear_1172_2008" x1="200.936" y1="60.6138" x2="152.873" y2="151.618" gradientUnits="userSpaceOnUse">
<stop stop-color="#21D4FD"/>
<stop offset="1" stop-color="#0283E9"/>
</linearGradient>
<linearGradient id="paint1_linear_1172_2008" x1="102.997" y1="144.11" x2="133.478" y2="144.11" gradientUnits="userSpaceOnUse">
<stop stop-color="#FF66A9"/>
<stop offset="1" stop-color="#F53689"/>
</linearGradient>
<linearGradient id="paint2_linear_1172_2008" x1="100.29" y1="110.048" x2="116.896" y2="110.048" gradientUnits="userSpaceOnUse">
<stop stop-color="#83A6FF"/>
<stop offset="1" stop-color="#5A78FF"/>
</linearGradient>
<linearGradient id="paint3_linear_1172_2008" x1="49.9366" y1="109.907" x2="63.0924" y2="109.907" gradientUnits="userSpaceOnUse">
<stop stop-color="#83A6FF"/>
<stop offset="1" stop-color="#5A78FF"/>
</linearGradient>
<linearGradient id="paint4_linear_1172_2008" x1="82.8856" y1="121.389" x2="100.502" y2="121.389" gradientUnits="userSpaceOnUse">
<stop stop-color="#FF66A9"/>
<stop offset="1" stop-color="#F53689"/>
</linearGradient>
<linearGradient id="paint5_linear_1172_2008" x1="82.8886" y1="132.719" x2="119.067" y2="132.719" gradientUnits="userSpaceOnUse">
<stop stop-color="#83A6FF"/>
<stop offset="1" stop-color="#5A78FF"/>
</linearGradient>
<linearGradient id="paint6_linear_1172_2008" x1="49.9465" y1="143.883" x2="68.0188" y2="143.883" gradientUnits="userSpaceOnUse">
<stop stop-color="#FF66A9"/>
<stop offset="1" stop-color="#F53689"/>
</linearGradient>
<linearGradient id="paint7_linear_1172_2008" x1="194.082" y1="109.427" x2="108.071" y2="124.89" gradientUnits="userSpaceOnUse">
<stop stop-color="#21D4FD"/>
<stop offset="1" stop-color="#0283E9"/>
</linearGradient>
<linearGradient id="paint8_linear_1172_2008" x1="156.481" y1="149.082" x2="167.246" y2="162.79" gradientUnits="userSpaceOnUse">
<stop stop-color="#4F6AFF"/>
<stop offset="1" stop-color="#657EFF" stop-opacity="0"/>
</linearGradient>
<linearGradient id="paint9_linear_1172_2008" x1="158.939" y1="155.442" x2="142.493" y2="142.965" gradientUnits="userSpaceOnUse">
<stop offset="0.0113208" stop-color="#C2D1FF"/>
<stop offset="1" stop-color="white"/>
</linearGradient>
<linearGradient id="paint10_linear_1172_2008" x1="142.084" y1="30.1142" x2="146.959" y2="30.1142" gradientUnits="userSpaceOnUse">
<stop stop-color="#FF66A9"/>
<stop offset="1" stop-color="#F53689"/>
</linearGradient>
<linearGradient id="paint11_linear_1172_2008" x1="20.3044" y1="134.618" x2="25.1791" y2="134.618" gradientUnits="userSpaceOnUse">
<stop stop-color="#FF66A9"/>
<stop offset="1" stop-color="#F53689"/>
</linearGradient>
</defs>
</svg>
