<svg width="201" height="201" viewBox="0 0 201 201" fill="none" xmlns="http://www.w3.org/2000/svg">
<path d="M30.0585 60.1146C32.0374 59.4715 33.1202 57.3458 32.4769 55.3668C31.8338 53.3879 29.708 52.305 27.7291 52.9483C25.7502 53.5914 24.6674 55.7171 25.3105 57.6961C25.9538 59.6751 28.0794 60.7579 30.0585 60.1146Z" fill="#EAEEF9"/>
<path d="M35.9529 47.6142C37.2723 47.1853 37.9942 45.7683 37.5653 44.4489C37.1366 43.1296 35.7195 42.4078 34.4002 42.8366C33.0809 43.2655 32.3589 44.6825 32.7878 46.0018C33.2165 47.3212 34.6338 48.043 35.9529 47.6142Z" fill="#EAEEF9"/>
<path d="M181.572 68.8701C183.877 66.7639 184.038 63.1883 181.931 60.8836C179.826 58.5788 176.25 58.4178 173.945 60.524C171.64 62.6302 171.479 66.2058 173.586 68.5105C175.691 70.8153 179.267 70.9763 181.572 68.8701Z" fill="#EAEEF9"/>
<path d="M182.593 47.0801C183.619 46.144 183.69 44.5548 182.755 43.5305C181.818 42.5062 180.228 42.4346 179.204 43.3707C178.181 44.3067 178.108 45.896 179.045 46.9203C179.98 47.9445 181.57 48.0162 182.593 47.0801Z" fill="#EAEEF9"/>
<path d="M100.498 175.875C139.351 175.875 170.848 144.378 170.848 105.525C170.848 66.6716 139.351 35.1748 100.498 35.1748C61.6451 35.1748 30.1484 66.6716 30.1484 105.525C30.1484 144.378 61.6451 175.875 100.498 175.875Z" fill="#EAEEF9"/>
<path d="M62.6133 76.8514V84.6586V147.117C62.6133 150.008 64.9131 152.322 67.6443 152.322H168.267C171.141 152.322 173.297 150.008 173.297 147.117V84.6586V77.1404C173.297 74.1044 170.854 71.6465 167.834 71.6465H67.6443L62.6133 76.8514Z" fill="white"/>
<g filter="url(#filter0_d_1172_2072)">
<path d="M34.1523 69.9112V79.1643V152.9C34.1523 156.225 36.8835 158.972 40.1896 158.972H159.067C162.374 158.972 165.105 156.225 165.105 152.9V79.1643V70.2004C165.105 66.5859 162.23 63.8389 158.78 63.8389H40.1896L34.1523 69.9112Z" fill="white"/>
</g>
<path d="M126.15 76.2727H34.1523V69.9112C34.1523 66.5859 36.8835 63.8389 40.1896 63.8389H159.067C162.374 63.8389 165.105 66.5859 165.105 69.9112V76.2727H144.837H126.15Z" fill="url(#paint0_linear_1172_2072)"/>
<path d="M41.9148 72.3695C43.0263 72.3695 43.9272 71.4634 43.9272 70.3454C43.9272 69.2276 43.0263 68.3213 41.9148 68.3213C40.8034 68.3213 39.9023 69.2276 39.9023 70.3454C39.9023 71.4634 40.8034 72.3695 41.9148 72.3695Z" fill="white"/>
<path d="M47.6609 72.3695C48.7722 72.3695 49.6733 71.4634 49.6733 70.3454C49.6733 69.2276 48.7722 68.3213 47.6609 68.3213C46.5494 68.3213 45.6484 69.2276 45.6484 70.3454C45.6484 71.4634 46.5494 72.3695 47.6609 72.3695Z" fill="white"/>
<path d="M53.5554 72.3695C54.6669 72.3695 55.5678 71.4634 55.5678 70.3454C55.5678 69.2276 54.6669 68.3213 53.5554 68.3213C52.4439 68.3213 51.543 69.2276 51.543 70.3454C51.543 71.4634 52.4439 72.3695 53.5554 72.3695Z" fill="white"/>
<path d="M144.469 32.6627C145.857 32.6627 146.982 31.5379 146.982 30.1502C146.982 28.7627 145.857 27.6377 144.469 27.6377C143.082 27.6377 141.957 28.7627 141.957 30.1502C141.957 31.5379 143.082 32.6627 144.469 32.6627Z" fill="url(#paint1_linear_1172_2072)"/>
<path d="M22.6922 137.144C24.0798 137.144 25.2047 136.019 25.2047 134.632C25.2047 133.244 24.0798 132.119 22.6922 132.119C21.3046 132.119 20.1797 133.244 20.1797 134.632C20.1797 136.019 21.3046 137.144 22.6922 137.144Z" fill="url(#paint2_linear_1172_2072)"/>
<path d="M126.295 124.063C123.396 138.269 109.338 147.546 95.1329 144.502C80.9285 141.603 71.6521 127.542 74.696 113.336C77.5947 99.1299 91.6541 89.8531 105.858 92.8972C110.931 93.912 115.57 96.3762 119.194 100.145C125.426 106.378 128.18 115.366 126.295 124.063Z" fill="url(#paint3_linear_1172_2072)"/>
<path d="M95.5391 126.005C95.5391 126.005 103.186 134.137 109.655 140.643C109.655 140.643 115.696 136.636 118.412 133.981C121.005 131.448 123.624 124.955 123.624 124.955L111.089 110.32L101.265 120.375L95.5391 126.005Z" fill="url(#paint4_linear_1172_2072)"/>
<g clip-path="url(#clip0_1172_2072)">
<path fill-rule="evenodd" clip-rule="evenodd" d="M111.107 110.03C112.036 111.011 112.036 112.602 111.107 113.583L99.2054 126.146C98.2759 127.127 96.7688 127.127 95.8392 126.146L89.8886 119.864C88.959 118.883 88.959 117.292 89.8886 116.311C90.8181 115.33 92.3252 115.33 93.2548 116.311L97.5223 120.816L107.741 110.03C108.67 109.049 110.177 109.049 111.107 110.03Z" fill="url(#paint5_linear_1172_2072)"/>
</g>
<defs>
<filter id="filter0_d_1172_2072" x="32.1523" y="63.8389" width="138.953" height="103.133" filterUnits="userSpaceOnUse" color-interpolation-filters="sRGB">
<feFlood flood-opacity="0" result="BackgroundImageFix"/>
<feColorMatrix in="SourceAlpha" type="matrix" values="0 0 0 0 0 0 0 0 0 0 0 0 0 0 0 0 0 0 127 0" result="hardAlpha"/>
<feOffset dx="2" dy="4"/>
<feGaussianBlur stdDeviation="2"/>
<feComposite in2="hardAlpha" operator="out"/>
<feColorMatrix type="matrix" values="0 0 0 0 0.0666667 0 0 0 0 0.0941176 0 0 0 0 0.152941 0 0 0 0.08 0"/>
<feBlend mode="normal" in2="BackgroundImageFix" result="effect1_dropShadow_1172_2072"/>
<feBlend mode="normal" in="SourceGraphic" in2="effect1_dropShadow_1172_2072" result="shape"/>
</filter>
<linearGradient id="paint0_linear_1172_2072" x1="200.936" y1="60.6138" x2="152.873" y2="151.618" gradientUnits="userSpaceOnUse">
<stop stop-color="#21D4FD"/>
<stop offset="1" stop-color="#0283E9"/>
</linearGradient>
<linearGradient id="paint1_linear_1172_2072" x1="142.084" y1="30.1142" x2="146.959" y2="30.1142" gradientUnits="userSpaceOnUse">
<stop stop-color="#FF66A9"/>
<stop offset="1" stop-color="#F53689"/>
</linearGradient>
<linearGradient id="paint2_linear_1172_2072" x1="20.3044" y1="134.618" x2="25.1791" y2="134.618" gradientUnits="userSpaceOnUse">
<stop stop-color="#FF66A9"/>
<stop offset="1" stop-color="#F53689"/>
</linearGradient>
<linearGradient id="paint3_linear_1172_2072" x1="141.316" y1="78.6328" x2="55.3054" y2="94.0958" gradientUnits="userSpaceOnUse">
<stop stop-color="#21D4FD"/>
<stop offset="1" stop-color="#0283E9"/>
</linearGradient>
<linearGradient id="paint4_linear_1172_2072" x1="103.715" y1="118.288" x2="114.481" y2="131.996" gradientUnits="userSpaceOnUse">
<stop stop-color="#4F6AFF"/>
<stop offset="1" stop-color="#657EFF" stop-opacity="0"/>
</linearGradient>
<linearGradient id="paint5_linear_1172_2072" x1="106.69" y1="123.135" x2="92.2046" y2="109.005" gradientUnits="userSpaceOnUse">
<stop offset="0.0113208" stop-color="#C2D1FF"/>
<stop offset="1" stop-color="white"/>
</linearGradient>
<clipPath id="clip0_1172_2072">
<rect width="22.6125" height="22.6125" fill="white" transform="translate(89.1914 106.781)"/>
</clipPath>
</defs>
</svg>
