<svg width="18" height="18" viewBox="0 0 18 18" fill="none" xmlns="http://www.w3.org/2000/svg">
<path d="M8.20218 11.185H9.69351V12.6763H8.20218V11.185ZM8.20218 5.21965H9.69351V9.69363H8.20218V5.21965ZM8.94039 1.49133C4.82433 1.49133 1.49121 4.8319 1.49121 8.94797C1.49121 13.064 4.82433 16.4046 8.94039 16.4046C13.0639 16.4046 16.4045 13.064 16.4045 8.94797C16.4045 4.8319 13.0639 1.49133 8.94039 1.49133ZM8.94784 14.9133C5.65201 14.9133 2.98254 12.2438 2.98254 8.94797C2.98254 5.65213 5.65201 2.98266 8.94784 2.98266C12.2437 2.98266 14.9131 5.65213 14.9131 8.94797C14.9131 12.2438 12.2437 14.9133 8.94784 14.9133Z" fill="white"/>
</svg>
