<svg width="19" height="19" viewBox="0 0 19 19" fill="none" xmlns="http://www.w3.org/2000/svg">
<path d="M10.1945 2.86814C10.4478 2.61487 10.775 2.4486 11.1289 2.39331C11.4828 2.33802 11.8451 2.39657 12.1636 2.56052C12.4821 2.72447 12.7402 2.98535 12.9008 3.30551C13.0615 3.62568 13.1162 3.98859 13.0573 4.34189L12.635 6.87539C13.6056 6.91036 14.5248 7.32052 15.199 8.01954C15.8733 8.71857 16.25 9.65193 16.25 10.6231V12.1231C16.25 13.1177 15.8549 14.0715 15.1517 14.7748C14.4484 15.4781 13.4946 15.8731 12.5 15.8731H5C4.40326 15.8731 3.83097 15.6361 3.40901 15.2141C2.98705 14.7922 2.75 14.2199 2.75 13.6231V9.12314C2.75 8.52641 2.98705 7.95411 3.40901 7.53215C3.83097 7.1102 4.40326 6.87314 5 6.87314H6.1895L10.1945 2.86814ZM5.75 8.37314H5C4.80109 8.37314 4.61032 8.45216 4.46967 8.59281C4.32902 8.73347 4.25 8.92423 4.25 9.12314V13.6231C4.25 13.8221 4.32902 14.0128 4.46967 14.1535C4.61032 14.2941 4.80109 14.3731 5 14.3731H5.75V8.37314ZM7.25 14.3731H12.5C13.0967 14.3731 13.669 14.1361 14.091 13.7141C14.5129 13.2922 14.75 12.7199 14.75 12.1231V10.6231C14.75 10.0264 14.5129 9.45411 14.091 9.03215C13.669 8.6102 13.0967 8.37314 12.5 8.37314H10.25C10.0511 8.37314 9.86032 8.29413 9.71967 8.15347C9.57902 8.01282 9.5 7.82206 9.5 7.62314C9.5 7.42423 9.57902 7.23347 9.71967 7.09281C9.86032 6.95216 10.0511 6.87314 10.25 6.87314H11.1147L11.5775 4.09514C11.5842 4.05531 11.5781 4.01438 11.5601 3.97824C11.542 3.9421 11.513 3.91264 11.4771 3.89411C11.4412 3.87558 11.4003 3.86894 11.3604 3.87515C11.3205 3.88135 11.2836 3.90009 11.255 3.92864L7.25 7.93364V14.3731Z" fill="#849AA9"/>
</svg>
