<svg width="20" height="20" viewBox="0 0 20 20" fill="none" xmlns="http://www.w3.org/2000/svg">
<path fill-rule="evenodd" clip-rule="evenodd" d="M1.09835 1.09835C0 2.1967 0 3.96447 0 7.5V12.5C0 16.0355 0 17.8033 1.09835 18.9017C2.1967 20 3.96447 20 7.5 20H12.5C16.0355 20 17.8033 20 18.9017 18.9017C20 17.8033 20 16.0355 20 12.5V7.5C20 3.96447 20 2.1967 18.9017 1.09835C17.8033 0 16.0355 0 12.5 0H7.5C3.96447 0 2.1967 0 1.09835 1.09835ZM4.9918 6.26519C4.16833 6.26519 3.5 5.59002 3.5 4.7576C3.5 3.92517 4.16833 3.25 4.9918 3.25C5.81528 3.25 6.48361 3.92517 6.48361 4.7576C6.48361 5.59002 5.81613 6.26519 4.9918 6.26519ZM3.71311 16.75V7.34889H6.27049V16.75H3.71311ZM13.9426 16.75H16.5V10.9734C16.5 6.48398 11.7237 6.64722 10.5328 8.85734V7.34889H7.97541V16.75H10.5328V11.9606C10.5328 9.30004 13.9426 9.08211 13.9426 11.9606V16.75Z" fill="white"/>
</svg>
