<svg width="144" height="31" viewBox="0 0 144 31" fill="none" xmlns="http://www.w3.org/2000/svg">
<g clip-path="url(#clip0_221_3229)">
<path d="M12.8216 0V3.73252C11.7666 3.92506 10.7136 4.05022 9.71011 4.33134C6.89238 5.12174 5.05798 6.93745 4.33109 9.59748C3.99591 10.823 4.06759 12.1622 4.06254 13.4484C4.05042 16.2557 4.10797 19.0631 4.13624 21.8704C4.13624 22.0928 4.13624 22.3152 4.13624 22.6223H0.14235L0 19.0689V12.3615C0.0343256 11.8224 0.0615842 11.2823 0.100958 10.7441C0.14235 10.2213 0.133264 9.68509 0.26249 9.17869C1.39826 4.77997 4.22104 1.86866 8.82067 0.590155C9.82621 0.31 10.8812 0.192547 11.913 0H12.8216Z" fill="#F0FBFF"/>
<path d="M124.45 31H120.442V29.0351C120.442 25.5326 120.422 22.0302 120.449 18.5288C120.466 16.1633 120.512 13.7969 120.61 11.4334C120.726 8.61454 122.115 6.35115 124.308 4.55277C127.127 2.24221 130.423 1.3228 134.147 1.73774C136.764 2.02656 139.058 2.95463 140.931 4.70295C143.084 6.71314 144.036 9.21721 143.999 12.063C143.966 14.621 143.292 16.9874 141.556 19.0092C139.68 21.1984 137.215 22.449 134.331 22.9727C133.335 23.1537 132.305 23.1653 131.245 23.2616V19.4106C131.969 19.3586 132.698 19.3721 133.398 19.2441C136.303 18.7098 138.597 17.3927 139.551 14.5652C140.257 12.4818 140.126 10.4254 138.929 8.51249C137.851 6.77957 136.192 5.87267 134.116 5.6291C132.536 5.43656 130.966 5.36339 129.451 5.99398C127.777 6.69003 126.368 7.66817 125.413 9.18833C124.861 10.0715 124.57 11.0804 124.571 12.1083C124.514 17.1444 124.485 22.1794 124.45 27.2155C124.443 28.4594 124.45 29.7032 124.45 31Z" fill="#F0FBFF"/>
<path d="M16.0523 12.2142C16.0523 6.45896 20.9538 1.7512 26.9557 1.74734C33.108 1.74734 38.0459 6.4243 38.0418 12.2565C38.0418 17.9925 33.0757 22.6762 27.0102 22.6685C25.5705 22.6695 24.1446 22.3998 22.8144 21.8747C21.4841 21.3496 20.2754 20.5795 19.2576 19.6085C18.2398 18.6374 17.4328 17.4845 16.8828 16.2157C16.3327 14.9469 16.0505 13.5871 16.0523 12.2142ZM20.0906 12.2045C20.1027 15.9265 23.194 18.8474 27.1081 18.831C30.8951 18.8176 34.0177 15.8283 34.0146 12.2209C34.0146 8.54135 30.8658 5.57806 26.9739 5.5848C23.1879 5.59154 20.0724 8.58756 20.0845 12.2045H20.0906Z" fill="#F0FBFF"/>
<path d="M112.889 1.63666H116.909V11.676C116.922 17.179 113.14 21.4959 107.44 22.4952C102.223 23.4117 96.7387 20.5486 94.8134 15.9111C94.3351 14.7829 94.0824 13.5793 94.0684 12.3625C94.0492 8.90818 94.0613 5.45293 94.0623 1.99865C94.0623 1.90237 94.0744 1.8061 94.0825 1.63666H98.1309V2.22296C98.0946 5.43753 98.1511 8.65305 98.0804 11.8667C98.0017 15.4211 100.884 18.5172 105.012 18.7983C108.738 19.0535 112.11 16.7025 112.769 13.0807C112.922 12.2383 112.893 11.3603 112.897 10.4986C112.907 7.76349 112.897 5.02837 112.889 2.2942V1.63666Z" fill="#F0FBFF"/>
<path d="M41.1674 1.29166H45.2007V1.86159C45.2007 5.1397 45.2643 8.41877 45.1825 11.694C45.1048 14.845 47.766 17.9277 51.5429 18.3542C54.8018 18.7229 57.3166 17.5618 59.0228 14.8883C59.6388 13.912 59.9567 12.791 59.9405 11.6516V1.91454V1.29166H63.9788V2.77138C63.9576 5.71349 63.9596 8.6556 63.9576 11.5977C63.9576 17.1122 59.5417 21.7757 53.771 22.2234C48.7514 22.6085 44.8867 20.7215 42.3537 16.5433C41.5725 15.2664 41.1588 13.8154 41.1543 12.3371C41.1361 8.77498 41.1452 5.20613 41.1442 1.64113C41.1442 1.54582 41.1674 1.29166 41.1674 1.29166Z" fill="#F0FBFF"/>
<path d="M90.66 22.528H86.6519C86.6418 22.3826 86.6277 22.2594 86.6277 22.1361C86.6277 18.9366 86.6277 15.7378 86.6277 12.5396C86.6277 8.77821 84.0684 5.89675 80.1482 5.44331C76.1372 4.98216 72.6239 7.45927 71.9475 10.9213C71.8745 11.3473 71.8424 11.7788 71.8515 12.2104C71.8435 15.4727 71.8435 18.7358 71.8515 21.9994C71.8515 22.4288 71.7506 22.5838 71.268 22.5665C70.2584 22.5299 69.2489 22.5491 68.2393 22.5597C67.9586 22.5597 67.8052 22.5135 67.8062 22.1968C67.8183 18.6626 67.7628 15.1265 67.8395 11.5932C67.9091 8.44799 69.4154 5.93141 71.9525 3.96647C76.5168 0.437094 83.3607 0.807746 87.4576 4.81368C89.5636 6.87393 90.6327 9.37318 90.6539 12.2489C90.6791 15.4634 90.66 18.679 90.66 21.8935V22.528Z" fill="#F0FBFF"/>
</g>
<defs>
<clipPath id="clip0_221_3229">
<rect width="144" height="31" fill="white"/>
</clipPath>
</defs>
</svg>
