<svg xmlns="http://www.w3.org/2000/svg" width="1426.239" height="322.53" viewBox="0 0 1426.239 322.53">
  <defs>
    <style>
      .cls-1, .cls-4 {
        fill: none;
      }

      .cls-1, .cls-2 {
        stroke: #009ddd;
      }

      .cls-1 {
        stroke-width: 40px;
      }

      .cls-2 {
        fill: #009ddd;
        stroke-width: 21px;
      }

      .cls-3 {
        stroke: none;
      }
    </style>
  </defs>
  <g id="Group_1" data-name="Group 1" transform="translate(-2136.258 -1505.791)">
    <path id="Path_2" data-name="Path 2" class="cls-1" d="M107.652-5.426S74.919-5.4,48.9,9.855C42.161,13.8,31.628,20.437,20.137,35.894s-15.1,27.16-17.2,35.788C-1.511,89.909,1.456,211.148,1.456,211.148" transform="translate(2155.93 1531.218)"/>
    <path id="Path_6" data-name="Path 6" class="cls-2" d="M-4.256,275.339c-.188-7.653.113-39.306,0-76.428C-4.415,146.6-4.662,84.163-1.948,73.031-.017,62.3,2.875,50.753,15.592,33.649c12.1-16.281,24.475-23.493,31.866-27.8,18.351-10.754,36.093-15.7,53.7-15.271l1.013,18.935L100.7,9.495c-14.036-.343-28.4,3.733-42.7,12.114-7.544,4.4-17.423,10.158-27.217,23.331C20.47,58.8,18.309,67.3,16.555,76.963,13.416,89.9,12.9,205.973,14.611,275.339Z" transform="translate(3344.512 1542.483)"/>
    <path id="Path_7" data-name="Path 7" class="cls-2" d="M105.072,107.791a117.506,117.506,0,0,1-30.5-4.162C19.972,89,.062,34.971,0,2.225l18.924-.036c.035,18.628,10.98,69.88,60.545,83.161,37.992,10.18,64.38-4.232,76.727-13.728,13.927-12.146,20.563-24.189,23.938-36.339,2.563-9.223,4.319-23.978,4.284-33.191L203.307-.132c.32,5.527-.28,24.543-3.3,35.415-4.069,14.648-13.617,36.35-30.365,50.067S134.863,107.791,105.072,107.791Z" transform="translate(3444.206 1736.396) rotate(-90)"/>
    <g id="Ellipse_2" data-name="Ellipse 2" class="cls-1" transform="translate(2295.018 1523.867)">
      <circle class="cls-3" cx="109" cy="109" r="109"/>
      <circle class="cls-4" cx="109" cy="109" r="89"/>
    </g>
    <path id="Path_3" data-name="Path 3" class="cls-1" d="M5.882,0s.034,110.87,0,111.025c.106,45.454,39.587,87.408,93.458,87.673,51.281.252,90.975-40.129,92.837-87.839.271.192,0-110.86,0-110.86" transform="translate(2561.118 1522.921)"/>
    <path id="Path_5" data-name="Path 5" class="cls-1" d="M5.882,0s.034,110.87,0,111.025c.106,45.454,39.587,87.408,93.458,87.673,51.281.252,90.975-40.129,92.837-87.839.271.192,0-110.86,0-110.86" transform="translate(3082.658 1522.921)"/>
    <path id="Path_4" data-name="Path 4" class="cls-1" d="M5.882,198.7s.034-110.87,0-111.025C5.988,42.22,45.468.266,99.339,0c51.281-.252,90.975,40.129,92.837,87.839.271-.192,0,110.86,0,110.86" transform="translate(2821.888 1541.706)"/>
  </g>
</svg>
