<svg width="24" height="24" viewBox="0 0 24 24" fill="none" xmlns="http://www.w3.org/2000/svg">
<path fill-rule="evenodd" clip-rule="evenodd" d="M4 2.83333C4 2.3731 4.3731 2 4.83333 2H19.8333C20.2936 2 20.6667 2.3731 20.6667 2.83333V21.1667C20.6667 21.6269 20.2936 22 19.8333 22H4.83333C4.3731 22 4 21.6269 4 21.1667V2.83333ZM5.66667 3.66667V20.3333H19V3.66667H5.66667Z" fill="#009DDD"/>
<path d="M5.66667 20.3333V3.66667H19V20.3333H5.66667Z" fill="#009DDD"/>
<path d="M16.5002 7C16.9604 7 17.3335 6.6269 17.3335 6.16667V3.66667V2H16.5002H15.6668V3.66667V5.33333H9.00016V3.66667V2H8.16683H7.3335V3.66667V6.16667C7.3335 6.6269 7.70659 7 8.16683 7H16.5002Z" fill="white"/>
<path d="M9.00016 3.66667H15.6668V2H9.00016V3.66667Z" fill="white"/>
<path fill-rule="evenodd" clip-rule="evenodd" d="M6.5 9.50033C6.5 9.04009 6.9018 8.66699 7.39744 8.66699H17.2692C17.7649 8.66699 18.1667 9.04009 18.1667 9.50033C18.1667 9.96056 17.7649 10.3337 17.2692 10.3337H7.39744C6.9018 10.3337 6.5 9.96056 6.5 9.50033Z" fill="white"/>
<path fill-rule="evenodd" clip-rule="evenodd" d="M14 15.3333C14 14.8731 14.3731 14.5 14.8333 14.5L17.3333 14.5C17.7936 14.5 18.1667 14.8731 18.1667 15.3333C18.1667 15.7936 17.7936 16.1667 17.3333 16.1667L14.8333 16.1667C14.3731 16.1667 14 15.7936 14 15.3333Z" fill="white"/>
<path fill-rule="evenodd" clip-rule="evenodd" d="M14 12.8333C14 12.3731 14.3731 12 14.8333 12L17.3333 12C17.7936 12 18.1667 12.3731 18.1667 12.8333C18.1667 13.2936 17.7936 13.6667 17.3333 13.6667L14.8333 13.6667C14.3731 13.6667 14 13.2936 14 12.8333Z" fill="white"/>
<path fill-rule="evenodd" clip-rule="evenodd" d="M14 17.8333C14 17.3731 14.3731 17 14.8333 17L17.3333 17C17.7936 17 18.1667 17.3731 18.1667 17.8333C18.1667 18.2936 17.7936 18.6667 17.3333 18.6667L14.8333 18.6667C14.3731 18.6667 14 18.2936 14 17.8333Z" fill="white"/>
<path d="M6.5 12.0003C6.5 11.5401 6.8731 11.167 7.33333 11.167H12.3333C12.7936 11.167 13.1667 11.5401 13.1667 12.0003V18.667C13.1667 19.1272 12.7936 19.5003 12.3333 19.5003H7.33333C6.8731 19.5003 6.5 19.1272 6.5 18.667V12.0003Z" fill="white"/>
</svg>
