<svg width="24" height="24" viewBox="0 0 24 24" fill="none" xmlns="http://www.w3.org/2000/svg">
<path fill-rule="evenodd" clip-rule="evenodd" d="M6.92056 9.99594C7.14277 9.88484 7.40748 9.90132 7.61419 10.0391L9.02254 10.978C9.22925 11.1158 9.49396 11.1323 9.71617 11.0212L11.7667 9.99594C11.9616 9.89849 12.191 9.89849 12.3859 9.99594L14.4365 11.0212C14.6587 11.1323 14.9234 11.1158 15.1301 10.978L16.5384 10.0391C16.7452 9.90132 17.0099 9.88484 17.2321 9.99594L19.1087 10.9342C19.1416 10.9507 19.1752 10.9643 19.2091 10.975C19.4965 11.0664 19.6917 11.3332 19.6917 11.6348V20.3075C19.6917 20.6898 19.3817 20.9998 18.9994 20.9998H5.15324C4.77089 20.9998 4.46094 20.6898 4.46094 20.3075V11.6348C4.46094 11.3332 4.65616 11.0664 4.94358 10.975C4.97748 10.9643 5.01103 10.9507 5.04394 10.9342L6.92056 9.99594ZM5.84555 12.0815V19.6152H18.3071V12.0815L16.9722 11.4141L15.8981 12.1301C15.278 12.5435 14.4839 12.593 13.8172 12.2596L12.0763 11.3892L10.3354 12.2596C9.66876 12.593 8.87464 12.5435 8.25449 12.1301L7.18043 11.4141L5.84555 12.0815Z" fill="#009DDD"/>
<path d="M5.84555 19.6152V12.0815L7.18043 11.4141L8.25449 12.1301C8.87464 12.5435 9.66876 12.593 10.3354 12.2596L12.0763 11.3892L13.8172 12.2596C14.4839 12.593 15.278 12.5435 15.8981 12.1301L16.9722 11.4141L18.3071 12.0815V19.6152H5.84555Z" fill="#009DDD"/>
<path fill-rule="evenodd" clip-rule="evenodd" d="M4.4909 3.49337C4.57875 3.20054 4.84828 3 5.15401 3H19.0002C19.3059 3 19.5754 3.20054 19.6633 3.49337L21.7402 10.4164L20.2951 10.4182L18.4851 4.38461H5.66911L3.85902 10.4182L2.41398 10.4164L4.4909 3.49337Z" fill="#009DDD"/>
<path d="M21.5666 11.1049C21.7467 10.9248 21.8134 10.6604 21.7402 10.4164L20.2951 10.4182L19.9086 10.8048C19.6979 11.0155 19.376 11.0677 19.1095 10.9345L17.2328 9.99616C17.0106 9.88506 16.7459 9.90154 16.5392 10.0393L15.1309 10.9782C14.9242 11.1161 14.6594 11.1325 14.4372 11.0214L12.3867 9.99616C12.1918 9.89871 11.9624 9.89871 11.7675 9.99616L9.71694 11.0214C9.49473 11.1325 9.23002 11.1161 9.02331 10.9782L7.61496 10.0393C7.40824 9.90154 7.14354 9.88506 6.92133 9.99616L5.04471 10.9345C4.77818 11.0677 4.45628 11.0155 4.24557 10.8048L3.85902 10.4182L2.41398 10.4164C2.3408 10.6604 2.40746 10.9248 2.58756 11.1049L3.2665 11.7839C3.89863 12.416 4.86434 12.5727 5.66393 12.1729L7.1812 11.4143L8.25526 12.1303C8.8754 12.5437 9.66953 12.5932 10.3362 12.2599L12.0771 11.3894L13.818 12.2599C14.4846 12.5932 15.2788 12.5437 15.8989 12.1303L16.973 11.4143L18.4902 12.1729C19.2898 12.5727 20.2555 12.416 20.8877 11.7839L21.5666 11.1049Z" fill="#009DDD"/>
<path d="M12.7694 16.154C12.7694 15.3893 13.3893 14.7694 14.154 14.7694C14.9187 14.7694 15.5386 15.3893 15.5386 16.154V19.6155H12.7694V16.154Z" fill="white"/>
<path fill-rule="evenodd" clip-rule="evenodd" d="M6.53857 15.4618C6.53857 15.0795 6.84853 14.7695 7.23088 14.7695H9.3078C9.69015 14.7695 10.0001 15.0795 10.0001 15.4618C10.0001 15.8442 9.69015 16.1541 9.3078 16.1541H7.23088C6.84853 16.1541 6.53857 15.8442 6.53857 15.4618Z" fill="white"/>
</svg>
