<svg width="24" height="24" viewBox="0 0 24 24" fill="none" xmlns="http://www.w3.org/2000/svg">
<path fill-rule="evenodd" clip-rule="evenodd" d="M12.2607 4.56521C10.964 4.56521 9.91287 5.61637 9.91287 6.91303C9.91287 8.20969 10.964 9.26085 12.2607 9.26085C13.5573 9.26085 14.6085 8.20969 14.6085 6.91303C14.6085 5.61637 13.5573 4.56521 12.2607 4.56521ZM8.34766 6.91303C8.34766 4.75192 10.0996 3 12.2607 3C14.4218 3 16.1737 4.75192 16.1737 6.91303C16.1737 9.07413 14.4218 10.8261 12.2607 10.8261C10.0996 10.8261 8.34766 9.07413 8.34766 6.91303Z" fill="#009DDD"/>
<path d="M9.91287 6.91303C9.91287 5.61637 10.964 4.56521 12.2607 4.56521C13.5573 4.56521 14.6085 5.61637 14.6085 6.91303C14.6085 8.20969 13.5573 9.26085 12.2607 9.26085C10.964 9.26085 9.91287 8.20969 9.91287 6.91303Z" fill="#009DDD"/>
<path d="M11.1781 14.0406L12.2607 14.9096L13.3433 14.0406C13.0075 13.9862 12.6473 13.9566 12.2607 13.9566C11.8741 13.9566 11.5139 13.9862 11.1781 14.0406Z" fill="#009DDD"/>
<path fill-rule="evenodd" clip-rule="evenodd" d="M12.2607 13.9566C11.8741 13.9566 11.5139 13.9862 11.1781 14.0406L10.016 12.7026C10.6914 12.5026 11.4379 12.3914 12.2607 12.3914C13.1874 12.3914 14.0174 12.5325 14.758 12.7827L13.3433 14.0406C13.0075 13.9862 12.6473 13.9566 12.2607 13.9566ZM12.174 20.9952H12.3474C12.2898 21.0016 12.2316 21.0016 12.174 20.9952Z" fill="#009DDD"/>
<path d="M15.1017 14.6363L13.2718 16.1051L14.5054 18.2639C14.6805 18.5703 14.6288 18.956 14.3793 19.2056L12.8141 20.7708C12.6834 20.9015 12.5179 20.9763 12.3474 20.9952H19.2162H19.3906C19.8202 20.9475 20.1297 20.5606 20.082 20.131L19.3041 20.2174C20.082 20.131 20.0818 20.1297 20.0818 20.1297L20.0816 20.1279L20.0811 20.123L20.0792 20.1079C20.0777 20.0956 20.0756 20.0787 20.0727 20.0575C20.0669 20.015 20.0583 19.9552 20.0461 19.88C20.0217 19.7298 19.9829 19.5176 19.9242 19.2596C19.8071 18.745 19.6091 18.0401 19.2837 17.2773C18.7772 16.0897 17.9373 14.7065 16.565 13.7136L15.1017 14.6363Z" fill="#009DDD"/>
<path d="M11.7073 20.7708L10.1421 19.2056C9.89255 18.956 9.8409 18.5703 10.016 18.2639L11.2496 16.1051L9.41969 14.6363L8.16977 13.5653C6.67039 14.5654 5.76993 16.0293 5.23767 17.2773C4.91232 18.0401 4.71431 18.745 4.59724 19.2596C4.53853 19.5176 4.49973 19.7298 4.47531 19.88C4.46309 19.9552 4.45445 20.015 4.4487 20.0575C4.44582 20.0787 4.44367 20.0956 4.44215 20.1079L4.44034 20.123L4.43978 20.1279L4.43957 20.1297L4.43943 20.131C4.3917 20.5606 4.70124 20.9475 5.13082 20.9952H5.30497H12.174C12.0035 20.9763 11.838 20.9015 11.7073 20.7708Z" fill="#009DDD"/>
<path d="M11.6715 18.5215L12.2607 17.4905L12.8498 18.5215L12.2607 19.1106L11.6715 18.5215Z" fill="#009DDD"/>
</svg>
