<svg width="24" height="24" viewBox="0 0 24 24" fill="none" xmlns="http://www.w3.org/2000/svg">
<path fill-rule="evenodd" clip-rule="evenodd" d="M4 5.57143C4 5.25584 4.25584 5 4.57143 5H19.4286C19.7442 5 20 5.25584 20 5.57143V15.2857C20 15.6013 19.7442 15.8571 19.4286 15.8571H9.07814L7.92344 17.8571C7.82137 18.0339 7.63272 18.1429 7.42857 18.1429C7.22442 18.1429 7.03578 18.0339 6.9337 17.8571L5.779 15.8571H4.57143C4.25584 15.8571 4 15.6013 4 15.2857V5.57143ZM5.14286 6.14286V14.7143H6.10891C6.31307 14.7143 6.50171 14.8232 6.60379 15L7.42857 16.4286L8.25336 15C8.35543 14.8232 8.54408 14.7143 8.74823 14.7143H18.8571V6.14286H5.14286Z" fill="#009DDD"/>
<path d="M5.14286 14.7143V6.14286H18.8571V14.7143H8.74823C8.54408 14.7143 8.35543 14.8232 8.25336 15L7.42857 16.4286L6.60379 15C6.50171 14.8232 6.31307 14.7143 6.10891 14.7143H5.14286Z" fill="#009DDD"/>
<path d="M8.99967 10.5003C8.99967 10.9606 8.62658 11.3337 8.16634 11.3337C7.7061 11.3337 7.33301 10.9606 7.33301 10.5003C7.33301 10.0401 7.7061 9.66699 8.16634 9.66699C8.62658 9.66699 8.99967 10.0401 8.99967 10.5003Z" fill="white"/>
<path d="M12.6667 10.5003C12.6667 10.9606 12.2936 11.3337 11.8333 11.3337C11.3731 11.3337 11 10.9606 11 10.5003C11 10.0401 11.3731 9.66699 11.8333 9.66699C12.2936 9.66699 12.6667 10.0401 12.6667 10.5003Z" fill="white"/>
<path d="M16.3332 10.5003C16.3332 10.9606 15.9601 11.3337 15.4998 11.3337C15.0396 11.3337 14.6665 10.9606 14.6665 10.5003C14.6665 10.0401 15.0396 9.66699 15.4998 9.66699C15.9601 9.66699 16.3332 10.0401 16.3332 10.5003Z" fill="white"/>
</svg>
