<svg width="24" height="24" viewBox="0 0 24 24" fill="none" xmlns="http://www.w3.org/2000/svg">
<path fill-rule="evenodd" clip-rule="evenodd" d="M10.8967 4.40869C9.72973 4.40869 8.78369 5.35473 8.78369 6.52173C8.78369 7.68872 9.72973 8.63476 10.8967 8.63476C12.0637 8.63476 13.0098 7.68872 13.0098 6.52173C13.0098 5.35473 12.0637 4.40869 10.8967 4.40869ZM7.375 6.52173C7.375 4.57673 8.95173 3 10.8967 3C12.8417 3 14.4185 4.57673 14.4185 6.52173C14.4185 8.46672 12.8417 10.0435 10.8967 10.0435C8.95173 10.0435 7.375 8.46672 7.375 6.52173Z" fill="#009DDD"/>
<path d="M8.78369 6.52173C8.78369 5.35473 9.72973 4.40869 10.8967 4.40869C12.0637 4.40869 13.0098 5.35473 13.0098 6.52173C13.0098 7.68872 12.0637 8.63476 10.8967 8.63476C9.72973 8.63476 8.78369 7.68872 8.78369 6.52173Z" fill="#009DDD"/>
<path d="M19.1523 18.75C19.1523 19.195 19.0204 19.63 18.7732 20C18.5259 20.37 18.1745 20.6584 17.7634 20.8287C17.3522 20.999 16.8998 21.0436 16.4634 20.9568C16.0269 20.8699 15.626 20.6557 15.3114 20.341C14.9967 20.0263 14.7824 19.6254 14.6956 19.189C14.6088 18.7525 14.6533 18.3001 14.8236 17.889C14.9939 17.4778 15.2823 17.1264 15.6523 16.8792C16.0223 16.632 16.4573 16.5 16.9023 16.5C17.4991 16.5 18.0714 16.7371 18.4933 17.159C18.9153 17.581 19.1523 18.1533 19.1523 18.75ZM17.583 19.0726C17.593 18.8563 17.4847 18.7248 17.3713 18.6567C17.329 18.6306 17.2831 18.611 17.235 18.5987C17.1407 18.5748 17.0446 18.5588 16.9476 18.5508C16.7536 18.5307 16.6477 18.4954 16.6477 18.4021C16.6477 18.2939 16.7233 18.2559 16.9023 18.2559C17.0409 18.2559 17.1065 18.3038 17.1568 18.4021C17.1947 18.4727 17.2274 18.4832 17.2956 18.4525L17.4696 18.3741C17.5477 18.3414 17.5654 18.3035 17.5276 18.2329C17.4419 18.0489 17.2977 17.9406 17.0941 17.9053V17.8019C17.0941 17.7343 17.0714 17.7111 17.0008 17.7111H16.8092C16.7416 17.7111 16.7159 17.7338 16.7159 17.8019V17.9053C16.4034 17.956 16.2344 18.1375 16.2344 18.4022C16.2344 18.566 16.3 18.6946 16.3781 18.7626C16.4235 18.8024 16.4767 18.8325 16.5343 18.8507C16.6629 18.9012 16.736 18.9086 16.8772 18.9263C17.0762 18.9465 17.1747 18.9792 17.1747 19.0801C17.1747 19.1882 17.0789 19.2415 16.8873 19.2415C16.7436 19.2415 16.6504 19.1911 16.61 19.0878C16.5773 19.0148 16.5424 18.9995 16.4688 19.0272L16.2974 19.0878C16.2294 19.1129 16.2069 19.1583 16.2298 19.2238C16.3078 19.4305 16.4691 19.554 16.7166 19.5919V19.6952C16.7166 19.7657 16.7417 19.7885 16.8099 19.7885H17.0015C17.072 19.7885 17.0948 19.7657 17.0948 19.6952V19.587C17.4066 19.5288 17.583 19.3422 17.583 19.0726Z" fill="#009DDD"/>
<path fill-rule="evenodd" clip-rule="evenodd" d="M10.8951 13.7185L11.8694 12.9365L13.1426 11.8043C12.4761 11.5792 11.7291 11.4521 10.8951 11.4521C10.1546 11.4521 9.48268 11.5523 8.87484 11.7323L9.92071 12.9365L10.8951 13.7185ZM10.9731 19.1956H10.8171C10.8689 19.2014 10.9213 19.2014 10.9731 19.1956ZM10.8171 19.1956H4.63492H4.47819C4.09157 19.1527 3.81297 18.8044 3.85593 18.4178L3.85607 18.4166L3.85625 18.415L3.85676 18.4106L3.85838 18.3971C3.85975 18.386 3.86169 18.3708 3.86428 18.3516C3.86945 18.3134 3.87723 18.2596 3.88823 18.192C3.91021 18.0568 3.94513 17.8658 3.99796 17.6336C4.10333 17.1704 4.28154 16.536 4.57435 15.8495C5.05339 14.7263 5.8638 13.4087 7.21325 12.5087L8.33817 13.4726L9.98511 14.7945L8.87484 16.7375C8.71726 17.0132 8.76374 17.3604 8.98834 17.585L10.397 18.9936C10.5147 19.1113 10.6636 19.1786 10.8171 19.1956ZM17.1081 15.6062C16.6438 14.5958 15.9113 13.4687 14.769 12.6421L13.452 13.4726L11.805 14.7945L12.9153 16.7375C13.0729 17.0132 13.0264 17.3604 12.8018 17.585L11.3931 18.9936C11.2755 19.1113 11.1265 19.1786 10.9731 19.1956H13.7824C13.7618 19.0499 13.7511 18.901 13.7511 18.7495C13.7511 17.0098 15.1614 15.5995 16.9011 15.5995C16.9706 15.5995 17.0396 15.6018 17.1081 15.6062ZM10.8951 16.0414L10.3648 16.9693L10.8951 17.4995L11.4253 16.9693L10.8951 16.0414Z" fill="#009DDD"/>
</svg>
