<svg width="16" height="16" viewBox="0 0 16 16" fill="none" xmlns="http://www.w3.org/2000/svg">
<path d="M8.83024 1.11897C8.75951 1.08196 8.67944 1.06665 8.60005 1.07495C8.52066 1.08325 8.44548 1.1148 8.38394 1.16564C8.27349 1.25711 8.14001 1.31645 7.99811 1.33717C7.8562 1.35789 7.71133 1.33919 7.57933 1.28311L7.44738 1.22947C7.36125 1.19316 7.26725 1.17949 7.17435 1.18978C7.12581 1.19518 7.0788 1.2101 7.03603 1.23368C6.99326 1.25726 6.95555 1.28903 6.92506 1.32719C6.89457 1.36535 6.8719 1.40915 6.85835 1.45607C6.8448 1.50299 6.84062 1.55213 6.84607 1.60067C6.85259 1.66117 6.87416 1.71908 6.90883 1.7691L7.51121 2.65149C7.7725 2.55779 8.0479 2.50953 8.32548 2.50881H8.33191C8.58293 2.50921 8.8324 2.5481 9.07162 2.62413C9.1832 2.41568 9.33169 2.22921 9.50986 2.07378L9.77807 1.8383C9.7981 1.82064 9.8103 1.79576 9.81201 1.76911C9.81372 1.74246 9.80479 1.71622 9.78719 1.69615C9.77751 1.6852 9.76563 1.67643 9.75232 1.6704L9.67829 1.63822C9.57088 1.59083 9.44995 1.58384 9.33779 1.61853C9.22563 1.65323 9.12977 1.72727 9.06786 1.82703L8.94074 2.03087L9.03836 1.56044C9.0563 1.47423 9.04569 1.38453 9.00815 1.30489C8.9706 1.22525 8.90815 1.15999 8.83024 1.11897Z" fill="#009DDD"/>
<path d="M5.59431 7.05015C5.66134 7.20365 5.75732 7.34279 5.877 7.45997C5.95067 7.5317 6.03136 7.59586 6.11785 7.65147C6.67732 8.0173 7.47389 8.1809 8.33161 8.1809C9.1684 8.1809 9.98428 8.01998 10.5448 7.65147C10.6311 7.59555 10.7118 7.53142 10.7857 7.45997C10.9054 7.34279 11.0013 7.20365 11.0684 7.05015C11.5211 6.02615 10.7422 4.40941 9.91348 3.50985C9.74327 3.31823 9.54847 3.14994 9.33416 3.00938C9.03538 2.82325 8.67866 2.75673 8.33268 2.75244C7.98616 2.75673 7.63052 2.82325 7.3312 3.00938C7.11662 3.1498 6.92163 3.31809 6.75135 3.50985C5.91991 4.40941 5.14158 6.02615 5.59431 7.05015ZM7.60477 4.96191C7.60477 4.60842 7.81183 4.36328 8.15137 4.29569V4.09883C8.15556 4.05514 8.17588 4.01457 8.20836 3.98506C8.24084 3.95554 8.28316 3.93918 8.32705 3.93918C8.37094 3.93918 8.41325 3.95554 8.44574 3.98506C8.47822 4.01457 8.49853 4.05514 8.50272 4.09883V4.28764C8.63317 4.30686 8.75743 4.35586 8.86587 4.43087C8.91089 4.46264 8.94151 4.51092 8.95106 4.56519C8.9606 4.61946 8.9483 4.6753 8.91683 4.72053L8.90288 4.73823C8.87017 4.77561 8.82522 4.80013 8.77608 4.8074C8.72694 4.81468 8.67682 4.80423 8.63468 4.77792C8.5588 4.72945 8.47046 4.7041 8.38042 4.70497C8.20716 4.70497 8.11222 4.7747 8.11222 4.93724C8.11222 5.28107 9.06488 5.25103 9.06488 5.94139C9.06488 6.28738 8.87392 6.5529 8.50326 6.63175V6.83344C8.49847 6.87662 8.47794 6.91651 8.44557 6.94549C8.41321 6.97447 8.37129 6.99049 8.32785 6.99049C8.28441 6.99049 8.2425 6.97447 8.21013 6.94549C8.17777 6.91651 8.15723 6.87662 8.15245 6.83344V6.64838C7.99778 6.6292 7.84795 6.58174 7.71045 6.50838C7.68521 6.49501 7.66286 6.4768 7.64467 6.45478C7.62649 6.43277 7.61282 6.40739 7.60445 6.38008C7.59608 6.35278 7.59317 6.3241 7.5959 6.29567C7.59862 6.26725 7.60692 6.23964 7.62033 6.21443L7.62945 6.19941C7.65891 6.15303 7.70504 6.11972 7.75834 6.10635C7.81163 6.09297 7.86802 6.10055 7.91589 6.12753C8.02049 6.1905 8.1398 6.2249 8.26187 6.2273C8.46678 6.2273 8.55636 6.14255 8.55636 5.97787C8.55636 5.60667 7.6037 5.61472 7.6037 4.96191H7.60477Z" fill="#009DDD"/>
<path d="M13.9269 7.00343C13.8083 7.00292 13.6906 7.02593 13.5809 7.07114C13.4711 7.11634 13.3714 7.18285 13.2875 7.2668L10.76 9.70907L10.6591 9.80669L10.6951 9.9424C10.7116 10.0043 10.7231 10.0675 10.7294 10.1312C10.7582 10.4246 10.6841 10.7189 10.5197 10.9636C10.3552 11.2082 10.1108 11.3881 9.82824 11.4722C9.701 11.5099 9.56879 11.5279 9.43613 11.5259H7.42727C7.38026 11.5233 7.33602 11.5029 7.30364 11.4687C7.27126 11.4345 7.25322 11.3892 7.25322 11.3422C7.25322 11.2951 7.27126 11.2498 7.30364 11.2156C7.33602 11.1814 7.38026 11.161 7.42727 11.1584H9.46241C9.70203 11.1589 9.93202 11.0641 10.1018 10.895C10.2716 10.726 10.3673 10.4964 10.3679 10.2567C10.3681 10.2259 10.3666 10.1951 10.3636 10.1645C10.3201 9.70638 9.91139 9.34699 9.43344 9.34699H7.30604C6.971 9.35016 6.64002 9.27348 6.34051 9.12331C5.81906 8.85134 5.23947 8.7098 4.65136 8.71081C3.93529 8.71362 3.23387 8.9139 2.62426 9.2896C2.02045 9.65313 1.52902 10.1767 1.20439 10.8023L1.125 10.9578L1.24837 11.0812L4.25227 14.0819L4.4207 14.2503L4.5902 14.0829L4.67979 13.9944C4.8872 13.7865 5.13371 13.6218 5.40512 13.5096C5.67653 13.3975 5.96746 13.3402 6.26112 13.3411H10.3378C10.4465 13.3416 10.5538 13.3178 10.652 13.2714C10.7502 13.2249 10.8368 13.1571 10.9054 13.0729L14.5798 8.54399C14.7038 8.41656 14.7875 8.2554 14.8204 8.08065C14.8534 7.9059 14.8341 7.72532 14.7649 7.56149C14.6958 7.39766 14.5798 7.25786 14.4317 7.15955C14.2835 7.06125 14.1096 7.00881 13.9318 7.00879L13.9269 7.00343Z" fill="#009DDD"/>
</svg>
