<svg width="24" height="24" viewBox="0 0 24 24" fill="none" xmlns="http://www.w3.org/2000/svg">
<path d="M12 18C7.51049 18 2 14.0928 2 12C2 9.90724 7.51049 6 12 6C16.4895 6 22 9.90724 22 12C22 14.0928 16.4895 18 12 18ZM3.92582 12.4623C4.4058 12.994 5.06532 13.5761 5.81317 14.1064C7.71956 15.4581 9.87506 16.2774 12 16.2774C14.1249 16.2774 16.2804 15.4581 18.1868 14.1064C18.9347 13.5761 19.5942 12.994 20.0742 12.4623C20.2291 12.2908 20.3571 12.1329 20.4518 12C20.3571 11.8671 20.2291 11.7092 20.0742 11.5377C19.5942 11.006 18.9347 10.4239 18.1868 9.89359C16.2804 8.54186 14.1249 7.72256 12 7.72256C9.87506 7.72256 7.71956 8.54186 5.81317 9.89359C5.06532 10.4239 4.4058 11.006 3.92582 11.5377C3.77093 11.7092 3.64286 11.8671 3.54819 12C3.64286 12.1329 3.77093 12.2908 3.92582 12.4623ZM12 15.5C10.067 15.5 8.5 13.933 8.5 12C8.5 10.067 10.067 8.5 12 8.5C13.933 8.5 15.5 10.067 15.5 12C15.5 13.933 13.933 15.5 12 15.5ZM12 13.7C12.9389 13.7 13.7 12.9389 13.7 12C13.7 11.0611 12.9389 10.3 12 10.3C11.0611 10.3 10.3 11.0611 10.3 12C10.3 12.9389 11.0611 13.7 12 13.7Z" fill="#1C2E45" fill-opacity="0.6"/>
</svg>
