<svg width="18" height="19" viewBox="0 0 18 19" fill="none" xmlns="http://www.w3.org/2000/svg">
<path d="M4.5 16.623C3.90326 16.623 3.33097 16.386 2.90901 15.964C2.48705 15.5421 2.25 14.9698 2.25 14.373V3.87305C2.25 3.27631 2.48705 2.70401 2.90901 2.28206C3.33097 1.8601 3.90326 1.62305 4.5 1.62305H10.629C11.2254 1.62337 11.7973 1.86049 12.219 2.2823L15.0915 5.1533C15.5132 5.57528 15.7501 6.14747 15.75 6.74405V14.373C15.75 14.9698 15.5129 15.5421 15.091 15.964C14.669 16.386 14.0967 16.623 13.5 16.623H4.5ZM3.75 14.373C3.75 14.572 3.82902 14.7627 3.96967 14.9034C4.11032 15.044 4.30109 15.123 4.5 15.123H13.5C13.6989 15.123 13.8897 15.044 14.0303 14.9034C14.171 14.7627 14.25 14.572 14.25 14.373V7.62305H12C11.4033 7.62305 10.831 7.38599 10.409 6.96404C9.98705 6.54208 9.75 5.96978 9.75 5.37305V3.12305H4.5C4.30109 3.12305 4.11032 3.20206 3.96967 3.34272C3.82902 3.48337 3.75 3.67413 3.75 3.87305V14.373ZM12 6.12305H13.9395L11.25 3.43355V5.37305C11.25 5.57196 11.329 5.76272 11.4697 5.90338C11.6103 6.04403 11.8011 6.12305 12 6.12305ZM6 9.12305C5.80109 9.12305 5.61032 9.20206 5.46967 9.34272C5.32902 9.48337 5.25 9.67413 5.25 9.87305C5.25 10.072 5.32902 10.2627 5.46967 10.4034C5.61032 10.544 5.80109 10.623 6 10.623H12C12.1989 10.623 12.3897 10.544 12.5303 10.4034C12.671 10.2627 12.75 10.072 12.75 9.87305C12.75 9.67413 12.671 9.48337 12.5303 9.34272C12.3897 9.20206 12.1989 9.12305 12 9.12305H6ZM6 12.123C5.80109 12.123 5.61032 12.2021 5.46967 12.3427C5.32902 12.4834 5.25 12.6741 5.25 12.873C5.25 13.072 5.32902 13.2627 5.46967 13.4034C5.61032 13.544 5.80109 13.623 6 13.623H9C9.19891 13.623 9.38968 13.544 9.53033 13.4034C9.67098 13.2627 9.75 13.072 9.75 12.873C9.75 12.6741 9.67098 12.4834 9.53033 12.3427C9.38968 12.2021 9.19891 12.123 9 12.123H6Z" fill="#849AA9"/>
</svg>
