<svg width="38" height="44" viewBox="0 0 38 44" fill="none" xmlns="http://www.w3.org/2000/svg">
<path fill-rule="evenodd" clip-rule="evenodd" d="M17.2259 3.44346C14.3732 3.44346 12.0607 5.756 12.0607 8.60866C12.0607 11.4613 14.3732 13.7739 17.2259 13.7739C20.0785 13.7739 22.391 11.4613 22.391 8.60866C22.391 5.756 20.0785 3.44346 17.2259 3.44346ZM8.61719 8.60866C8.61719 3.85423 12.4714 0 17.2259 0C21.9803 0 25.8345 3.85423 25.8345 8.60866C25.8345 13.3631 21.9803 17.2173 17.2259 17.2173C12.4714 17.2173 8.61719 13.3631 8.61719 8.60866Z" fill="#009DDD"/>
<path d="M12.0607 8.60866C12.0607 5.756 14.3732 3.44346 17.2259 3.44346C20.0785 3.44346 22.391 5.756 22.391 8.60866C22.391 11.4613 20.0785 13.7739 17.2259 13.7739C14.3732 13.7739 12.0607 11.4613 12.0607 8.60866Z" fill="#009DDD"/>
<path d="M37.3984 38.5C37.3984 39.5878 37.0759 40.6512 36.4715 41.5556C35.8672 42.4601 35.0082 43.1651 34.0032 43.5813C32.9982 43.9976 31.8923 44.1065 30.8254 43.8943C29.7585 43.6821 28.7785 43.1583 28.0094 42.3891C27.2402 41.6199 26.7163 40.6399 26.5041 39.573C26.2919 38.5061 26.4008 37.4002 26.8171 36.3952C27.2334 35.3902 27.9383 34.5313 28.8428 33.9269C29.7473 33.3226 30.8106 33 31.8984 33C33.3571 33 34.7561 33.5795 35.7875 34.6109C36.819 35.6424 37.3984 37.0413 37.3984 38.5ZM33.5623 39.2886C33.5868 38.7598 33.322 38.4385 33.0447 38.2719C32.9415 38.2081 32.8291 38.1603 32.7115 38.1301C32.4811 38.0717 32.2461 38.0326 32.0092 38.0131C31.5349 37.9639 31.2761 37.8776 31.2761 37.6495C31.2761 37.3851 31.4608 37.2922 31.8984 37.2922C32.2372 37.2922 32.3975 37.4093 32.5205 37.6495C32.613 37.8221 32.693 37.8479 32.8596 37.7728L33.285 37.5811C33.4761 37.5011 33.5194 37.4086 33.4268 37.2361C33.2172 36.7862 32.8649 36.5215 32.3671 36.4352V36.1823C32.3671 36.0171 32.3116 35.9605 32.1391 35.9605H31.6707C31.5054 35.9605 31.4426 36.0161 31.4426 36.1823V36.4352C30.6788 36.5591 30.2656 37.0027 30.2656 37.6499C30.2656 38.0501 30.4259 38.3645 30.617 38.5307C30.728 38.6282 30.858 38.7016 30.9987 38.7462C31.3131 38.8695 31.4919 38.8877 31.837 38.931C32.3235 38.9803 32.5641 39.0602 32.5641 39.3068C32.5641 39.5712 32.3301 39.7015 31.8618 39.7015C31.5104 39.7015 31.2827 39.5782 31.1838 39.3257C31.1038 39.1472 31.0186 39.1098 30.8388 39.1776L30.4197 39.3257C30.2535 39.3871 30.1984 39.498 30.2544 39.6582C30.4451 40.1635 30.8394 40.4653 31.4443 40.5579V40.8104C31.4443 40.9829 31.5058 41.0385 31.6724 41.0385H32.1407C32.3133 41.0385 32.3688 40.9829 32.3688 40.8104V40.546C33.131 40.4038 33.5623 39.9477 33.5623 39.2886Z" fill="#009DDD"/>
<path fill-rule="evenodd" clip-rule="evenodd" d="M17.2175 26.2012L19.5993 24.2895L22.7114 21.522C21.0823 20.9717 19.2563 20.6611 17.2175 20.6611C15.4073 20.6611 13.765 20.9059 12.2791 21.346L14.8357 24.2895L17.2175 26.2012ZM17.4082 39.5897H17.0268C17.1535 39.6037 17.2815 39.6037 17.4082 39.5897ZM17.0268 39.5897H1.91489H1.53175C0.58668 39.4846 -0.0943254 38.6334 0.0106824 37.6883L0.0110103 37.6854L0.0114542 37.6815L0.0126986 37.6707L0.0166757 37.6376C0.0200115 37.6105 0.0247494 37.5733 0.0310754 37.5266C0.0437243 37.4332 0.0627419 37.3016 0.0896237 37.1362C0.143349 36.8058 0.228718 36.339 0.357868 35.7713C0.61543 34.6392 1.05106 33.0884 1.76681 31.4102C2.93779 28.6646 4.91881 25.4439 8.21745 23.2437L10.9673 25.5999L14.9931 28.8313L12.2791 33.5808C11.8939 34.2549 12.0076 35.1034 12.5566 35.6524L16 39.0959C16.2876 39.3835 16.6517 39.5481 17.0268 39.5897ZM32.4042 30.8141C31.2693 28.3447 29.4789 25.5902 26.687 23.57L23.4677 25.5999L19.4418 28.8313L22.1558 33.5808C22.541 34.2549 22.4274 35.1034 21.8784 35.6524L18.4349 39.0959C18.1473 39.3835 17.7833 39.5481 17.4082 39.5897H24.2761C24.2255 39.233 24.1993 38.8685 24.1993 38.4979C24.1993 34.2453 27.6467 30.7979 31.8993 30.7979C32.0689 30.7979 32.2373 30.8033 32.4042 30.8141ZM17.2175 31.8792L15.9213 34.1474L17.2175 35.4436L18.5136 34.1474L17.2175 31.8792Z" fill="#009DDD"/>
</svg>
