<svg width="14" height="14" viewBox="0 0 14 14" fill="none" xmlns="http://www.w3.org/2000/svg">
<path d="M10.9485 8.54675C10.7759 8.71408 10.6965 8.95608 10.7359 9.19341L11.3285 12.4734C11.3785 12.7514 11.2612 13.0327 11.0285 13.1934C10.8005 13.3601 10.4972 13.3801 10.2485 13.2467L7.29585 11.7067C7.19319 11.6521 7.07919 11.6227 6.96252 11.6194H6.78185C6.71919 11.6287 6.65786 11.6487 6.60186 11.6794L3.64852 13.2267C3.50252 13.3001 3.33719 13.3261 3.17519 13.3001C2.78052 13.2254 2.51719 12.8494 2.58185 12.4527L3.17519 9.17275C3.21452 8.93341 3.13519 8.69008 2.96252 8.52008L0.555188 6.18675C0.353855 5.99141 0.283855 5.69808 0.375855 5.43341C0.465188 5.16941 0.693188 4.97675 0.968521 4.93341L4.28185 4.45275C4.53385 4.42675 4.75519 4.27341 4.86852 4.04675L6.32852 1.05341C6.36319 0.986748 6.40786 0.925415 6.46185 0.873415L6.52185 0.826748C6.55319 0.792081 6.58919 0.763415 6.62919 0.740081L6.70185 0.713415L6.81519 0.666748H7.09585C7.34652 0.692748 7.56719 0.842748 7.68252 1.06675L9.16185 4.04675C9.26852 4.26475 9.47585 4.41608 9.71519 4.45275L13.0285 4.93341C13.3085 4.97341 13.5425 5.16675 13.6352 5.43341C13.7225 5.70075 13.6472 5.99408 13.4419 6.18675L10.9485 8.54675Z" fill="#009DDD"/>
</svg>
