<svg width="19" height="19" viewBox="0 0 19 19" fill="none" xmlns="http://www.w3.org/2000/svg">
<path d="M7.25 3.87305C6.45435 3.87305 5.69129 4.18912 5.12868 4.75173C4.56607 5.31434 4.25 6.0774 4.25 6.87305C4.25 7.6687 4.56607 8.43176 5.12868 8.99437C5.69129 9.55698 6.45435 9.87305 7.25 9.87305C8.04565 9.87305 8.80871 9.55698 9.37132 8.99437C9.93393 8.43176 10.25 7.6687 10.25 6.87305C10.25 6.0774 9.93393 5.31434 9.37132 4.75173C8.80871 4.18912 8.04565 3.87305 7.25 3.87305ZM2.75 6.87305C2.75 5.67957 3.22411 4.53498 4.06802 3.69107C4.91193 2.84715 6.05653 2.37305 7.25 2.37305C8.44347 2.37305 9.58807 2.84715 10.432 3.69107C11.2759 4.53498 11.75 5.67957 11.75 6.87305C11.75 8.06652 11.2759 9.21111 10.432 10.055C9.58807 10.8989 8.44347 11.373 7.25 11.373C6.05653 11.373 4.91193 10.8989 4.06802 10.055C3.22411 9.21111 2.75 8.06652 2.75 6.87305Z" fill="#849AA9"/>
<path d="M2.843 14.3733H11.657C11.2467 12.7256 9.512 11.3733 7.25 11.3733C4.988 11.3733 3.25325 12.7256 2.843 14.3733ZM1.25 15.1233C1.25 12.1196 4.049 9.87332 7.25 9.87332C10.451 9.87332 13.25 12.1196 13.25 15.1233C13.25 15.3222 13.171 15.513 13.0303 15.6537C12.8897 15.7943 12.6989 15.8733 12.5 15.8733H2C1.80109 15.8733 1.61032 15.7943 1.46967 15.6537C1.32902 15.513 1.25 15.3222 1.25 15.1233ZM12.5007 9.77882C12.4116 9.93976 12.315 10.0964 12.2113 10.2483C12.6785 10.6608 13.094 11.1303 13.4465 11.6463C14.8497 12.1226 15.857 13.1688 16.157 14.3733H14.6C14.6982 14.8578 14.75 15.3596 14.75 15.8733H17C17.1989 15.8733 17.3897 15.7943 17.5303 15.6537C17.671 15.513 17.75 15.3222 17.75 15.1233C17.75 13.0293 16.3895 11.3036 14.4815 10.4501C15.2638 9.85293 15.8288 9.01579 16.0899 8.06689C16.351 7.11799 16.2938 6.10966 15.9271 5.19636C15.5604 4.28306 14.9044 3.51516 14.0596 3.01029C13.2148 2.50542 12.2278 2.29142 11.2498 2.40107C11.7511 2.85008 12.1737 3.37991 12.5 3.96857C13.1433 4.13565 13.713 4.51157 14.1197 5.03734C14.5264 5.56311 14.747 6.209 14.747 6.8737C14.747 7.53839 14.5264 8.18428 14.1197 8.71005C13.713 9.23583 13.1433 9.61174 12.5 9.77882H12.5007Z" fill="#849AA9"/>
</svg>
