<svg width="48" height="48" viewBox="0 0 48 48" fill="none" xmlns="http://www.w3.org/2000/svg">
<path d="M0 24C0 10.7452 10.7452 0 24 0C37.2548 0 48 10.7452 48 24C48 37.2548 37.2548 48 24 48C10.7452 48 0 37.2548 0 24Z" fill="#E3EBFD"/>
<path d="M23.9997 24.0001C26.3009 24.0001 28.1663 22.1346 28.1663 19.8334C28.1663 17.5322 26.3009 15.6667 23.9997 15.6667C21.6985 15.6667 19.833 17.5322 19.833 19.8334C19.833 22.1346 21.6985 24.0001 23.9997 24.0001Z" stroke="#4475F2" stroke-width="1.2" stroke-linecap="round" stroke-linejoin="round"/>
<path d="M31.1585 32.3333C31.1585 29.1083 27.9501 26.5 24.0001 26.5C20.0501 26.5 16.8418 29.1083 16.8418 32.3333" stroke="#4475F2" stroke-width="1.2" stroke-linecap="round" stroke-linejoin="round"/>
</svg>
